<svg xml:space="preserve" style="max-height: 500px" viewBox="0 13.6 115.8 76.2" y="0px" x="0px" id="Layer_1" version="1.1" xmlns="http://www.w3.org/2000/svg" width="115.8" height="76.2"><g>
		<g>
			<g>
				<path d="M39.574,57.573c-0.063-0.886-0.182-1.773-0.289-2.632c-0.342-2.723-0.787-5.398-2.38-7.701      c-1.265-1.834-2.608-4.242-5.185-4.058c-2.191,0.155-3.61,3.032-3.503,4.979c0.003,0.054,0.04,0.083,0.082,0.09      c0.476,0.474,0.862,1.06,1.317,1.554c0.25,0.274,0.383,0.638,0.551,0.964c0.167,0.329,0.316,0.667,0.462,1.007      c0.299,0.696,0.667,1.364,0.943,2.068c0.019,0.048,0.036,0.099,0.053,0.148c-0.005,0.028-0.008,0.055-0.012,0.081      c-0.122,0.705-0.431,1.328-0.685,1.988c-0.227,0.584-0.538,1.137-0.854,1.675c-2.892,4.903-5.708,9.932-8.41,14.941      c-0.301,0.559-0.537,1.142-0.799,1.718c-0.262,0.569-0.522,1.131-0.694,1.733c-0.349,1.21-0.374,2.42-0.341,3.669      c0.023,0.867,0.133,1.736,0.463,2.544c0.341,0.834,0.721,1.759,1.317,2.445c0.397,0.457,0.991,1.062,1.644,1.072      c0.202,0.003,0.511,0.039,0.66-0.144c0.049-0.059,0.086-0.123,0.118-0.188c0.079,0.043,0.159,0.08,0.238,0.108      c0.527,0.184,1.115-0.202,1.406-0.61c0.192-0.266,0.251-0.598,0.233-0.94c0.088,0.02,0.175,0.036,0.261,0.042      c1.25,0.106,1.124-1.283,0.835-2.132c-0.238-0.698-0.73-1.21-1.208-1.751c-0.432-0.492-0.798-1.118-1.421-1.406      c-0.291-0.132-0.631-0.222-0.949-0.231c0.028-0.199,0.061-0.396,0.1-0.595c0.273-1.419,1.399-2.61,2.33-3.668      c0.963-1.095,2.027-2.144,3.129-3.096c1.045-0.901,1.973-1.931,3.067-2.776c2.003-1.546,4.264-2.969,5.956-4.875      C39.535,61.878,39.726,59.731,39.574,57.573z" style="fill:#FAB600;"/>
				<path d="M33.303,56.858c-0.497-0.229-1.218,0.491-0.9,0.974c0.156,0.235,0.38,0.414,0.609,0.581      c0.294,0.177,0.639,0.322,0.747,0.084C33.945,58.09,33.75,57.064,33.303,56.858z" style="fill:#7C4706;"/>
				<path d="M35.57,59.642c-0.375-0.198-0.526,0.215-0.736,0.443c-0.018,0.019-0.039,0.026-0.059,0.025      c-0.049,0.165-0.084,0.425,0.126,0.473c0.155,0.036,0.319-0.018,0.452-0.101C35.578,60.339,35.954,59.846,35.57,59.642z" style="fill:#7C4706;"/>
				<path d="M32.916,64.673c-0.06,0.312-0.015,0.628,0.024,0.943c0.059,0.34,0.2,0.724,0.579,0.584      c0.553-0.204,0.711-0.752,0.387-1.247C33.75,64.715,33.025,64.094,32.916,64.673z" style="fill:#7C4706;"/>
				<path d="M29.845,68.383c-0.242,0.082-0.262,0.317-0.213,0.531c0.087,0.23,0.353,0.464,0.608,0.313      c0.229-0.135,0.405-0.498,0.172-0.712C30.267,68.381,30.035,68.317,29.845,68.383z" style="fill:#7C4706;"/>
				<path d="M27.242,72.581c0.095-0.021,0.187-0.054,0.271-0.098c0.286-0.14,0.422-0.304,0.467-0.558      c-0.222-0.719-0.471-1.746-1.094-1.489c-0.443,0.182-0.415,1.074-0.313,1.458C26.689,72.331,26.937,72.503,27.242,72.581z" style="fill:#7C4706;"/>
				<path d="M22.062,72.806c0.18,0.146,0.409,0.188,0.635,0.16c0.506-0.064,0.698-0.462,0.531-0.922      c-0.146-0.394-0.42-0.68-0.779-0.812c-0.211,0.39-0.424,0.781-0.635,1.172C21.86,72.563,21.938,72.702,22.062,72.806z" style="fill:#7C4706;"/>
				<path d="M31.127,60.821c-0.69-0.649-0.987,1.566-0.995,1.939c0.021,0.089,0.053,0.173,0.104,0.248      c0.29,0.438,0.955,0.274,1.369,0.137c0.395-0.131,1.049-0.301,0.72-0.838c-0.181-0.299-0.427-0.538-0.667-0.789      C31.459,61.306,31.337,61.019,31.127,60.821z" style="fill:#7C4706;"/>
				<path d="M25.73,66.777c0.193-0.021,0.387-0.048,0.578-0.088c0.192-0.042,0.392-0.083,0.576-0.158      c0.353-0.144,0.402-0.45,0.333-0.8c-0.083-0.403-0.193-0.826-0.42-1.175c-0.1-0.153-0.22-0.343-0.386-0.432      c-0.007-0.004-0.013-0.005-0.018-0.008c-0.46,0.813-0.916,1.629-1.371,2.445C25.23,66.703,25.451,66.803,25.73,66.777z" style="fill:#7C4706;"/>
				<path d="M36.946,62.442c-0.209-0.143-0.233-0.296-0.196-0.535c0.051-0.34-0.271-0.258-0.37-0.15      c-0.052,0.056-0.097,0.116-0.131,0.183c0.018,0.037,0.016,0.087-0.028,0.116c-0.014,0.01-0.025,0.019-0.035,0.029      c-0.025,0.068-0.044,0.138-0.048,0.209c0.053,0.118,0.202,0.231,0.251,0.316c0.041,0.076,0.064,0.159,0.057,0.248      c-0.002,0.041-0.041,0.208,0.035,0.218c0.137,0.02,0.266-0.014,0.379-0.087C37.089,62.836,37.216,62.629,36.946,62.442z" style="fill:#7C4706;"/>
				<g>
					<path d="M24.538,85.587c-1.432-0.354-2.137-1.901-2.559-3.18c-0.012-0.034-0.068-0.021-0.062,0.015       c0.13,0.754,0.445,1.429,0.877,2.06c0.387,0.565,0.995,1.237,1.742,1.189C24.587,85.667,24.583,85.599,24.538,85.587z" style="fill:#D28000;"/>
					<path d="M26.257,84.053c-0.623-0.163-1.172-0.401-1.66-0.826c-0.442-0.385-0.782-0.923-1.1-1.408       c-0.023-0.035-0.085-0.002-0.064,0.036c0.505,1.056,1.514,2.328,2.82,2.264C26.294,84.117,26.292,84.062,26.257,84.053z" style="fill:#D28000;"/>
					<path d="M24.205,78.676c-0.511-0.29-1.304-0.332-1.599,0.27c-0.01,0.023,0.025,0.045,0.04,0.024       c0.364-0.5,1.013-0.371,1.522-0.211C24.223,78.776,24.257,78.705,24.205,78.676z" style="fill:#D28000;"/>
				</g>
				<path d="M39.574,57.573c-0.063-0.886-0.182-1.773-0.289-2.632c-0.342-2.723-0.787-5.398-2.38-7.701      c-1.265-1.834-2.608-4.242-5.185-4.058c-1.747,0.124-3.003,1.978-3.386,3.711c0.328,0.146,0.628,0.365,0.899,0.608      c0.719,0.641,1.342,1.389,2.019,2.073c1.04,1.052,2.032,2.202,2.588,3.555c0.593,0.875,0.854,1.986,0.997,3.014      c0.303,2.16-0.184,4.447-1.042,6.434c-0.96,2.228-2.544,4.033-4.292,5.681c-1.847,1.739-3.864,3.376-5.358,5.446      c-0.769,1.064-1.427,2.253-1.548,3.583c-0.057,0.604-0.021,1.197,0.081,1.781c0.056-0.033,0.117-0.06,0.188-0.076      c0.333-0.075,0.695,0.168,0.934,0.37c0.364,0.306,0.676,0.675,0.939,1.068c0.315,0.473,0.711,0.905,0.938,1.432      c0.167,0.391,0.295,0.886,0.008,1.258c-0.177,0.23-0.612,0.165-0.84,0.067c-0.441-0.188-0.804-0.548-1.091-0.968      c0.018,0.037,0.039,0.072,0.058,0.109c0.252,0.494,0.629,1.167,0.53,1.745c-0.096,0.554-0.765,0.584-1.156,0.303      c-0.356-0.254-0.618-0.611-0.826-1.003c0.137,0.398,0.27,0.798,0.345,1.217c0.08,0.453-0.051,0.79-0.476,0.813      c0.307,0.253,0.658,0.448,1.026,0.454c0.202,0.003,0.511,0.039,0.66-0.144c0.049-0.059,0.086-0.123,0.118-0.188      c0.079,0.043,0.159,0.08,0.238,0.108c0.527,0.184,1.115-0.202,1.406-0.61c0.192-0.266,0.251-0.598,0.233-0.94      c0.088,0.02,0.175,0.036,0.261,0.042c1.25,0.106,1.124-1.283,0.835-2.132c-0.238-0.698-0.73-1.21-1.208-1.751      c-0.432-0.492-0.798-1.118-1.421-1.406c-0.291-0.132-0.631-0.222-0.949-0.231c0.028-0.199,0.061-0.396,0.1-0.595      c0.273-1.419,1.399-2.61,2.33-3.668c0.963-1.095,2.027-2.144,3.129-3.096c1.045-0.901,1.973-1.931,3.067-2.776      c2.003-1.546,4.264-2.969,5.956-4.875C39.535,61.878,39.726,59.731,39.574,57.573z" style="fill:#D4CEA5;"/>
			</g>
			<g>
				<path d="M63.955,56.377c0,0,2.813,3.507,4.068,6.105c1.256,2.598,1.17,6.148,1.084,7.274      c-0.086,1.125-1.906,10.001-1.906,10.001s-0.346,0.044-0.974-0.845c-0.628-0.887-1.515-0.628-1.775-0.345      c0,0-1.667-0.975-2.207,0.302c0,0-1.082-0.562-1.299,0.888c-0.218,1.45,0.78,2.987,1.774,2.295c0,0,0.303,0.58,1.408,0.171      c0,0,0.433,0.572,2.943,0.146c2.512-0.426,2.856-0.556,2.943-1.465c0.088-0.91,0.479-4.914,2.426-8.313      c1.947-3.398,3.291-3.789,3.247-5.108c-0.044-1.321-1.321-1.602-1.494-2.858c-0.173-1.255,3.421-8.382,5.218-10.003      c1.796-1.62,2.771-8.679-1.604-9.024C73.436,45.25,61.66,53.251,63.955,56.377z" style="fill:#F59C00;"/>
				<g>
					<path d="M74.167,52.182c-0.144-0.068-0.307-0.065-0.462-0.079       c-0.009,0-0.015-0.004-0.021-0.006c-0.175,0.178-0.324,0.39-0.394,0.615c-0.117,0.377,0.063,0.612,0.459,0.607       c0.366-0.004,0.784-0.142,0.727-0.599C74.455,52.533,74.356,52.271,74.167,52.182z" style="opacity:0.5;fill:#241000;"/>
					<path d="M77.478,52.424c-0.079-0.231-0.131-0.444-0.154-0.686       c-0.04-0.377-0.086-0.877-0.602-0.62c-0.186,0.093-0.359,0.208-0.543,0.306c-0.179,0.325-0.161,0.834-0.057,1.166       c0.147,0.469,0.479,0.568,0.883,0.751c0.242,0.11,0.428,0.31,0.662,0.419c0.14,0.063,0.024-0.723-0.001-0.8       C77.608,52.78,77.54,52.604,77.478,52.424z" style="opacity:0.5;fill:#241000;"/>
					<path d="M72.923,58.675c-0.258-0.152-0.512,0.012-0.625,0.257       c-0.007,0.016-0.018,0.026-0.028,0.034c-0.058,0.167-0.074,0.412,0.114,0.491c0.133,0.057,0.29-0.04,0.387-0.127       C72.924,59.189,73.207,58.84,72.923,58.675z" style="opacity:0.5;fill:#241000;"/>
					<path d="M69.57,56.29c-0.25-0.132-0.523,0.118-0.75,0.3       c-0.079,0.203-0.059,0.415,0.168,0.602c0.203,0.167,0.731,0.448,0.918,0.095C70.068,56.985,69.871,56.452,69.57,56.29z" style="opacity:0.5;fill:#241000;"/>
					<path d="M68.042,59.61c-0.031,0.518-0.198,1.088-0.045,1.579       c0.139,0.441,0.577,0.472,0.979,0.409c0.409-0.064,1.447-0.285,0.986-0.944c-0.374-0.531-0.531-1.35-1.034-1.772       C68.509,58.529,68.23,58.994,68.042,59.61z" style="opacity:0.5;fill:#241000;"/>
					<path d="M72.854,64.544c-0.389-0.057-0.815,0.016-0.999,0.366       c-0.182,0.345-0.081,0.748,0.082,1.08c0.224,0.463,0.576,0.925,1.063,1.14c0.516,0.229,0.515-0.332,0.542-0.695       c0.023-0.354,0.062-0.738-0.011-1.089C73.447,64.926,73.184,64.669,72.854,64.544z" style="opacity:0.5;fill:#241000;"/>
					<path d="M69.043,70.238c0.038,0.152,0.102,0.292,0.205,0.393       c0.349,0.347,1.355,0.004,1.296-0.548c-0.067-0.636-1.246-1.51-1.42-0.499c-0.001,0.007-0.005,0.01-0.007,0.015       c-0.004,0.055-0.007,0.109-0.011,0.157C69.1,69.857,69.077,70.022,69.043,70.238z" style="opacity:0.5;fill:#241000;"/>
					<path d="M76.939,55.658c-0.329-0.284-0.66-0.556-0.971-0.869       c-0.268-0.271-0.609-0.419-0.794,0.011c-0.213,0.499-0.263,1.111-0.302,1.65c-0.029,0.412,0.059,1.071,0.628,0.997       c0.363-0.046,0.739-0.246,1.047-0.438c0.416-0.26,0.995-0.696,0.536-1.206C77.038,55.753,76.989,55.705,76.939,55.658z" style="opacity:0.5;fill:#241000;"/>
				</g>
				<path d="M68.455,79.156c-0.254,0.333-0.477,0.684-0.965,0.618c-0.328-0.046-0.624-0.263-0.875-0.459      c-0.025-0.02-0.067,0.015-0.044,0.041c0.261,0.283,0.608,0.606,1.026,0.605c0.472-0.001,0.77-0.348,0.924-0.766      C68.535,79.156,68.486,79.12,68.455,79.156z" style="fill:#D28000;"/>
				<path d="M64.813,82.423c-0.864-0.192-1.067-0.906-1.167-1.693c-0.057-0.466,0.105-0.951,0.297-1.364      c0.182-0.389,0.485-0.63,0.774-0.93c0.024-0.024-0.008-0.07-0.037-0.054c-0.869,0.431-1.298,1.549-1.182,2.478      c0.063,0.495,0.202,1.017,0.524,1.341c-0.899,0.327-1.636-0.37-1.899-1.178c-0.293-0.901-0.033-1.898,0.514-2.634      c0.018-0.025-0.016-0.064-0.041-0.042c-0.792,0.696-0.919,1.89-0.61,2.856c0.144,0.444,0.478,0.862,0.878,1.089      c0.294,0.165,0.984,0.235,1.262,0.017c0.004-0.003,0.008-0.007,0.011-0.011c0.175,0.134,0.396,0.216,0.676,0.218      C64.866,82.518,64.863,82.435,64.813,82.423z" style="fill:#D28000;"/>
				<path d="M77.808,45.597c-2.525-0.2-7.52,2.385-10.847,5.206c-0.165,0.352-0.317,0.708-0.46,1.067      c-0.635,1.617-0.77,3.59-0.274,5.262c0.504,1.692,1.883,2.815,2.638,4.367c0.468,0.963,0.681,2.008,1.009,3.02      c0.178,0.551,0.381,1.11,0.709,1.591c0.281,0.412,0.675,0.682,0.977,1.063c0.464,0.582,0.097,1.413-0.271,1.961      c-0.304,0.459-0.698,0.857-0.979,1.33c-0.324,0.542-0.515,1.171-0.684,1.775c-0.37,1.312-0.58,2.658-0.76,4.007      c-0.112,0.853-0.14,1.776-0.447,2.591c-0.1,0.263-0.267,0.654-0.529,0.809c-0.11,0.09-0.232,0.159-0.371,0.188      c-0.15,0.032-0.295-0.003-0.423-0.075c-0.096,0.074-0.281,0.066-0.521-0.004c-0.56-0.166-1.23-0.129-1.574,0.426      c-0.092,0.147-0.211,0.415-0.402,0.469c-0.559,0.157-0.809-0.422-0.773-0.891c0.032-0.431,0.294-0.868,0.607-1.201      c-0.539,0.051-1.05,0.279-1.332,0.779c-0.194,0.349-0.266,0.756-0.362,1.141c-0.058,0.238-0.164,0.642-0.479,0.473      c-0.387-0.207-0.238-1.163-0.197-1.47c0.026-0.193,0.07-0.381,0.13-0.563c-0.681,0.199-0.629,1.134-0.619,1.699      c0.004,0.23-0.017,0.492-0.301,0.489c-0.078,0-0.156-0.041-0.229-0.099c0.279,0.914,0.979,1.533,1.68,1.045      c0,0,0.303,0.58,1.408,0.171c0,0,0.433,0.572,2.943,0.146c2.512-0.426,2.856-0.556,2.943-1.465      c0.088-0.91,0.479-4.914,2.426-8.313c1.947-3.398,3.291-3.789,3.247-5.108c-0.044-1.321-1.321-1.602-1.494-2.858      c-0.173-1.255,3.421-8.382,5.218-10.003C81.207,53.001,82.182,45.942,77.808,45.597z" style="fill:#D4CEA5;"/>
			</g>
			<g>
				
					<linearGradient y2="56.2334" x2="98.395" y1="87.1094" x1="108.5967" gradientUnits="userSpaceOnUse" id="SVGID_00000024002640382019942730000000175998194565822905_">
					<stop style="stop-color:#FFFFFF" offset="0"/>
					<stop style="stop-color:#FCF7EA" offset="0.1129"/>
					<stop style="stop-color:#F6E1B2" offset="0.3472"/>
					<stop style="stop-color:#ECBF5B" offset="0.6792"/>
					<stop style="stop-color:#E19C00" offset="1"/>
				</linearGradient>
				<path d="M77.449,29.258      c1.043,0.237,2.102,0.285,3.164,0.628c5.555,1.801,11.326,5.606,14.057,10.916c1.734,3.374,2.63,7.147,2.721,10.934      c0.154,6.537-3.144,14.568,1.643,20.263c1.254,1.49,3.285,2.31,5.146,1.573c2.974-1.177,2.912-4.587,2.912-4.587l0.372,1.178      c0,0-0.124-2.665,2.23-3.224l-0.246,0.992c0,0,1.176-2.355,4.213-1.92c0,0,1.859,5.577-2.231,8.862      c-3.068,2.464-7.296,5.639-11.352,3.451c-1.007-0.543-2.176-1.395-2.896-2.293c-0.853-1.064-1.821-2.505-2.232-3.817      c-0.901-2.886-0.858-5.936-0.709-8.923c0.071-1.419,0.188-2.841,0.229-4.263c0.067-2.291,0.171-4.581-0.084-6.866      c-0.496-4.435-1.24-5.807-3.284-6.578C91.1,45.585,84.559,30.871,77.449,29.258z" style="fill:url(#SVGID_00000024002640382019942730000000175998194565822905_);"/>
				<g>
					<path d="M95.337,46.322c-0.646,0.549-0.303,1.385,0.174,1.932c0.3,0.346,0.645,0.738,1.074,0.925       c0.278,0.121,0.476,0.084,0.613-0.042c-0.15-1.208-0.381-2.405-0.697-3.58c-0.278,0.042-0.583,0.153-0.733,0.304       C95.619,46.011,95.5,46.184,95.337,46.322z" style="fill:#7C4706;"/>
					<path d="M95.212,52.281c0.243-0.226,0.368-0.552,0.33-0.886c-0.092-0.8-0.704-1.026-1.381-0.909       c0.08,0.505,0.154,1.061,0.223,1.676c0.011,0.087,0.017,0.173,0.024,0.259C94.687,52.5,94.984,52.493,95.212,52.281z" style="fill:#7C4706;"/>
					<path d="M95.243,67.472c0.19,0.148,0.473,0.093,0.696,0.085c0.34-0.013,0.645,0.008,0.913,0.1       c-0.138-0.556-0.234-1.122-0.303-1.695c-0.355,0.145-0.713,0.319-0.973,0.589C95.447,66.686,94.972,67.264,95.243,67.472z" style="fill:#7C4706;"/>
					<path d="M96.323,70.655c-0.124,0.478-0.182,1.142,0.011,1.612c0.349,0.854,1.129-0.442,1.52-0.642       c0.254-0.13,0.554-0.086,0.851-0.041c-0.542-0.714-0.965-1.461-1.289-2.236C96.871,69.56,96.477,70.055,96.323,70.655z" style="fill:#7C4706;"/>
					<path d="M98.858,76.388c0.159,0.255,0.478,0.559,0.716,0.157c0.092-0.159,0.16-0.326,0.221-0.499       c0.128-0.379,0.273-0.756,0.446-1.118c0.244-0.512,0.539-0.979,0.894-1.4c-0.515-0.203-0.998-0.497-1.43-0.861       c-0.128-0.016-0.259-0.031-0.389-0.04c-0.16-0.011-0.447-0.068-0.604-0.004c-0.217,0.087,0.033,0.604,0.029,0.769       c0,0.09-0.088,0.184-0.146,0.243C97.972,74.269,98.443,75.723,98.858,76.388z" style="fill:#7C4706;"/>
					<path d="M105.79,77.333c-0.266-0.507-0.422-1.123-0.881-1.499c-0.178-0.146-0.489-0.372-0.449-0.646       c0.022-0.147,0.09-0.265,0.19-0.377c0.132-0.147,0.45-0.539,0.045-0.55c-0.126-0.004-0.354,0.029-0.452-0.075       c-0.181-0.191-0.01-0.461,0.201-0.729c-0.086,0.041-0.175,0.079-0.267,0.115c-0.823,0.326-1.675,0.344-2.482,0.138       c0.302,0.365,0.668,0.7,0.728,1.176c0.006,0.049-0.045,0.084-0.087,0.087c-0.193,0.014-0.938,0.012-0.521,0.313       c0.1,0.07,0.182,0.157,0.17,0.291c-0.023,0.257-0.134,0.498-0.156,0.761c-0.02,0.255-0.023,0.513,0.008,0.768       c0.084,0.684,0.334,1.372,0.739,1.937c1.335,0.08,2.66-0.281,3.927-0.872C106.216,77.941,105.966,77.668,105.79,77.333z" style="fill:#7C4706;"/>
					<path d="M111.934,73.13c-0.822-0.34-1.34-1.008-1.812-1.736c-0.532-0.82-1.105-1.805-0.973-2.822       c0.039-0.302,0.172-0.556,0.335-0.795l0.208-0.836c-2.354,0.559-2.23,3.224-2.23,3.224l-0.372-1.178       c0,0,0.026,1.48-0.807,2.826c-0.071,0.313-0.181,0.614-0.228,0.932c-0.013,0.09-0.028,0.183-0.028,0.273       c-0.026,0.127,0.043,0.197,0.208,0.213c0.062-0.099,0.111-0.207,0.177-0.303c0.104-0.152,0.219-0.232,0.41-0.188       c0.169,0.038,0.192,0.381,0.229,0.5c0.359,1.199,1.393,2.458,2.636,2.981c0.611-0.449,1.195-0.908,1.74-1.347       c0.585-0.469,1.043-0.984,1.407-1.524C112.525,73.331,112.21,73.245,111.934,73.13z" style="fill:#7C4706;"/>
					<path d="M95.398,63.585c0.266,0.433,0.68,0.431,1.029,0.221c-0.002-0.456,0.012-0.914,0.035-1.374       C95.782,62.129,94.951,62.861,95.398,63.585z" style="fill:#7C4706;"/>
					<path d="M96.552,57.95c-0.107-0.088-0.262-0.203-0.411-0.197c-0.209,0.008-0.433,0.183-0.415,0.412       c0.025,0.332,0.281,0.765,0.587,0.918c0.153,0.077,0.304,0.077,0.448,0.04c0.035-0.286,0.069-0.571,0.104-0.856       C96.769,58.153,96.668,58.043,96.552,57.95z" style="fill:#7C4706;"/>
					<path d="M96.449,54.799c-0.004,0.538,0.276,0.862,0.711,1.018c0.049-0.453,0.094-0.904,0.133-1.351       c-0.123-0.067-0.244-0.133-0.377-0.175C96.538,54.171,96.45,54.464,96.449,54.799z" style="fill:#7C4706;"/>
				</g>
				<path d="M113.669,66.041c0.043,0.718-0.042,1.435-0.037,2.154c0.004,0.547,0.031,1.161-0.26,1.648      c-0.031,0.052-0.121,0.061-0.148,0c-0.321-0.672-0.56-1.473-1.154-1.909c-0.244,0.444-0.493,0.878-0.718,1.303      c-0.029,0.053-0.095,0.052-0.137,0.018c-0.238-0.2-0.548-0.242-0.825-0.366c-0.085,0.52-0.17,1.038-0.328,1.541      c-0.02,0.062-0.098,0.084-0.145,0.037c-0.331-0.314-0.709-0.558-1.098-0.792c-0.35,1.3-0.744,2.656-1.643,3.693      c-1.214,1.398-2.939,2.351-4.834,2.156c-1.824-0.187-3.46-1.227-4.618-2.619c-1.438-1.735-1.962-3.916-1.999-6.134      c-0.021-1.2,0.067-2.396,0.154-3.593c0.093-1.245,0.134-2.485,0.187-3.731c0.12-2.785,0.451-5.571,0.364-8.363      c-0.078-2.424-0.437-4.838-1.766-6.918c-1.574-2.462-4.058-4.032-6.812-4.681c1.999,3.295,3.246,6.102,3.246,6.102      c2.044,0.771,2.788,2.142,3.284,6.578c0.255,2.285,0.151,4.575,0.084,6.866c-0.041,1.422-0.158,2.844-0.229,4.263      c-0.149,2.987-0.192,6.037,0.709,8.923c0.411,1.313,1.38,2.753,2.232,3.817c0.721,0.898,1.89,1.75,2.896,2.293      c4.056,2.188,8.283-0.986,11.352-3.451C115.357,71.721,113.8,66.456,113.669,66.041z" style="fill:#D2D2D2;"/>
				<path d="M106.616,77.732c-2.226,0.626-4.575,0.246-6.521-1.013c-1.112-0.719-2.024-1.699-2.717-2.821      c-0.426-0.549-0.79-1.147-1.077-1.78c-0.988-2.163-1.155-4.591-1.189-6.938c-0.018-1.316,0.013-2.632-0.004-3.948      c-0.01-0.893-0.047-1.781-0.019-2.673c0.057-1.652,0.196-3.301,0.178-4.955c-0.003-0.217-0.008-0.436-0.016-0.656      c-0.042-0.655-0.109-1.308-0.216-1.955c-0.08-0.498-0.184-1.011-0.324-1.518c-0.081-0.238-0.172-0.475-0.276-0.705      c-0.425-0.928-1.042-1.682-1.812-2.257c0.947,0.947,1.416,2.55,1.762,5.649c0.255,2.285,0.151,4.575,0.084,6.866      c-0.041,1.422-0.158,2.844-0.229,4.263c-0.149,2.987-0.192,6.037,0.709,8.923c0.411,1.313,1.38,2.753,2.232,3.817      c0.721,0.898,1.89,1.75,2.896,2.293c2.985,1.611,6.065,0.314,8.706-1.465C108.101,77.222,107.379,77.518,106.616,77.732z" style="fill:#D2D2D2;"/>
			</g>
			<path d="M33.455,28.009c0,0,3.142,1.419,6.365,0c3.223-1.42,4.738-1.509,4.738-1.509     s-1.645,1.303-1.949,1.888c0,0,1.646-1.331,3.638-1.175c0,0-1.472,0.689-1.861,1.548c0,0,2.771-1.565,4.241-0.569     c1.473,0.996,5.371,8.052,10.002,7.317c4.634-0.735,13.985-7.23,17.622-7.274c3.638-0.043,15.804,8.486,16.886,12.6     s-1.993,9.828-2.512,13.075c-0.52,3.248-1.774,7.058-0.996,8.053c0.78,0.997,2.426,2.685,2.642,3.464     c0.217,0.78-3.767,11.257-3.636,12.426c0.13,1.169,0.907,4.071-0.78,4.806c-1.688,0.736-3.117,0.606-4.07,0     c0,0-1.212,0.476-2.034-0.347c0,0-1.212,0.996-1.603-1.255c-0.39-2.251,1.56-1.818,1.56-1.818s1.255-1.43,2.555-0.129     c0,0,0.39-0.391,1.3-0.13c0,0,0.214-0.736,0.604-0.996c0,0,0.521-4.806,0.952-7.057c0.433-2.252,0.49-3.089-0.26-3.695     c-0.751-0.605-3.464-2.222-4.704-3.982c-1.24-1.761-4.1-10.541-4.232-14.873c0,0-1.487,0.397-3.572,2.051     c-2.082,1.653-5.985,6.318-9.326,7.375c-3.342,1.059-7.111,1.521-7.84,1.356c0,0,1.125,0.596,1.72,0.661     c0,0-0.991,0.396-2.513,0.266c0,0,0.629,0.43,1.853,0.594c0,0-1.424,0.662-2.614,0.53c0,0,0.695,0.297,1.226,0.396     c0,0-1.258,0.331-3.077,0.066c-1.818-0.265-2.052-0.992-2.052-0.992s-0.528,2.25-0.066,4.366     c0.465,2.118,1.125,4.731,0.929,5.425c-0.2,0.694-1.987,4.23-2.086,8.002c-0.1,3.773-0.066,4.733,0.362,5.559     c0.431,0.826,0.563,1.554-0.064,2.282c-0.628,0.729-0.729,0.958-1.984,1.158c-1.257,0.199-3.242,0.331-4.004-0.265     c0,0-0.782,0.336-1.459-0.06c0,0-1.987,0.509-2.25-1.037c-0.266-1.548,0.712-2.682,1.177-2.928     c0.467-0.246,1.293-0.106,1.293-0.106s1.144-0.87,2.056,0.106c0,0,0.616-0.467,1.795,0.518c0,0,0.584-2.759-0.224-7.521     c-0.81-4.762-1.617-12.209-2.887-13.71c-1.271-1.501-5.781-6.35-10.858-6.062c0,0-1.02-2.67,0.237-5.701     c0,0-1.198,0.708-1.198,2.237c0,0-0.636-2.108,0.678-3.869c0,0-1.884-2.612-3.452-3.073     C28.149,45.538,26.56,34.623,33.455,28.009z" style="fill:#F8A90F;"/>
			
				<linearGradient y2="51.9518" x2="93.3656" y1="51.9518" x1="28.3594" gradientUnits="userSpaceOnUse" id="SVGID_00000065769404869436828150000008277882032474365090_">
				<stop style="stop-color:#FFFFFF" offset="0"/>
				<stop style="stop-color:#EAEAEA" offset="0.8358"/>
				<stop style="stop-color:#E5E5E5" offset="1"/>
			</linearGradient>
			<path d="M76.693,42.13     c-2.188,1.875-3.843,4.458-6.446,5.838c-0.173,0.091-0.315-0.086-0.248-0.246c0.028-0.063,0.051-0.129,0.077-0.191     c-0.974,1.221-2.072,2.326-3.351,3.266c-0.152,0.112-0.331-0.1-0.247-0.248c0.162-0.287,0.319-0.595,0.459-0.915     c-0.559,0.763-1.203,1.458-1.978,2.008c-1.413,1.006-3.358,1.783-5.115,1.398c-0.153-0.033-0.174-0.255-0.042-0.329     c0.603-0.34,1.197-0.686,1.711-1.142c-1.563,0.375-3.077,0.632-4.537-0.33c-0.812-0.534-1.541-1.243-2.409-1.688     c-0.843-0.432-1.58-0.415-2.381-0.246c1.767,0.757,2.384,2.762,2.825,4.536c0.02,0.082-0.014,0.158-0.083,0.204     c-0.104,0.069-0.198,0.145-0.298,0.219c-0.313,0.438-0.662,0.906-1.004,1.395c-0.347,0.785-0.896,1.5-1.238,2.283     c-0.313,0.709-0.528,1.47-0.688,2.242c-0.003,0.169,0.003,0.338,0.021,0.507c0.002-0.006,0.003-0.015,0.003-0.015     s0.233,0.728,2.052,0.992c1.819,0.265,3.077-0.066,3.077-0.066c-0.53-0.099-1.226-0.396-1.226-0.396     c1.19,0.132,2.614-0.53,2.614-0.53c-1.224-0.164-1.853-0.594-1.853-0.594c1.521,0.131,2.513-0.266,2.513-0.266     c-0.595-0.066-1.72-0.661-1.72-0.661c0.728,0.165,4.498-0.298,7.84-1.356c3.341-1.058,7.244-5.723,9.326-7.375     c1.641-1.301,2.905-1.823,3.374-1.987C77.544,46.303,77.408,44.149,76.693,42.13z" style="fill:url(#SVGID_00000065769404869436828150000008277882032474365090_);"/>
			<g>
				<path d="M36.191,47.593c-0.301-0.058-0.486,0.169-0.621,0.454c-0.141,0.547-0.598,1.233,0.088,1.605      c0.506,0.273,1.549,0.103,1.525-0.646C37.168,48.53,36.7,47.69,36.191,47.593z" style="fill:#7C4706;"/>
				<path d="M43.562,48.671c-0.414,0.032-0.732,0.398-0.807,0.795c-0.001,0.009-0.002,0.021-0.005,0.031      c-0.008,0.057-0.013,0.112-0.01,0.17c0,0.011-0.003,0.02-0.007,0.029c0,0.288,0.117,0.546,0.468,0.635      c0.456,0.116,1.048-0.021,1.045-0.604C44.243,49.344,44.076,48.632,43.562,48.671z" style="fill:#7C4706;"/>
				<path d="M46.02,53.802c-0.003-0.005-0.003-0.01-0.005-0.016c-0.208-0.207-0.578-0.302-0.684,0.074      c-0.034,0.127-0.061,0.254-0.08,0.385c-0.08,0.532-0.092,1.18,0.189,1.66c0.443,0.756,1.26,0.342,1.633-0.268      c0.269-0.439-0.111-0.65-0.369-0.952C46.461,54.399,46.216,54.121,46.02,53.802z" style="fill:#7C4706;"/>
				<path d="M46.804,60.258c-0.022-0.008-0.046-0.013-0.069-0.017c-0.83-0.122-1.114,0.93-1.1,1.539      c0.011,0.479,0.021,0.961,0.046,1.438c0.025,0.454,0.079,1.388,0.669,1.501c0.868,0.166,1.844-0.954,2.066-1.688      C48.789,61.792,47.443,61.104,46.804,60.258z" style="fill:#7C4706;"/>
				<path d="M51.356,70.094c0.105-0.116,0.161-0.27,0.194-0.422c0.068-0.317,0.109-0.7,0.029-1.02      c-0.156-0.611-0.567-0.268-0.782,0.079c-0.029,0.056-0.058,0.111-0.088,0.167c-0.002,0.004-0.004,0.009-0.006,0.013      c-0.001,0.004-0.005,0.005-0.005,0.008c-0.153,0.293-0.273,0.583-0.052,0.911C50.771,70.018,51.13,70.34,51.356,70.094z" style="fill:#7C4706;"/>
				<path d="M47.564,46.702c-0.013,0.042-0.023,0.084-0.036,0.127c0.014,0.018,0.019,0.041,0.015,0.068      c-0.083,0.447-0.305,1.162-0.055,1.586c0.209,0.354,0.737,0.231,1.041,0.075c0.488-0.25,0.726-0.691,0.398-1.207      C48.667,46.949,47.887,45.71,47.564,46.702z" style="fill:#7C4706;"/>
				<path d="M57.007,54.415c-0.133-0.023-0.219,0.052-0.273,0.166c0.007,0.012,0.011,0.026,0.011,0.044      c-0.011,0.295-0.1,0.745,0.308,0.831c0.432,0.09,0.346-0.491,0.234-0.721C57.234,54.622,57.147,54.439,57.007,54.415z" style="fill:#7C4706;"/>
				<path d="M61.106,45.135c-0.056-0.096-0.116-0.206-0.202-0.277c-0.219-0.173-0.364,0.209-0.381,0.315      c-0.032,0.205-0.051,0.4-0.104,0.596c0.018,0.015,0.028,0.036,0.027,0.065c-0.004,0.274,0.121,1,0.524,0.949      c0.564-0.07,0.474-0.764,0.349-1.149C61.266,45.461,61.199,45.292,61.106,45.135z" style="fill:#7C4706;"/>
				<path d="M71.382,44.391c-0.129-0.087-0.365-0.249-0.504-0.075c-0.07,0.089-0.134,0.181-0.195,0.275      c0.021,0.024,0.031,0.06,0.014,0.097c-0.234,0.511-1.395,2.31-0.143,2.273c0.312-0.009,0.61-0.08,0.914-0.145      c0.361-0.077,1.149-0.083,1.121-0.633C72.554,45.552,71.895,44.733,71.382,44.391z" style="fill:#7C4706;"/>
				<path d="M50.277,42.764c0.156-0.016,0.342-0.161,0.318-0.334c-0.014-0.125-0.065-0.252-0.125-0.363      c-0.062-0.112-0.137-0.262-0.258-0.322c-0.133-0.066-0.187,0.064-0.216,0.173c0.008,0.012,0.017,0.025,0.017,0.042      C50.029,42.169,49.893,42.804,50.277,42.764z" style="fill:#7C4706;"/>
				<path d="M53.625,41.2c-0.37-0.085-0.934-0.06-1.219,0.241c-0.121,0.128-0.171,0.275-0.188,0.43l0,0      c0.188,0.774,0.426,1.507,1.194,1.876c0.273,0.131,0.689,0.291,0.976,0.103c0.333-0.216,0.453-0.688,0.428-1.065      C54.772,42.101,54.336,41.363,53.625,41.2z" style="fill:#7C4706;"/>
				<path d="M57.727,40.577c0.053,0.022,0.105,0.042,0.157,0.059c0.01,0,0.021,0.003,0.03,0.004      c0.019,0.001,0.033,0.008,0.044,0.016c0.397,0.099,0.756-0.011,0.86-0.49c0.151-0.694,0.229-1.904-0.808-1.878      c-0.521,0.014-1.69,0.25-1.456,1.002c0.031,0.101,0.075,0.208,0.131,0.317c0.036-0.033,0.102-0.041,0.135,0.016      C57.042,39.99,57.317,40.4,57.727,40.577z" style="fill:#7C4706;"/>
				<path d="M63.04,36.45c-0.13,0.012-0.267,0.102-0.396,0.185c-0.285,0.194-0.828,0.622-0.456,0.837      c0.271,0.157,0.755,0.15,1.013-0.042c0.162-0.121,0.307-0.324,0.294-0.536C63.483,36.674,63.287,36.429,63.04,36.45z" style="fill:#7C4706;"/>
				<path d="M68.128,34.47L68.128,34.47c-0.025,0.136-0.105,0.632,0.114,0.68      c0.14,0.03,0.284-0.123,0.368-0.215c0.069-0.077,0.22-0.215,0.179-0.337C68.72,34.394,68.299,34.331,68.128,34.47z" style="fill:#7C4706;"/>
				<path d="M76.001,37.523c-0.008,0.014-0.02,0.023-0.029,0.031c-0.054,0.17-0.019,0.308,0.201,0.356      c0.161,0.036,0.388,0.06,0.535-0.034c0.142-0.09,0.181-0.316,0.09-0.456C76.578,37.075,76.165,37.206,76.001,37.523z" style="fill:#7C4706;"/>
				<path d="M90.402,40.144c0.488,0.096,0.952-0.44,0.771-0.919C91.04,38.87,90.4,38.448,90.138,38.9      C90.081,39.331,89.814,40.029,90.402,40.144z" style="fill:#7C4706;"/>
				<path d="M90.663,43.004c-0.249,0.028-0.358,0.324-0.419,0.531c-0.012,0.036-0.019,0.072-0.027,0.109      c0.008,0.455-0.178,1.098,0.104,1.471c0.335,0.438,0.864,0.219,0.952-0.266c0.057-0.309,0.138-0.649,0.117-0.963      C91.367,43.542,91.096,42.955,90.663,43.004z" style="fill:#7C4706;"/>
				<path d="M82.857,46.952c-0.141-0.215-0.337-0.505-0.562-0.337c-0.372,0.275-0.497,0.944-0.48,1.375      c0.01,0.302,0.07,0.557,0.403,0.633c0.282,0.063,0.601,0.066,0.875-0.029c0.898-0.314,0.112-1.123-0.228-1.569      C82.845,46.999,82.845,46.974,82.857,46.952z" style="fill:#7C4706;"/>
				<path d="M89.365,48.934c-0.058-0.501-0.185-1.046-0.553-1.415c-0.324-0.325-0.728-0.46-1.125-0.667      c-0.205-0.107-0.63-0.387-0.831-0.136c-0.115,0.142-0.173,0.32-0.208,0.496c-0.01,0.051-0.017,0.102-0.025,0.153      c0.024,0.012,0.042,0.036,0.041,0.071c-0.022,0.543-0.119,1.099-0.06,1.642c0.073,0.668,0.394,1.096,1.062,1.254      c0.385,0.09,1.148,0.22,1.496-0.024C89.537,50.041,89.412,49.332,89.365,48.934z" style="fill:#7C4706;"/>
				<path d="M81.338,59.899c-0.269-0.207-0.552-0.318-0.842-0.435c0.335,0.946,0.662,1.788,0.961,2.459      c0.235-0.278,0.512-0.526,0.607-0.874C82.204,60.537,81.694,60.175,81.338,59.899z" style="fill:#7C4706;"/>
				<path d="M89.704,62.76c0.209,0.161,0.448,0.19,0.691,0.117c-0.27-0.312-0.522-0.608-0.724-0.863      C89.461,62.229,89.363,62.495,89.704,62.76z" style="fill:#7C4706;"/>
				<path d="M88.315,70.004c0.499-0.163,0.352-1.03,0.069-1.317c-0.267-0.271-0.607-0.407-0.973-0.451      c0.049,0.37,0.017,0.838-0.076,1.456C87.656,69.927,88.019,70.101,88.315,70.004z" style="fill:#7C4706;"/>
				<path d="M52.091,36.721c0.334,0.328,0.749,0.699,1.226,0.789c0.371,0.069,0.743-0.068,0.642-0.507      c-0.029-0.125-0.061-0.249-0.078-0.375c-0.088-0.604-0.079-1.328-0.438-1.85c-0.544-0.795-1.386-0.276-1.989,0.186      c-0.091,0.175-0.132,0.372-0.075,0.606C51.487,36.02,51.765,36.399,52.091,36.721z" style="fill:#7C4706;"/>
				<path d="M50.724,32.458c0.147-0.001,0.282-0.054,0.346-0.195c0.027-0.059,0.038-0.128,0-0.185      c-0.109-0.161-0.692-0.258-0.611,0.046c0.01,0.039-0.004,0.068-0.027,0.087C50.46,32.349,50.55,32.458,50.724,32.458z" style="fill:#7C4706;"/>
				<path d="M37.486,32.282c0.068,0.044,0.153,0.07,0.261,0.069c0.292-0.002,0.161-0.394,0.067-0.544      c-0.041-0.066-0.259-0.36-0.358-0.244c-0.098,0.113-0.092,0.319-0.077,0.461C37.389,32.142,37.428,32.225,37.486,32.282z" style="fill:#7C4706;"/>
				<path d="M40.081,30.503c-0.643-0.449-0.588,0.577-0.589,0.909c0.025,0.261,0.032,0.523,0.049,0.787      c0.021,0.386,0.064,1.531,0.725,1.084c0.229-0.154,0.427-0.346,0.651-0.501c0.308-0.21,0.889-0.517,0.63-0.972      C41.221,31.244,40.605,30.868,40.081,30.503z" style="fill:#7C4706;"/>
				<path d="M48.112,31.336c0.396-0.046,0.043-0.933-0.075-1.118c-0.262-0.413-0.613-0.275-0.94-0.073      c-0.136,0.24-0.197,0.492,0.047,0.713C47.365,31.058,47.787,31.374,48.112,31.336z" style="fill:#7C4706;"/>
				<path d="M43.598,33.345c0.461,0.072,1.243-0.021,1.202-0.662c-0.02-0.337-0.217-0.568-0.543-0.651      c-0.202-0.052-0.518-0.156-0.684,0.042c-0.149,0.181-0.301,0.355-0.438,0.538c-0.023,0.049-0.043,0.098-0.055,0.148      C43.005,33.094,43.31,33.3,43.598,33.345z" style="fill:#7C4706;"/>
				<path d="M49.744,35.82c-0.073-0.336-0.194-0.803-0.58-0.902c-0.391-0.102-0.86,0.016-1.236,0.133      c-0.302,0.096-0.835,0.265-0.599,0.698c0.063,0.113,0.132,0.224,0.205,0.331c0.454,0.487,1.059,0.9,1.647,1.077      C49.988,37.399,49.844,36.297,49.744,35.82z" style="fill:#7C4706;"/>
				<path d="M90.016,65.067c-0.187,0.054-0.358,0.137-0.536,0.217c-0.3,0.344-0.046,0.974,0.323,1.183      c0.637,0.356,0.764-0.512,0.72-0.933C90.494,65.263,90.373,64.966,90.016,65.067z" style="fill:#7C4706;"/>
				<path d="M85.419,62.725c-0.396-0.292-1.461-0.949-1.506-0.005c-0.024,0.545,0.158,1.025,0.303,1.539      c0.113,0.386,0.216,0.848,0.564,1.092c0.004,0.003,0.005,0.006,0.009,0.01c0.137,0.05,0.288,0.064,0.46,0.025      c0.418-0.092,1.014-0.364,1.196-0.778C86.748,63.927,85.935,63.106,85.419,62.725z" style="fill:#7C4706;"/>
				<path d="M84.169,57.638c-0.086,0.031-0.098,0.212-0.108,0.287c-0.012,0.074-0.018,0.148-0.022,0.223      c0.005,0.014,0.007,0.031,0.002,0.05c-0.005,0.017-0.008,0.037-0.01,0.058c-0.002,0.038-0.003,0.077-0.006,0.115      c0.01,0.179,0.092,0.364,0.308,0.246c0.229-0.125,0.215-0.411,0.138-0.627C84.436,57.898,84.319,57.584,84.169,57.638z" style="fill:#7C4706;"/>
				<path d="M87.811,54.991c-0.419-0.433-1.146-0.731-1.505-0.017c-0.173,0.346-0.177,0.723-0.113,1.103      c0.032,0.002,0.064,0.021,0.078,0.06c0.237,0.75,0.521,1.897,1.537,1.789c0.414-0.044,1.08-0.268,1.193-0.739      c0.111-0.46-0.219-0.869-0.481-1.213C88.279,55.658,88.088,55.277,87.811,54.991z" style="fill:#7C4706;"/>
				<path d="M82.197,53.57c-0.357-0.458-0.932-1.586-1.633-1.504c-0.83,0.099-0.979,1.656-0.864,2.272      c0.076,0.399,0.269,0.642,0.529,0.783c0.001,0,0.002-0.001,0.005,0c0.541,0.042,1.111,0.036,1.63-0.144      c0.348-0.12,1.009-0.372,0.72-0.873C82.473,53.912,82.331,53.745,82.197,53.57z" style="fill:#7C4706;"/>
				<path d="M89.853,54.357c0.077-0.128,0.111-0.282,0.099-0.429c-0.019-0.195-0.134-0.46-0.375-0.334      c-0.114,0.06-0.189,0.154-0.238,0.262c-0.017,0.201-0.042,0.465,0.093,0.583C89.557,54.547,89.769,54.493,89.853,54.357z" style="fill:#7C4706;"/>
				<path d="M84.769,44.665c-0.036,0.015-0.07,0.038-0.1,0.063c-0.07,0.24-0.257,0.688,0.122,0.67      c0.273-0.012,0.43-0.299,0.343-0.55C85.081,44.696,84.926,44.606,84.769,44.665z" style="fill:#7C4706;"/>
				<path d="M87.992,39.703c-0.076-0.577-0.314-1.413-1.049-1.391c-0.487,0.016-0.949,0.218-1.342,0.501      c-0.46,0.561-0.748,1.193-0.159,1.852c0.418,0.465,0.982,0.859,1.505,1.203c0.354,0.234,1.018,0.674,1.13-0.007      c0.058-0.356,0.021-0.72-0.01-1.077C88.035,40.425,88.037,40.062,87.992,39.703z" style="fill:#7C4706;"/>
				<path d="M80.636,42.094c-0.269-0.35-0.483-0.686-0.699-1.069c-0.129-0.226-0.42-0.776-0.797-0.519      c-0.207,0.144-0.363,0.336-0.504,0.545c-0.285,0.422-1.42,2.581-0.414,2.738c0.311,0.049,0.623,0.042,0.934,0.012      c0.011-0.009,0.021-0.016,0.037-0.02c0.445-0.094,0.944-0.155,1.343-0.384C81.14,43.052,80.996,42.565,80.636,42.094z" style="fill:#7C4706;"/>
				<path d="M81.403,36.448c0,0.005,0,0.009,0,0.014c-0.017,0.518,0.492,0.991,1.024,0.958      c0.585-0.036,0.51-0.897,0.269-1.252C82.356,35.672,81.714,36.08,81.403,36.448z" style="fill:#7C4706;"/>
				<path d="M79.14,31.068c-0.274,0.033-0.54,0.12-0.777,0.254c-0.004,0.009-0.008,0.017-0.017,0.026      c-0.323,0.359-0.888,0.956-0.378,1.433c0.238,0.223,0.548,0.369,0.863,0.452c0.301,0.08,0.665,0.163,0.974,0.072      c0.369-0.108,0.345-0.511,0.28-0.816C79.99,32.032,79.763,30.992,79.14,31.068z" style="fill:#7C4706;"/>
				<path d="M73.075,33.346c0.209,0.15,1.146,0.841,1.146,0.207c0-0.607-0.011-1.289-0.223-1.865      c-0.13-0.355-0.377-0.789-0.817-0.772c-0.365,0.014-0.79,0.122-1.13,0.261c-0.329,0.134-0.358,0.45-0.245,0.829      c0.023,0.003,0.043,0.015,0.06,0.038C72.175,32.547,72.595,33.002,73.075,33.346z" style="fill:#7C4706;"/>
				<path d="M71.048,39.347c0.145-0.613,0.197-1.482,0.029-2.094c-0.121-0.443-0.424-0.763-0.878-0.463      c-0.198,0.13-0.376,0.231-0.616,0.213c-0.006-0.001-0.01-0.003-0.016-0.005c-0.234,0.125-0.417,0.289-0.31,0.601      c0.158,0.461,0.384,0.916,0.673,1.31C70.119,39.165,70.872,40.092,71.048,39.347z" style="fill:#7C4706;"/>
				<path d="M68.564,32.504c-0.037,0.01-0.066,0.025-0.094,0.042c-0.045,0.14-0.094,0.29-0.074,0.431      c0.029,0.244,0.28,0.278,0.476,0.218c0.152-0.047,0.289-0.135,0.284-0.31c-0.003-0.087-0.032-0.173-0.095-0.237      C68.939,32.524,68.737,32.452,68.564,32.504z" style="fill:#7C4706;"/>
				<path d="M65.533,35.313c0.427-0.031,0.684-0.787,0.838-1.137c0.164-0.373,0.501-1.287-0.29-1.063      c-0.623,0.177-1.075,0.582-1.447,1.08c-0.066,0.184-0.046,0.385,0.147,0.607C64.955,34.999,65.234,35.335,65.533,35.313z" style="fill:#7C4706;"/>
				<path d="M66.767,42.097c-0.169-0.211-0.301-0.448-0.471-0.66c-0.011-0.015-0.016-0.029-0.018-0.043      c-0.204-0.269-0.429-0.531-0.715-0.592c-0.752-0.16-0.786,1.158-0.795,1.625c-0.007,0.257-0.003,0.512,0.008,0.767      c0.01,0.228-0.018,0.533,0.11,0.733c0.252,0.395,0.823,0.196,1.153,0.02c0.392-0.206,1.13-0.556,1.229-1.036      C67.343,42.559,66.955,42.326,66.767,42.097z" style="fill:#7C4706;"/>
				<path d="M74.877,42.328c-0.151-0.089-0.318-0.078-0.462-0.008c-0.105,0.08-0.203,0.168-0.26,0.283      c-0.068,0.136-0.021,0.333,0.145,0.372c0.116,0.025,0.244-0.002,0.351-0.059C74.823,42.823,75.161,42.497,74.877,42.328z" style="fill:#7C4706;"/>
				<path d="M65.843,48.979c-0.15-0.359-0.469-0.67-0.885-0.404c-0.043,0.027-0.079,0.06-0.121,0.09      c0.004,0.022-0.002,0.046-0.021,0.067c-0.387,0.432-1.211,1.818-0.137,1.969c0.274,0.039,0.553,0.007,0.826-0.033      c0.228-0.034,0.489-0.022,0.705-0.094c0.636-0.213-0.013-0.721-0.144-1.016C65.981,49.368,65.922,49.17,65.843,48.979z" style="fill:#7C4706;"/>
				<path d="M59.285,49.287c-0.271-0.232-0.849-0.713-1.226-0.435c-0.178,0.13-0.288,0.315-0.375,0.516      c-0.06,0.454-0.234,0.867-0.353,1.311c-0.066,0.258-0.178,0.666,0.204,0.722c0.172,0.026,0.347,0.011,0.516-0.023      c0.29-0.058,0.574-0.144,0.862-0.217c0.319-0.08,0.837-0.173,0.984-0.516C60.113,50.135,59.646,49.593,59.285,49.287z" style="fill:#7C4706;"/>
				<path d="M51.036,51.141c0.308-0.081,0.662-0.303,0.563-0.684c-0.043-0.169-0.167-0.29-0.313-0.316      c-0.006,0.004-0.01,0.008-0.016,0.012c-0.203,0.118-0.398,0.307-0.525,0.506c-0.06,0.095-0.153,0.239-0.113,0.359      C50.688,51.184,50.896,51.178,51.036,51.141z" style="fill:#7C4706;"/>
				<path d="M48.026,51.389c-0.191,0.177-0.216,0.442-0.158,0.683c0.088,0.251,0.243,0.525,0.481,0.576      c0.461,0.097,0.402-0.515,0.309-0.783C48.586,51.656,48.324,51.111,48.026,51.389z" style="fill:#7C4706;"/>
				<path d="M51.058,53.784c-0.226-0.175-0.374-0.021-0.473,0.258c0.023,0.019,0.038,0.048,0.03,0.085      c-0.103,0.538-0.23,1.096-0.197,1.647c0.015,0.215,0.052,0.658,0.36,0.651c0.362-0.007,0.833-0.325,1.067-0.583      c0.399-0.438,0.178-0.806-0.101-1.216C51.548,54.333,51.339,54.003,51.058,53.784z" style="fill:#7C4706;"/>
				<path d="M50.114,64.814c-0.14,0.059-0.217,0.198-0.274,0.348c-0.006,0.119-0.029,0.235-0.034,0.355      c-0.004,0.104,0.038,0.471,0.229,0.391c0.18-0.074,0.31-0.394,0.35-0.569C50.431,65.135,50.502,64.65,50.114,64.814z" style="fill:#7C4706;"/>
				<path d="M50.07,74.737c0.295-0.032,0.462-0.282,0.572-0.533c0.058-0.133,0.121-0.293,0.106-0.442      c-0.02-0.205-0.183-0.23-0.34-0.133c-0.101,0.063-0.193,0.142-0.291,0.215c-0.122,0.155-0.302,0.301-0.345,0.502      C49.724,74.561,49.822,74.763,50.07,74.737z" style="fill:#7C4706;"/>
				<path d="M47.917,75.261c1.048-0.524-0.505-1.934-1.229-2.346c0.129,0.849,0.254,1.671,0.379,2.445      C47.369,75.41,47.682,75.379,47.917,75.261z" style="fill:#7C4706;"/>
				<path d="M47.417,70.914c0.449-0.327,0.539-1.495,0.129-1.896c-0.394-0.386-0.999-0.411-1.499-0.231      c0.095,0.559,0.184,1.132,0.275,1.709C46.564,70.929,46.844,71.329,47.417,70.914z" style="fill:#7C4706;"/>
				<path d="M51.728,60.686c0.113-0.466,0.498-1.141-0.19-1.241c-0.414-0.061-0.964,0.103-1.073,0.565      c-0.167,0.713,0.482,1.314,1.148,1.291c0.058-0.388,0.113-0.623,0.113-0.623S51.728,60.682,51.728,60.686z" style="fill:#7C4706;"/>
				<path d="M46.061,42.41c-0.109,0.208-0.127,0.445-0.137,0.676c-0.006,0.064-0.066,0.09-0.113,0.079      c-0.035,0.165-0.063,0.332-0.065,0.497c-0.011,0.358,0.092,0.667,0.499,0.667c0.238,0,0.499-0.047,0.705-0.176      c0.522-0.328,0.156-0.967-0.124-1.356C46.74,42.678,46.254,42.034,46.061,42.41z" style="fill:#7C4706;"/>
				<path d="M43.791,37.968c-0.268-0.168-0.583-0.273-0.834-0.15c-0.343,0.817-0.518,1.809,0.019,2.593      c0.535,0.777,1.845,0.01,2.03-0.737C45.164,39.038,44.293,38.28,43.791,37.968z" style="fill:#7C4706;"/>
				<path d="M39.064,43.333c-0.313,0.096-0.685,0.225-0.893,0.493c-0.25,0.322-0.313,0.704-0.346,1.099      c-0.002,0.03-0.017,0.051-0.037,0.064c0.039,0.219,0.17,0.391,0.463,0.441c0.69,0.118,1.83-0.004,2.02-0.821      c0.083-0.354,0.076-0.86-0.217-1.131C39.778,43.223,39.407,43.227,39.064,43.333z" style="fill:#7C4706;"/>
				<path d="M33.297,44.201c-0.002,0.017-0.008,0.034-0.022,0.05c-0.362,0.398-1.209,1.594-0.456,2.023      c0.558,0.318,1.512,0.279,1.664-0.474c0.099-0.496-0.054-1.113-0.396-1.493C33.795,43.986,33.531,44.02,33.297,44.201z" style="fill:#7C4706;"/>
			</g>
			<path d="M77.574,46.534c-0.145-0.727-0.258-1.463-0.385-2.195c-0.066-0.39-0.186-0.772-0.264-1.162     c-0.06-0.31-0.089-0.626-0.202-0.924c-0.014-0.035-0.06-0.014-0.051,0.02c0.163,0.679,0.203,1.396,0.354,2.081     c0.157,0.728,0.217,1.469,0.368,2.197c0.3,1.422,0.466,2.864,0.777,4.288c0.007,0.032,0.059,0.028,0.054-0.007     C78.041,49.389,77.859,47.96,77.574,46.534z" style="fill:#D28000;"/>
			<path d="M88.045,80.448c-0.538,0.152-1.049-0.39-1.373-0.724c-0.239-0.246-0.539-0.493-0.835-0.666     c-0.775-0.455-1.658-0.164-2.131,0.543c-0.435,0.647-0.597,1.689-0.362,2.433c0.068,0.216,0.177,0.395,0.314,0.543     c-0.327,0.101-0.622,0.146-0.992,0.101c-0.642-0.079-0.997-0.602-1.185-1.161c-0.299-0.89-0.041-2.152,0.804-2.662     c0.027-0.016,0.003-0.059-0.025-0.049c-1.069,0.417-1.243,1.824-0.976,2.784c0.316,1.137,1.484,1.55,2.499,1.11     c0.33,0.28,0.777,0.413,1.229,0.423c0.04,0.001,0.038-0.058,0.004-0.065c-0.426-0.086-0.797-0.266-1.067-0.535l0,0     c-0.287-0.283-0.463-0.666-0.466-1.146c-0.006-0.946,0.398-2.251,1.518-2.279c0.746-0.019,1.317,0.599,1.826,1.063     c0.27,0.245,0.906,0.636,1.248,0.345C88.103,80.481,88.081,80.437,88.045,80.448z" style="fill:#D28000;"/>
			<path d="M88.052,80.982c-0.006-0.059-0.097-0.063-0.104-0.004c-0.033,0.256-0.043,0.506-0.125,0.753     c-0.117,0.354-0.498,0.701-0.897,0.655c-0.028-0.001-0.034,0.038-0.008,0.044c0.33,0.076,0.707-0.138,0.901-0.396     C88.031,81.752,88.088,81.322,88.052,80.982z" style="fill:#D28000;"/>
			<path d="M48.916,84.418c-0.302,0.07-0.588-0.135-0.822-0.295c-0.219-0.147-0.468-0.34-0.651-0.527     c-0.238-0.246-0.722-0.5-1.06-0.53c-0.249-0.022-0.478,0.012-0.684,0.084c-0.259-0.594-1.125-0.556-1.661-0.419     c-0.182,0.046-0.353,0.129-0.513,0.237c-0.479-0.261-1.109-0.026-1.469,0.334c-0.588,0.585-0.949,1.324-1.06,2.148     c-0.077,0.583,0.053,1.378,0.611,1.708c0.236,0.141,0.546,0.281,0.828,0.289c0.2,0.005,0.371-0.014,0.563-0.076     c0.08-0.026,0.314-0.209,0.39-0.209c0.005,0,0.008-0.001,0.012-0.002c0.391,0.216,0.862,0.303,1.383,0.197     c0.575,0.333,1.378,0.471,1.938,0.284c0.031-0.009,0.02-0.058-0.012-0.054c-0.367,0.064-0.829-0.069-1.176-0.183     c-0.201-0.067-0.406-0.146-0.592-0.25c-0.02-0.028-0.05-0.049-0.088-0.05c-0.217-0.138-0.395-0.32-0.49-0.581     c-0.152-0.409-0.049-0.952,0.044-1.358c0.111-0.49,0.375-0.938,0.706-1.311c0.309-0.351,0.812-0.679,1.305-0.531     c0.364,0.11,0.696,0.238,0.972,0.506c0.253,0.246,0.614,0.462,0.928,0.627c0.199,0.106,0.438,0.137,0.632,0.021     C48.986,84.458,48.951,84.409,48.916,84.418z M43.024,87.063c-0.349,0.154-0.653,0.142-1.01,0.007     c-0.652-0.248-0.835-0.941-0.763-1.577c0.11-0.972,0.919-2.66,2.139-2.424c-0.439,0.35-0.772,0.888-0.939,1.371     c-0.344,0.989-0.011,2.005,0.693,2.553C43.103,87.02,43.062,87.047,43.024,87.063z M44.431,84.375     c-0.375,0.675-0.677,2.023-0.067,2.664c0.032,0.034,0.067,0.066,0.103,0.098c-0.495,0.02-0.938-0.094-1.337-0.467     c-0.558-0.518-0.618-1.319-0.453-2.021c0.132-0.567,0.539-1.075,0.981-1.436c0.446-0.364,1.526-0.531,1.946-0.027     C45.099,83.399,44.715,83.86,44.431,84.375z" style="fill:#D28000;"/>
			<path d="M44.987,63.036c-0.146-0.543-0.34-1.073-0.472-1.622c-0.144-0.601-0.394-1.197-0.569-1.792     c-0.202-0.684-0.418-1.362-0.617-2.047c-0.357-1.225-0.674-2.469-1.117-3.667c-0.199-0.536-0.448-1.038-0.756-1.519     c-0.277-0.435-0.587-0.963-1.048-1.225c-0.049-0.027-0.098,0.053-0.052,0.084c0.45,0.309,0.728,0.924,0.996,1.384     c0.331,0.565,0.563,1.185,0.772,1.805c0.393,1.158,0.714,2.351,1.04,3.529c0.618,2.234,1.417,4.417,2.108,6.625     c0.018,0.059,0.111,0.037,0.104-0.024C45.309,64.057,45.121,63.538,44.987,63.036z" style="fill:#D28000;"/>
			<path d="M55.144,53.942c0-0.002-0.001-0.005-0.003-0.007c0.002-0.008-0.001-0.016-0.005-0.022     c-0.272-0.934-0.449-1.925-0.914-2.791c-0.248-0.462-0.526-0.94-0.89-1.322c-0.31-0.327-0.684-0.468-1.077-0.615     c0.313-0.1,0.718-0.121,1.003-0.145c0.238-0.021,0.484-0.014,0.724-0.004c0.146,0.005,0.27,0.074,0.41,0.08     c0.076,0.002,0.135-0.057,0.11-0.134c-0.19-0.646-0.946-1.06-1.526-1.31c-0.6-0.259-1.146-0.292-1.744-0.211     c0.051-0.027,0.096-0.053,0.121-0.069c0.298-0.193,0.607-0.352,0.928-0.503c0.466-0.221,1.103-0.43,1.617-0.43     c0.076,0,0.104-0.082,0.088-0.142c-0.061-0.248-0.46-0.477-0.66-0.607c-0.398-0.262-0.836-0.387-1.294-0.507     c-0.806-0.214-1.864-0.013-2.495,0.539c-0.029,0.029,0.005,0.08,0.043,0.055c0.672-0.438,1.497-0.547,2.28-0.431     c0.376,0.056,0.761,0.201,1.104,0.364c0.156,0.075,0.574,0.314,0.751,0.528c-0.554,0.039-1.157,0.267-1.64,0.495     c-0.318,0.15-0.608,0.349-0.924,0.504c-0.139,0.069-0.318,0.19-0.392,0.331c-0.034,0.066,0.03,0.165,0.106,0.149     c0.675-0.135,1.229-0.167,1.891,0.075c0.494,0.182,1.22,0.559,1.486,1.075c-0.076-0.02-0.153-0.042-0.231-0.05     c-0.254-0.026-0.52-0.009-0.774,0.002c-0.397,0.016-0.963,0.067-1.314,0.268c-0.066,0.039-0.05,0.151,0.018,0.177     c0.473,0.187,0.879,0.318,1.262,0.676c0.412,0.383,0.723,1.001,0.965,1.502c0.381,0.787,0.53,1.684,0.794,2.511     c-0.523,0.346-0.901,0.954-1.26,1.446c-0.413,0.57-0.729,1.22-1.003,1.867c-0.272,0.638-0.478,1.316-0.705,1.97     c-0.248,0.708-0.433,1.495-0.467,2.245c-0.004,0.058,0.08,0.075,0.091,0.014c0.28-1.373,0.734-2.701,1.224-4.011     c0.475-1.27,1.236-2.475,2.189-3.441C55.091,54.075,55.166,54.021,55.144,53.942z" style="fill:#D28000;"/>
			<path d="M92.27,65.426c-0.216-0.779-1.861-2.467-2.642-3.464c-0.778-0.995,0.476-4.805,0.996-8.053     c0.519-3.247,3.594-8.962,2.512-13.075c-0.208-0.79-0.824-1.742-1.712-2.765c0.614,1.483,0.866,3.079,0.699,4.746     c-0.129,1.276-0.419,2.525-0.771,3.757c-0.366,1.285-0.729,2.577-1.121,3.854c-0.404,1.322-0.873,2.624-1.322,3.931     c-0.229,0.668-0.515,1.354-0.67,2.043c-0.13,0.585-0.216,1.176-0.324,1.766c-0.189,1.014-0.434,2.11-1.282,2.791     c-0.544,0.438-1.229,0.632-1.915,0.446c-0.396-0.107-0.75-0.29-1.067-0.521c-2.36-1.249-3.463-3.833-4.121-6.379     c-0.401-1.554-0.677-3.141-1.103-4.689c-0.51-1.858-0.996-3.723-1.3-5.626c-1.524,1.111-2.867,2.504-4.26,3.755     c-0.929,0.832-1.838,1.692-2.661,2.631c-0.711,0.811-1.288,1.76-2.058,2.517c-2.476,2.43-6.497,3.881-9.956,3.435     c-0.134-0.017-0.229-0.14-0.156-0.272c0.147-0.267,0.327-0.506,0.513-0.747c-1.063,0.748-2.235,1.311-3.513,1.508     c-0.144,0.022-0.247-0.078-0.223-0.222c0.113-0.687,0.113-1.339,0.038-2.029c-0.017-0.149,0.163-0.209,0.272-0.156     c0.15,0.072,0.3,0.145,0.448,0.221c-0.003-0.935-0.015-1.937-0.308-2.815c-0.259-0.777-0.785-1.401-1.155-2.124     c-0.05-0.096-0.014-0.242,0.107-0.266c0.639-0.117,1.331-0.17,1.961,0.01c-0.449-1.019-1.672-1.752-2.638-2.144     c-0.124-0.051-0.202-0.26-0.043-0.33c0.876-0.379,1.764-0.72,2.669-1.008c-1.665-1.212-3.91-1.735-5.882-1.175     c-0.256,0.167-0.486,0.364-0.692,0.591c0.473-0.252,1.115-0.358,1.498-0.402c1.003-0.111,2.299,0.131,2.91,1.009     c0.036,0.054-0.014,0.132-0.075,0.13c-1.206-0.039-2.209,0.53-2.927,1.384c1.244-0.111,2.462,0.216,3.42,1.066     c0.06,0.053,0.012,0.147-0.061,0.148c-0.807,0.022-1.662-0.107-2.408,0.153c0.328,0.303,0.603,0.679,0.831,1.044     c0.376,0.604,0.72,1.293,0.805,2.008c0.03,0.269,0.018,0.503-0.045,0.714c-0.005,0.335-0.081,0.68-0.257,1.031     c-0.683,1.378-1.947,2.357-2.663,3.713c-1.027,1.948-1.044,4.275-1.179,6.427c-0.09,1.459-0.14,2.919-0.104,4.378     c0.082-0.157,0.167-0.306,0.259-0.426c0.074-0.097,0.247-0.137,0.313,0c0.474,0.997,1.283,2.244,1.168,3.401     c-0.146,1.454-1.19,2.498-1.665,3.831c-1.082,3.049-0.057,6.412,0.1,9.531c0.006,0.128-0.163,0.239-0.272,0.156     c-0.418-0.316-0.859-0.591-1.297-0.874c-0.044-0.017-0.089-0.029-0.129-0.051c0.097,0.104,0.19,0.214,0.274,0.334     c0.247,0.358,0.455,0.759,0.08,1.098c-0.346,0.31-0.931,0.378-1.367,0.431c-0.434,0.054-0.881,0.122-1.317,0.065     c-0.334-0.043-0.765-0.147-0.926-0.485c-0.179-0.374-0.105-0.849,0.092-1.206c0.288-0.519,0.788-0.861,1.331-0.947     c-0.107-0.026-0.215-0.05-0.321-0.065c-0.017,0.01-0.03,0.018-0.03,0.018c-0.008-0.009-0.015-0.016-0.021-0.024     c-0.07-0.007-0.138-0.011-0.205-0.009c-0.508,0.023-0.899,0.465-1.205,0.832c-0.252,0.303-0.702,1.288-1.229,0.881     c-0.428-0.328,0.063-1.131,0.294-1.428c0.104-0.134,0.217-0.25,0.338-0.354c-0.352,0.093-0.664,0.291-0.915,0.56     c-0.204,0.216-0.324,0.484-0.518,0.703c-0.197,0.22-0.52,0.333-0.676,0.007c-0.034-0.065-0.048-0.145-0.053-0.229     c-0.279,0.512-0.471,1.195-0.334,1.987c0.263,1.546,2.25,1.037,2.25,1.037c0.677,0.396,1.459,0.06,1.459,0.06     c0.762,0.595,2.747,0.463,4.004,0.265c1.256-0.199,1.356-0.429,1.984-1.158c0.627-0.728,0.495-1.456,0.064-2.282     c-0.429-0.826-0.462-1.786-0.362-5.559c0.099-3.772,1.886-7.308,2.086-8.002c0.196-0.695-0.464-3.308-0.929-5.425     c-0.463-2.116,0.066-4.366,0.066-4.366s0.233,0.728,2.052,0.992c1.819,0.265,3.077-0.066,3.077-0.066     c-0.53-0.099-1.226-0.396-1.226-0.396c1.19,0.132,2.614-0.53,2.614-0.53c-1.224-0.164-1.853-0.594-1.853-0.594     c1.521,0.131,2.513-0.266,2.513-0.266c-0.595-0.066-1.72-0.661-1.72-0.661c0.728,0.165,4.498-0.298,7.84-1.356     c3.341-1.058,7.244-5.723,9.326-7.375c2.085-1.654,3.572-2.051,3.572-2.051c0.133,4.332,2.992,13.112,4.232,14.873     c1.24,1.76,3.953,3.377,4.704,3.982c0.75,0.606,0.692,1.443,0.26,3.695c-0.432,2.251-0.952,7.057-0.952,7.057     c-0.344,0.229-0.553,0.828-0.597,0.966c0.345,0.183,0.662,0.518,0.936,0.746c0.236,0.196,0.767,0.524,0.772,0.884     c0.005,0.426-0.432,0.653-0.779,0.803c-0.472,0.205-0.976,0.297-1.494,0.264c-0.802-0.053-1.908-0.525-1.488-1.533     c0.148-0.354,0.408-0.696,0.718-0.898c0.024-0.031,0.053-0.059,0.08-0.087c-1.017-0.123-1.127,0.989-1.722,1.542     c-0.293,0.272-0.82,0.445-1.045-0.023c-0.219-0.456-0.107-0.945,0.125-1.371c-0.395,0.113-0.668,0.525-0.731,0.921     c-0.035,0.234-0.061,0.483-0.192,0.686c-0.185,0.289-0.48,0.026-0.549-0.197c-0.048-0.159-0.074-0.312-0.085-0.459     c-0.031,0.225-0.022,0.497,0.032,0.829c0.392,2.251,1.603,1.255,1.603,1.255c0.822,0.822,2.034,0.347,2.034,0.347     c0.953,0.606,2.382,0.736,4.07,0c1.688-0.735,0.91-3.637,0.78-4.806C88.503,76.683,92.487,66.206,92.27,65.426z" style="fill:#D2D2D2;"/>
			
				<linearGradient y2="45.7556" x2="44.8491" y1="45.7556" x1="28.3591" gradientUnits="userSpaceOnUse" id="SVGID_00000002358018437355229220000008653916970644606622_">
				<stop style="stop-color:#FFFFFF" offset="0"/>
				<stop style="stop-color:#EAEAEA" offset="0.8358"/>
				<stop style="stop-color:#E5E5E5" offset="1"/>
			</linearGradient>
			<path d="M44.14,61.271     c-0.72-2.055-1.178-4.168-1.806-6.249c-0.018-0.056-0.036-0.113-0.052-0.169c-0.24-0.532-0.512-1.044-0.825-1.516     c-0.738-1.108-1.851-1.827-2.758-2.779c-0.128-0.134,1.5,0.038,2.103,0.341c-0.266-0.573-0.554-1.134-0.873-1.67     c-0.54-0.588-1.15-1.117-1.769-1.605c-1.38-1.089-4.731-2.186-4.698-2.297c0.498-1.618,1.913-2.735,3.128-3.824     c0.686-0.615,1.528-1.42,2.461-1.812c-1.261-0.025-2.496,0.305-3.608,0.964c-0.131,0.079-0.316-0.05-0.266-0.203     c0.648-1.922,1.397-3.814,1.405-5.875c0.007-1.758-0.255-3.498-0.348-5.251c-0.148-0.257-0.305-0.509-0.481-0.743     c-1.366-0.155-2.299-0.574-2.299-0.574c-6.895,6.614-5.306,17.529-3.735,17.992c1.568,0.461,3.452,3.073,3.452,3.073     c-1.313,1.761-0.678,3.869-0.678,3.869c0-1.53,1.198-2.237,1.198-2.237c-1.257,3.031-0.237,5.701-0.237,5.701     c5.077-0.288,9.588,4.561,10.858,6.062c0.188,0.223,0.366,0.578,0.536,1.034C44.656,62.724,44.382,61.963,44.14,61.271z" style="fill:url(#SVGID_00000002358018437355229220000008653916970644606622_);"/>
		</g>
		<path d="M29.193,60.44c-1.164,1.761-2.225,3.595-3.354,5.38c-1.19,1.884-2.371,3.773-3.407,5.747    c-1.505,2.864-3.726,7.359-1.966,10.56c0.051,0.094,0.191-0.107,0.169-0.177c-1.282-3.899,0.777-7.994,2.641-11.367    c1.88-3.408,4.431-6.542,5.962-10.129C29.256,60.409,29.213,60.409,29.193,60.44z" style="fill:#E74315;"/>
		<path d="M46.896,69.294c-0.658-3.461-1.597-6.85-2.623-10.216c-0.031-0.104-0.168,0.059-0.147,0.131    c0.899,3.308,1.774,6.63,2.433,9.995c0.678,3.46,0.93,6.912,1.152,10.421c0.004,0.097,0.107-0.014,0.111-0.065    C48.037,76.144,47.534,72.64,46.896,69.294z" style="fill:#E74315;"/>
		<path d="M83.613,60.047c-2.469-1.987-3.371-4.776-4.069-7.767c-0.396-1.706-0.773-3.412-1.083-5.136    c-0.348-1.945-0.628-3.925-1.298-5.791c-0.029-0.083-0.121,0.048-0.113,0.101c0.702,3.797,1.35,7.597,2.224,11.358    c0.651,2.792,1.546,5.952,4.236,7.412C83.581,60.264,83.674,60.097,83.613,60.047z" style="fill:#E74315;"/>
		<g>
			<g>
				<g>
					<g>
						<g>
							<path d="M42.902,20.767c-0.462-2.169-2.079-4.012-4.635-4.28c-1.211-0.127-2.455,0.065-3.513,0.701         c-1.053,0.632-1.809,1.704-2.496,2.683c-0.444,0.632-0.991,1.142-1.644,1.557c-0.313,0.198-0.59,0.4-0.951,0.509         c-0.038,0.012-0.078,0.021-0.117,0.03c-0.026-0.235-0.04-0.474-0.045-0.721c0-0.11-0.151-0.117-0.195-0.032         c0.035-0.067-0.188,0.105-0.217,0.14c-0.092,0.106-0.186,0.24-0.286,0.364c0.05-0.372,0.106-0.752,0.085-1.114         c-0.006-0.07-0.1-0.118-0.155-0.07c-0.333,0.282-0.674,0.564-1.015,0.842c-0.25,0.033-0.516,0.002-0.758-0.025         c-0.592-0.066-1.173-0.051-1.764-0.088c-1.16-0.072-2.3-0.046-3.454,0.123c-1.225,0.178-2.451,0.58-3.593,1.04         c-0.58,0.235-1.162,0.51-1.781,0.614c-1.098-0.248-2.092-1.127-2.891-1.831c-1.019-0.896-1.939-1.54-3.302-1.757         c-3.737-0.6-7.619,4.223-5.294,7.579c0.57,0.82,1.759,1.761,2.715,2.07c1.111,0.357,2.304,0.31,3.411-0.006         c0.59-0.169,1.124-0.438,1.706-0.616c-0.187,0.393-0.246,0.792-0.243,1.234c0,0.043,0,0.086,0.003,0.128         c-0.307,0.305-0.572,0.657-0.786,1.075c-0.453,0.878-0.686,2.015-0.546,2.999c0.015,0.096,0.125,0.126,0.188,0.057         c0.113-0.121,0.17-0.266,0.28-0.395c0.171-0.199,0.378-0.374,0.575-0.546c0.038-0.034,0.08-0.065,0.124-0.098         c-0.519,1.403-0.951,2.832-0.558,4.347c0.244,0.944,0.725,1.827,1.209,2.667c0.204,0.353,0.429,0.7,0.664,1.042         c-0.648,0.545-1.2,1.293-1.613,1.967c-0.497,0.807-0.815,1.885-0.915,2.823c-0.01,0.081,0.058,0.127,0.132,0.11         c0.102-0.024,0.146-0.097,0.207-0.181c0.213-0.292,0.512-0.414,0.835-0.545c0.041-0.016,0.082-0.03,0.123-0.046         c-0.094,0.147-0.184,0.296-0.261,0.445c-0.175,0.345-0.399,0.701-0.508,1.071c-0.027,0.088,0.081,0.161,0.158,0.13         c0.357-0.133,0.632-0.219,1.022-0.186c0.318,0.026,0.63,0.105,0.937,0.191c0.65,0.182,1.206,0.445,1.782,0.792         c0,0-0.108,1.101,1.448,1.287c1.927,0.229,1.535-0.482,1.967-0.278c1.786,0.846,2.08,2.571,3.763,3.474         c1.597,0.857,3.678-0.015,5.013-1c0.656-0.485,1.259-1.066,1.736-1.726c0.447-0.62,0.574-1.385,0.963-2.003         c1.877-2.989,4.891-5.278,7.484-7.62c0.727-0.653,1.663-1.587,2.698-1.66c0.567-0.04-0.46-1.151-0.552-1.268         c-0.209-0.264-0.457-0.449-0.739-0.604c0.04-0.006,0.077-0.013,0.119-0.018c0.499-0.066,0.988,0.062,1.477,0.021         c0.061-0.004,0.106-0.07,0.083-0.127c-0.231-0.568-1.239-0.933-1.753-1.139c-0.389-0.156-0.764-0.287-1.182-0.351         c-0.15-0.023-0.305-0.028-0.459-0.028c0.032-1.431-0.274-2.927-0.692-4.275c-0.237-0.764-0.521-1.57-0.929-2.262         c-0.07-0.117-0.152-0.231-0.235-0.342c0.413,0.135,0.842,0.222,1.258,0.263c0.575,0.057,1.077-0.005,1.621-0.194         c0.591-0.206,1.188-0.36,1.743-0.658c0.487-0.259,0.894-0.575,1.246-0.997C42.888,24.528,43.281,22.539,42.902,20.767z" style="fill:#FAB600;"/>
							
								<linearGradient gradientTransform="matrix(0.9877 -0.1563 0.1563 0.9877 -31.7083 172.5211)" y2="-117.4398" x2="90.803" y1="-117.4398" x1="65.802" gradientUnits="userSpaceOnUse" id="SVGID_00000103951753196194154320000007778961795672931773_">
								<stop style="stop-color:#FFFFFF" offset="0"/>
								<stop style="stop-color:#EAEAEA" offset="0.8358"/>
								<stop style="stop-color:#E5E5E5" offset="1"/>
							</linearGradient>
							<path d="M37.026,39.41         c-1.563,0.641-4.732,2.256-4.705,2.148c0.079-0.324,0.237-0.587,0.443-0.812c-0.72,0.257-1.421,0.564-2.131,0.85         c-0.112,0.044,0.631-1.161,1.058-1.645c-0.628,0.08-1.246,0.251-1.814,0.533c-0.442,0.221-0.911,0.46-1.176,0.9         c-0.155,0.26-0.301,0.525-0.47,0.778c-0.09,0.135-0.268,0.032-0.268-0.104c0.009-1.847-0.666-3.989-2.133-5.206         c-0.025,0.535-0.071,1.046-0.304,1.548c-0.327,0.701-0.931,1.367-1.451,1.931c-1.108,1.203-2.473,2.063-3.794,3.005         c-0.461,0.329-1.102,0.8-1.709,0.722c-0.869-0.114-1.611-0.54-2.531-0.377c-0.736,0.129-0.855,0.541-0.921,1.192         c-0.04,0.39-0.096,0.782-0.095,1.176c0.002,0.335,0.002,0.827,0.072,1.269c0.142,0.076,0.282,0.156,0.425,0.242         c0,0-0.108,1.101,1.448,1.287c1.927,0.229,1.535-0.482,1.967-0.278c1.786,0.846,2.08,2.571,3.763,3.474         c1.597,0.857,3.678-0.015,5.013-1c0.656-0.485,1.259-1.066,1.736-1.726c0.447-0.62,0.574-1.385,0.963-2.003         c1.877-2.989,4.891-5.278,7.484-7.62c0.341-0.308,0.729-0.674,1.15-0.986C38.351,38.881,37.667,39.148,37.026,39.41z" style="fill:url(#SVGID_00000103951753196194154320000007778961795672931773_);"/>
							
								<radialGradient gradientUnits="userSpaceOnUse" gradientTransform="matrix(0.9877 -0.1563 0.1563 0.9877 -31.7083 172.5211)" r="13.759" cy="-146.7813" cx="62.0997" id="SVGID_00000072986309434483096730000008715700946636978076_">
								<stop style="stop-color:#F5AF5A" offset="0.1732"/>
								<stop style="stop-color:#5E3D1C" offset="0.8261"/>
							</radialGradient>
							<path d="M12.788,23.032         c-0.548-1.726-2.868-2.568-4.494-2.14c-0.49,0.128-1.032,0.383-1.421,0.712c-0.268,0.226-0.527,0.518-0.707,0.819         c-0.24,0.409-0.459,0.97-0.506,1.446c-0.058,0.582,0.016,1.17,0.18,1.728c0.169,0.573,0.595,1.074,0.975,1.519         C7.566,28,8.578,28.28,9.711,28.248c0.904-0.026,2.157-0.343,2.538-1.253c0.379-0.903-0.11-1.86-0.878-2.339         c-0.463-0.29-0.947-0.469-1.44-0.521c0.229-0.06,0.459-0.109,0.696-0.143c0.269-0.039,0.55-0.025,0.82-0.026         c0.333-0.001,0.602,0.129,0.915,0.154c0.07,0.004,0.119-0.064,0.079-0.127c-0.303-0.47-1.116-0.785-1.607-0.994         c-0.154-0.065-0.305-0.108-0.453-0.142c0.757-0.127,1.512-0.066,2.21,0.357C12.71,23.286,12.822,23.138,12.788,23.032z" style="fill:url(#SVGID_00000072986309434483096730000008715700946636978076_);"/>
							<path d="M10.835,22.999c-0.154-0.065-0.305-0.108-0.453-0.142         c0.563-0.094,1.121-0.085,1.66,0.101c-0.771-0.491-1.723-0.68-2.674-0.531c0.427,0.376,0.963,0.603,1.353,1.025         c0.053,0.057,0.019,0.159-0.064,0.157c-0.722-0.019-1.374,0.244-1.974,0.621c0.85,0.217,2.067,0.687,1.984,1.697         c-0.105,1.287-2.051,1.208-2.891,0.824c-1.063-0.486-1.957-1.63-2.122-2.817c-0.046,0.561,0.025,1.125,0.185,1.664         c0.169,0.573,0.595,1.074,0.975,1.519C7.566,28,8.578,28.28,9.711,28.248c0.904-0.026,2.157-0.343,2.538-1.253         c0.379-0.903-0.11-1.86-0.878-2.339c-0.463-0.29-0.947-0.469-1.44-0.521c0.229-0.06,0.459-0.109,0.696-0.143         c0.269-0.039,0.55-0.025,0.82-0.026c0.333-0.001,0.602,0.129,0.915,0.154c0.07,0.004,0.119-0.064,0.079-0.127         C12.139,23.523,11.326,23.208,10.835,22.999z" style="opacity:0.5;fill:#885504;"/>
							<path d="M32.072,41.188c-0.023,0.013-0.047,0.026-0.07,0.04c-0.485,0.283-0.93,0.786-1.055,1.188         c-0.082,0.264-0.139,0.536-0.184,0.81c-0.014,0.193-0.022,0.386-0.04,0.565c-0.074,0.798-0.096,1.617-0.255,2.403         c-0.035,0.171-0.078,0.338-0.126,0.505c-0.054,0.326-0.114,0.652-0.175,0.978c0.012-0.023,0.025-0.047,0.037-0.07         c0.144-0.482,0.331-0.951,0.506-1.426c0.092-0.506,0.146-1.011,0.175-1.54c0.021-0.383,0.09-0.763,0.118-1.146         c0.029-0.392,0.031-0.772,0.166-1.145c0.25-0.702,0.938-0.926,1.488-1.308c0.014-0.009,0.018-0.022,0.018-0.034         C32.482,41.012,32.276,41.08,32.072,41.188z" style="fill:#D28000;"/>
							<path d="M17.217,22.875c-0.359,0.226-0.82,0.715-1.28,0.687c-0.597-0.038-1.182,0.03-1.776,0.029         c-0.113,0-0.113,0.152-0.031,0.196c0.276,0.155,0.634,0.342,0.832,0.622c-0.676-0.055-1.234,0.104-1.853,0.426         c0.185,0.043,0.371,0.123,0.5,0.171c0.184,0.067,0.407,0.132,0.609,0.227c-0.16-0.196-0.447-0.315-0.727-0.363         c0.528-0.217,1.023-0.328,1.641-0.236c0.074,0.011,0.144-0.064,0.114-0.138c-0.127-0.306-0.404-0.522-0.691-0.699         c0.551-0.001,1.12-0.009,1.656-0.06c0.04-0.003,0.079-0.018,0.121-0.034c0.111-0.109,0.231-0.213,0.352-0.312         c0.369-0.297,0.733-0.559,1.121-0.807C17.594,22.651,17.406,22.757,17.217,22.875z" style="fill:#D28000;"/>
							<path d="M33.006,33.761c-0.179-0.174-0.984-0.106-1.155-0.078c-1.212,0.196-0.262,1.307-1.828,2.287         c-0.721,0.451-1.56,0.413-2.334,0.158c-2.434-0.797-2.612-5.231-0.639-6.546c0.785-0.526,1.568-0.585,2.411-0.207         c0.519,0.233,0.991,0.976,1.188,1.045c0.157,0.058,0.09-0.072,0.046-0.192c-0.346-0.917-1.484-1.649-2.161-1.794         c-0.513-0.109-0.967-0.066-1.46,0.114c-1.966,0.715-2.589,3.531-2.426,5.354c0.072,0.778,0.234,1.729,0.748,2.349         c0.862,1.042,1.504,2.247,1.956,3.519c0.474,1.334,0.09,2.901-0.487,4.129c-0.027,0.056-0.053,0.112-0.08,0.169         c-0.163,0.623-0.382,1.204-0.869,1.741c-0.205,0.229-0.421,0.428-0.641,0.604c-0.249,0.24-0.524,0.443-0.829,0.583         c-0.113,0.053-0.23,0.093-0.345,0.133c-0.531,0.368-1.223,0.44-1.878,0.376c-1.391-0.017-2.968-0.642-3.122-2.061         c-0.058-0.148-0.11-0.297-0.154-0.451c0.023-0.009,0.046-0.015,0.069-0.022c0.526-0.181,0.895-0.528,1.324-0.851         c0.433-0.323,1.495-1.624,0.701-2.025c-0.41-0.206-1.05-0.191-1.498-0.205c-0.464-0.013-0.926-0.004-1.386,0.038         c-0.1-0.003-0.199-0.007-0.299-0.01c-0.644-0.02-1.299,0.189-1.908,0.386c-0.363,0.118-0.697,0.266-0.993,0.487         c-0.142-0.608,0.077-1.241,0.307-1.81c0.249-0.621,0.554-1.185,0.915-1.748c0.626-0.982,1.447-1.885,2.361-2.607         c0.032,0.003,0.067-0.01,0.084-0.046c0.004-0.008,0.005-0.018,0.01-0.027c0.528-0.404,1.107-0.706,1.726-0.944         c0.019-0.008,0.04-0.016,0.063-0.024c0.483-0.222,1.008-0.369,1.535-0.535c-0.452-0.066-0.89,0.113-1.339,0.237         c-0.422,0.117-0.825,0.284-1.209,0.486c0.207-0.109-0.229-1.548-0.289-1.758c-0.294-1.04-0.869-2.308-1.84-2.881         c-0.072-0.05-0.146-0.099-0.225-0.144c-1.854-1.028-3.08,1.319-2.893,2.875c0.205-0.935,0.427-2.376,1.449-2.781         c0.72-0.285,1.439,0.105,1.922,0.632c0.59,0.639,0.778,1.504,0.89,2.339c0.06,0.441,0.483,1.993,0.065,2.297         c-0.993,0.724-2.279,2.721-3.623,1.452c-0.024-0.009-0.047-0.021-0.066-0.049c-0.226-0.31-0.655-0.262-0.997-0.278         c-0.101-0.004-0.199-0.014-0.296-0.028c0.394,0.531,0.792,0.909,1.397,1.239c0.303,0.165,0.744,0.37,1.125,0.321         c-0.139,0.196-0.274,0.396-0.404,0.595c-0.367,0.56-0.658,1.262-0.837,1.904c-0.087,0.31-0.137,0.607-0.146,0.928         c-0.005,0.192,0.033,0.374,0.082,0.555c-0.019,0.02-0.042,0.04-0.064,0.062c-0.33,0.345-0.204,0.773-0.016,1.143         c0.12,0.236,0.338,0.403,0.575,0.535c-0.069,0.161-0.135,0.325-0.183,0.497c-0.134,0.464-0.024,1.047,0.013,1.521         c0.074,0.988,0.45,1.739,1.386,2.146c0.43,0.188,0.976,0.23,1.424,0.161c0.368-0.058,0.798-0.211,1.078-0.487         c0.03-0.03,0.058-0.063,0.085-0.096c1.11,0.225,1.984,0.851,2.911,1.479c0.359,0.244,0.704,0.325,1.133,0.305         c0.463-0.022,0.896-0.477,1.233-0.746c0.772-0.62,1.68-1.178,2.191-2.058c0.264-0.777,0.295-1.539,0.43-2.355         c0.032-0.196,0.09-0.361,0.172-0.507c0.007-0.03,0.014-0.06,0.021-0.091c0.335-0.527,0.653-1.088,0.878-1.661         c0.52-1.33,0.284-3.125-0.447-4.334c-0.184-0.3-0.382-0.588-0.556-0.896c-0.099-0.171-0.194-0.342-0.292-0.514         c-0.367-0.65,0.394-0.513,0.597-0.491c0.838,0.091,1.729,0.1,2.533-0.184c1.148-0.406,1.637-1.554,2.615-2.181         c0.108-0.068,0.561-0.237,0.594-0.363C33.052,33.828,33.037,33.792,33.006,33.761z M19.333,47.035         c-0.031,0.361-0.226,0.749-0.371,1.079c-0.196,0.448-0.703,0.616-1.121,0.679c-0.482,0.073-0.971-0.012-1.43-0.211         c-0.897-0.387-1.047-1.277-1.109-2.15c-0.026-0.377-0.076-0.789,0-1.159c0.031-0.148,0.079-0.29,0.135-0.43         c0.115,0.053,0.23,0.102,0.337,0.149c0.491,0.215,1.001,0.328,1.537,0.311c0.474-0.016,0.907-0.093,1.345-0.219         c0.136,0.524,0.355,1.034,0.674,1.456C19.34,46.701,19.352,46.863,19.333,47.035z" style="fill:#D28000;"/>
							<g>
								
									<radialGradient gradientUnits="userSpaceOnUse" gradientTransform="matrix(0.9877 -0.1563 0.1563 0.9877 -31.7083 172.5211)" r="17.9934" cy="-138.7619" cx="102.1214" id="SVGID_00000067210015907174289130000018033629506893518233_">
									<stop style="stop-color:#F5AF5A" offset="0.1732"/>
									<stop style="stop-color:#5E3D1C" offset="0.8261"/>
								</radialGradient>
								<path d="M41.578,21.023          c-0.232-1.471-0.951-3.101-2.43-3.576c-0.404-0.13-0.943-0.204-1.366-0.146c-1.149,0.16-1.894,0.429-2.714,1.211          c-0.267,0.255-0.885,0.977-1.007,1.342c-0.026,0.08,0.045,0.201,0.143,0.152c0.721-0.361,1.761-0.622,2.634-0.429          c-0.18,0.039-0.357,0.09-0.521,0.142c-0.513,0.165-1.23,0.44-1.586,0.863c-0.047,0.058-0.009,0.145,0.062,0.16          c0.123,0.023,0.226-0.049,0.34-0.085c0.399-0.127,0.803-0.195,1.222-0.141c0.169,0.022,0.33,0.063,0.484,0.116          c-0.366,0.118-0.715,0.291-1.041,0.533c-0.361,0.272-0.694,0.773-0.933,1.152c-0.661,1.046-0.839,2.518,0.045,3.501          c0.58,0.647,1.44,0.996,2.302,1.018c0.863,0.024,1.778-0.184,2.481-0.7c0.58-0.427,1.074-0.982,1.371-1.641          c0.226-0.496,0.422-1.069,0.516-1.607c0.065-0.382,0.098-0.795,0.076-1.184C41.638,21.484,41.615,21.256,41.578,21.023z" style="fill:url(#SVGID_00000067210015907174289130000018033629506893518233_);"/>
								<path d="M40.715,24.346c-1.127,0.686-3.033,0.866-3.835-0.431          c-0.797-1.289,0.606-2.531,1.581-3.262c-0.388-0.197-0.834-0.195-1.258-0.276c-0.064-0.012-0.078-0.085-0.055-0.134          c0.245-0.535,0.724-0.831,1.161-1.194c0.158-0.13,0.296-0.196,0.01-0.29c-0.099-0.033-0.197-0.064-0.302-0.079          c-0.259-0.037-0.524-0.043-0.787-0.02c-0.558,0.05-1.144,0.139-1.647,0.399c-0.521,0.268-0.998,0.614-1.514,0.893          c0.023,0.049,0.074,0.084,0.134,0.054c0.721-0.361,1.761-0.622,2.634-0.429c-0.18,0.039-0.357,0.09-0.521,0.142          c-0.513,0.165-1.23,0.44-1.586,0.863c-0.047,0.058-0.009,0.145,0.062,0.16c0.123,0.023,0.226-0.049,0.34-0.085          c0.399-0.127,0.803-0.195,1.222-0.141c0.169,0.022,0.33,0.063,0.484,0.116c-0.366,0.118-0.715,0.291-1.041,0.533          c-0.361,0.272-0.694,0.773-0.933,1.152c-0.661,1.046-0.839,2.518,0.045,3.501c0.58,0.647,1.44,0.996,2.302,1.018          c0.863,0.024,1.778-0.184,2.481-0.7c0.58-0.427,1.074-0.982,1.371-1.641c0.091-0.199,0.173-0.411,0.25-0.626          C41.143,24.044,40.947,24.206,40.715,24.346z" style="opacity:0.5;fill:#885504;"/>
							</g>
							
								<linearGradient gradientTransform="matrix(1 0.002 -0.002 1 112.9657 -321.6792)" y2="369.3979" x2="-85.4882" y1="369.3979" x1="-93.1183" gradientUnits="userSpaceOnUse" id="SVGID_00000182492143355765270760000001462867264075793335_">
								<stop style="stop-color:#E75667" offset="0"/>
								<stop style="stop-color:#420D00" offset="1"/>
							</linearGradient>
							<path d="M26.479,46.948         c-0.393,0.942-1.392,1.717-2.218,2.27c-0.443,0.294-0.793,0.758-1.361,0.789c-0.568,0.031-0.951-0.389-1.399-0.656         c-0.719-0.432-1.52-0.983-2.395-0.989c0.197-0.297,0.295-0.67,0.387-1.003c0.061-0.217,0.049-0.411,0.014-0.603         c0.099,0.105,0.201,0.208,0.315,0.296c0.403,0.316,0.95,0.521,1.436,0.66c0.558,0.157,1.105,0.06,1.667,0.005         c0.565-0.057,1.095-0.235,1.622-0.436c0.493-0.187,0.903-0.663,1.251-1.042c0.003-0.003,0.007-0.007,0.008-0.01         c0.393-0.261,0.679-0.73,0.937-1.148c-0.031,0.169-0.06,0.338-0.084,0.511C26.596,46.029,26.652,46.534,26.479,46.948z" style="fill:url(#SVGID_00000182492143355765270760000001462867264075793335_);"/>
							
								<linearGradient gradientTransform="matrix(1 0.002 -0.002 1 112.9657 -321.6792)" y2="369.3979" x2="-85.4883" y1="369.3979" x1="-93.1184" gradientUnits="userSpaceOnUse" id="SVGID_00000008858965919395497840000001329426458205929640_">
								<stop style="stop-color:#E75667" offset="0.1146"/>
								<stop style="stop-color:#CA1A18" offset="1"/>
							</linearGradient>
							<path d="M25.807,46.228         c-0.001,0.003-0.005,0.006-0.008,0.01c-0.348,0.379-0.758,0.855-1.251,1.042c-0.527,0.201-1.057,0.379-1.622,0.436         c-0.156,0.014-0.315,0.033-0.471,0.049c-0.282,0.704-0.388,1.461-0.179,2.093c0.188,0.098,0.39,0.161,0.623,0.148         c0.568-0.03,0.918-0.494,1.361-0.789c0.826-0.552,1.825-1.328,2.218-2.27c0.173-0.413,0.117-0.918,0.181-1.357         c0.024-0.173,0.053-0.342,0.084-0.511C26.486,45.498,26.201,45.967,25.807,46.228z" style="fill:url(#SVGID_00000008858965919395497840000001329426458205929640_);"/>
						</g>
						<g>
							<path d="M14.024,27.013c-0.151-0.142-0.472-0.383-0.554-0.049c-0.025,0.105,0.014,0.211,0.044,0.313         c0.009,0.081,0.027,0.161,0.073,0.22c0.064,0.089,0.192,0.102,0.294,0.085C14.153,27.531,14.218,27.192,14.024,27.013z" style="fill:#7C4706;"/>
							<path d="M18.314,25.416c-0.191-0.09-0.379-0.127-0.584-0.074c-0.073,0.019-0.118,0.063-0.146,0.118         c-0.187,0.127-0.286,0.434-0.281,0.665c0.008,0.201,0.107,0.367,0.292,0.455c0.065,0.031,0.146,0.01,0.206-0.021         c0.119-0.055,0.258-0.045,0.367-0.122c0.16-0.11,0.365-0.314,0.4-0.515C18.601,25.735,18.491,25.5,18.314,25.416z" style="fill:#7C4706;"/>
							<path d="M20.044,23.416c-0.04-0.085-0.08-0.174-0.155-0.235c-0.089-0.075-0.191-0.033-0.259,0.042         c-0.024,0.026-0.044,0.057-0.063,0.087c-0.055,0.031-0.103,0.071-0.118,0.117c-0.033,0.103-0.03,0.229,0.055,0.305         c0.071,0.063,0.19,0.032,0.276,0.037c0.098,0.007,0.248,0.023,0.301-0.087C20.127,23.588,20.084,23.501,20.044,23.416z" style="fill:#7C4706;"/>
							<path d="M22.983,22.429c-0.237-0.051-0.426,0.105-0.432,0.346c-0.001,0.031,0.002,0.061,0.007,0.093         c0.003,0.164,0.057,0.336,0.226,0.397c0.238,0.088,0.483-0.105,0.502-0.347C23.305,22.693,23.228,22.48,22.983,22.429z" style="fill:#7C4706;"/>
							<path d="M23.599,24.526c-0.075-0.073-0.201-0.084-0.297-0.066c-0.101,0.018-0.164,0.094-0.237,0.154         c-0.144,0.044-0.277,0.152-0.354,0.262c-0.132,0.191-0.015,0.557,0.233,0.599c0.105,0.017,0.24-0.047,0.337-0.076         c0.131-0.037,0.255-0.155,0.35-0.247C23.804,24.983,23.772,24.688,23.599,24.526z" style="fill:#7C4706;"/>
							<path d="M31.033,23.486c-0.186-0.287-0.652-0.54-0.989-0.549c-0.132-0.003-0.264,0.103-0.347,0.239         c-0.127,0.08-0.221,0.216-0.273,0.401c-0.057,0.188-0.119,0.511-0.086,0.71c0.033,0.19,0.169,0.266,0.303,0.39         c0.29,0.259,0.872,0.087,1.146-0.106C31.133,24.325,31.264,23.847,31.033,23.486z" style="fill:#7C4706;"/>
							<path d="M32.517,24.722c-0.095-0.042-0.187-0.003-0.247,0.077c-0.003,0.005-0.003,0.008-0.006,0.012         c-0.002,0-0.003,0-0.003,0c-0.053,0.064-0.063,0.146-0.05,0.226c0.004,0.031,0.014,0.06,0.025,0.087         c0.017,0.066,0.05,0.136,0.105,0.165c0.05,0.047,0.12,0.063,0.209,0.012c0.099-0.056,0.132-0.162,0.132-0.269         C32.683,24.934,32.613,24.766,32.517,24.722z" style="fill:#7C4706;"/>
							<path d="M33.193,27.699c-0.063-0.08-0.247-0.166-0.309-0.051c-0.113,0.069-0.061,0.254-0.036,0.357         c0.037,0.153,0.126,0.372,0.277,0.445c0.155,0.076,0.269-0.075,0.264-0.218C33.381,28.051,33.307,27.843,33.193,27.699z" style="fill:#7C4706;"/>
							<path d="M35.987,32.361c-0.024-0.314-0.151-0.865-0.535-0.942c-0.687-0.137-0.787,1.013-0.714,1.545         c0.017,0.207,0.071,0.41,0.21,0.557c0.181,0.191,0.522,0.249,0.716,0.032C35.956,33.221,36.017,32.789,35.987,32.361z" style="fill:#7C4706;"/>
							<path d="M34.294,36.57c-0.372-0.165-0.949,0.292-1,0.659c-0.059,0.429-0.006,0.938,0.371,1.21         c0.275,0.2,0.441,0.031,0.541-0.204c0.002-0.001,0.004-0.003,0.006-0.005c0.043-0.053,0.039-0.134,0.08-0.193         c0.073-0.107,0.167-0.193,0.232-0.306C34.703,37.433,34.646,36.728,34.294,36.57z" style="fill:#7C4706;"/>
							<path d="M36.523,36.832c-0.092-0.122-0.313-0.288-0.476-0.274c-0.175,0.016-0.209,0.238-0.204,0.371         c0.004,0.068,0.041,0.229,0.1,0.396c0.009,0.123,0.035,0.248,0.092,0.347c0.068,0.114,0.224,0.277,0.377,0.203         c0.168-0.082,0.245-0.193,0.246-0.389C36.661,37.282,36.65,37.003,36.523,36.832z" style="fill:#7C4706;"/>
						</g>
					</g>
				</g>
				<path d="M15.006,44.345c-0.299,0.443-0.561,0.898-0.741,1.415c-0.026,0.076-0.119,0.112-0.192,0.084      c-0.564-0.217-1.078-0.102-1.619,0.121c-0.116,0.048-0.249-0.064-0.199-0.19c0.247-0.606,0.658-1.1,1.101-1.571      c-0.697,0.202-1.302,0.612-1.815,1.138c-0.091,0.094-0.266-0.009-0.241-0.131c0.077-0.406,0.147-0.813,0.22-1.22      c-0.217,0.585-0.36,1.213-0.422,1.788c-0.01,0.081,0.058,0.127,0.132,0.11c0.102-0.024,0.146-0.097,0.207-0.181      c0.213-0.292,0.512-0.414,0.835-0.545c0.041-0.016,0.082-0.03,0.123-0.046c-0.094,0.147-0.184,0.296-0.261,0.445      c-0.175,0.345-0.399,0.701-0.508,1.071c-0.027,0.088,0.081,0.161,0.158,0.13c0.357-0.133,0.632-0.219,1.022-0.186      c0.318,0.026,0.63,0.105,0.937,0.191c0.625,0.175,1.163,0.426,1.716,0.755C14.777,46.879,14.929,45.354,15.006,44.345z" style="fill:#D2D2D2;"/>
				<path d="M42.902,20.767c-0.086-0.406-0.212-0.799-0.378-1.173c0.578,1.899,0.231,4.175-0.905,5.769      c-1.26,1.765-3.469,2.477-5.588,2.079c-1.01-0.19-2.021-0.547-2.954-0.989c1.528,2.253,2.363,5.148,2.163,7.708      c0.866,0.166,1.626,0.55,1.824,1.301c0.02,0.072-0.049,0.164-0.124,0.169c-0.311,0.019-0.612,0.026-0.912,0.037      c1.29,0.273,2.489,0.94,3.098,2.083c0.043,0.081-0.019,0.2-0.113,0.207c-2.349,0.201-4.695,1.49-6.245,3.25      c-0.087,0.098-0.304,0.056-0.268-0.103c0.038-0.168,0.09-0.324,0.156-0.471c-1.69,1.076-3.207,2.292-4.052,4.209      c-0.077,0.177-0.333,0.074-0.275-0.107c0.368-1.189,0.719-2.482,0.559-3.74c-0.165-1.274-0.736-2.353-1.486-3.379      c-0.044-0.06-0.05-0.163,0.021-0.209c0.707-0.462,1.487-0.743,2.233-1.127c0.754-0.389,1.281-0.892,1.624-1.6      c-1.552,1.269-4.314,2.667-5.836,1.214c0.662,2.879,1.989,6.523-0.313,8.922c-0.951,0.99-2.446,1.838-3.865,1.748      c-1.301-0.083-1.783-0.955-2.495-1.775c-0.021,0.752-0.077,1.59-0.475,2.176c-0.41,0.607-1.434,0.919-2.141,0.858      c-0.262-0.022-0.468-0.11-0.632-0.242c-0.006,0.146,0.016,1.094,1.449,1.266c1.927,0.229,1.535-0.482,1.967-0.278      c1.786,0.846,2.08,2.571,3.763,3.474c1.597,0.857,3.678-0.015,5.013-1c0.656-0.485,1.259-1.066,1.736-1.726      c0.447-0.62,0.574-1.385,0.963-2.003c1.877-2.989,4.891-5.278,7.484-7.62c0.727-0.653,1.663-1.587,2.698-1.66      c0.567-0.04-0.46-1.151-0.552-1.268c-0.209-0.264-0.457-0.449-0.739-0.604c0.04-0.006,0.077-0.013,0.119-0.018      c0.499-0.066,0.988,0.062,1.477,0.021c0.061-0.004,0.106-0.07,0.083-0.127c-0.231-0.568-1.239-0.933-1.753-1.139      c-0.389-0.156-0.764-0.287-1.182-0.351c-0.15-0.023-0.305-0.028-0.459-0.028c0.032-1.431-0.274-2.927-0.692-4.275      c-0.237-0.764-0.521-1.57-0.929-2.262c-0.07-0.117-0.152-0.231-0.235-0.342c0.413,0.135,0.842,0.222,1.258,0.263      c0.575,0.057,1.077-0.005,1.621-0.194c0.591-0.206,1.188-0.36,1.743-0.658c0.487-0.259,0.894-0.575,1.246-0.997      C42.888,24.528,43.281,22.539,42.902,20.767z" style="fill:#D2D2D2;"/>
				<path d="M12.724,28.464c0.123-0.415,0.282-0.82,0.482-1.213c-1.854,1.197-4.286,1.731-6.28,0.98      c-1.45-0.548-2.366-2.01-2.522-3.528c-0.051-0.512-0.018-1.004,0.064-1.487c-0.451,1.251-0.409,2.624,0.414,3.813      c0.57,0.82,1.759,1.761,2.715,2.07c1.111,0.357,2.304,0.31,3.411-0.006c0.59-0.169,1.123-0.437,1.705-0.616      C12.717,28.472,12.72,28.468,12.724,28.464z" style="fill:#D2D2D2;"/>
				<path d="M20.36,35.261c-0.223,0.053-0.416,0.1-0.628-0.002c-0.486-0.235-0.686-1.137-0.81-1.602      c-0.305-1.146-0.64-2.199-1.88-2.628c-0.598-0.208-1.273-0.239-1.808,0.159c-1.048,0.785-1.421,2.278-1.55,3.517      c-0.125,1.204-0.13,2.588,0.434,3.696c0.006,0.012,0.008,0.023,0.011,0.037c0.124,0.193,0.273,0.365,0.464,0.48      c0.312,0.188,0.838,0.57,1.163,0.115c0.102-0.144,0.191-0.293,0.29-0.439c0.432-0.642,1.002-1.179,1.658-1.589      c1.304-0.816,2.783-1.283,4.123-2.022C21.333,34.98,20.826,35.155,20.36,35.261z" style="fill:#D2D2D2;"/>
				
					<linearGradient gradientTransform="matrix(1 0.002 -0.002 1 112.9657 -321.6792)" y2="354.5181" x2="-80.9544" y1="354.5181" x1="-86.7643" gradientUnits="userSpaceOnUse" id="SVGID_00000010282211403050141340000001748324524348579512_">
					<stop style="stop-color:#FFFFFF" offset="0"/>
					<stop style="stop-color:#EAEAEA" offset="0.8358"/>
					<stop style="stop-color:#E5E5E5" offset="1"/>
				</linearGradient>
				<path d="M31.208,32.187      c0.355,2.072-0.3,3.89-2.179,4.234c-1.556,0.284-3.109-1.197-3.464-3.269c-0.355-2.072,0.62-3.968,2.18-4.234      C29.302,28.651,30.854,30.115,31.208,32.187z" style="fill:url(#SVGID_00000010282211403050141340000001748324524348579512_);"/>
				
					<linearGradient gradientTransform="matrix(1 0.002 -0.002 1 112.9657 -321.6792)" y2="356.6838" x2="-93.464" y1="356.6838" x1="-98.1536" gradientUnits="userSpaceOnUse" id="SVGID_00000034080849754436059010000000816781087946402974_">
					<stop style="stop-color:#FFFFFF" offset="0"/>
					<stop style="stop-color:#EAEAEA" offset="0.8358"/>
					<stop style="stop-color:#E5E5E5" offset="1"/>
				</linearGradient>
				<path d="M17.034,37.874      c0.535-0.537,1.077-1.046,1.642-1.549c0.096-0.511,0.136-1.065,0.097-1.637c-0.146-2.193-1.31-3.901-2.597-3.815      c-1.284,0.086-2.209,1.934-2.062,4.128c0.136,2.014,0.489,3.462,2.137,3.756C16.479,38.438,16.755,38.154,17.034,37.874z" style="fill:url(#SVGID_00000034080849754436059010000000816781087946402974_);"/>
				<path d="M26.024,27.152c-0.233-0.233-0.466-0.604-0.829-0.529c-0.363,0.076-0.548,0.226-0.782,0.525      c-0.444,0.571-0.651,1.238-0.711,1.931c-0.066,0.306-0.079,0.621-0.011,0.945c0.019,0.084,0.109,0.118,0.174,0.052      c0.105-0.112,0.156-0.267,0.244-0.396c0.118-0.172,0.313-0.292,0.447-0.454c0.181-0.217,0.474-0.339,0.703-0.498      c0.252-0.175,0.508-0.296,0.8-0.382C26.792,28.134,26.394,27.521,26.024,27.152z" style="fill:#D28000;"/>
				<path d="M18.615,30.769c-0.085-0.281-0.131-0.572-0.215-0.855c-0.095-0.321-0.27-0.607-0.401-0.916      c-0.234-0.545-0.526-1.046-0.995-1.413c-0.027-0.021-0.054-0.003-0.065,0.022c-0.208-0.108-0.528-0.007-0.698,0.182      c-0.11,0.124-0.176,0.26-0.206,0.397c-0.151,0.316-0.254,0.643-0.137,1c0.112,0.339,0.773,0.415,1.041,0.542      c0.276,0.131,0.524,0.33,0.797,0.474c0.326,0.174,0.471,0.443,0.736,0.669C18.543,30.932,18.638,30.851,18.615,30.769z" style="fill:#D28000;"/>
				<g>
					
						<linearGradient gradientTransform="matrix(0.8101 -0.4158 0.2175 0.7757 425.8442 -78.8428)" y2="-103.3847" x2="-459.8451" y1="-103.3847" x1="-464.1102" gradientUnits="userSpaceOnUse" id="SVGID_00000161623772347638677380000008488433885070313865_">
						<stop style="stop-color:#8C481C" offset="0"/>
						<stop style="stop-color:#603216" offset="0.2863"/>
						<stop style="stop-color:#1B0E0E" offset="0.7725"/>
						<stop style="stop-color:#00000A" offset="1"/>
					</linearGradient>
					<path d="M30.823,32.118       c0.488,1.587,0.113,3.29-0.834,3.807c-0.946,0.517-2.106-0.353-2.592-1.939c-0.486-1.585-0.112-3.289,0.834-3.806       C29.178,29.664,30.338,30.532,30.823,32.118z" style="fill:url(#SVGID_00000161623772347638677380000008488433885070313865_);"/>
					
						<radialGradient gradientUnits="userSpaceOnUse" gradientTransform="matrix(0.8284 -0.6201 0.4081 0.767 200.9361 -385.333)" r="5.3576" cy="268.707" cx="-339.2328" id="SVGID_00000016064822984286518460000007670213881696068521_">
						<stop style="stop-color:#215673" offset="0.2679"/>
						<stop style="stop-color:#1F526F" offset="0.4726"/>
						<stop style="stop-color:#194862" offset="0.6939"/>
						<stop style="stop-color:#0F364C" offset="0.9223"/>
						<stop style="stop-color:#0B2E43" offset="1"/>
					</radialGradient>
					<path d="M30.299,32.47       c0.324,1.054,0.073,2.186-0.553,2.525c-0.631,0.344-1.399-0.231-1.723-1.285c-0.323-1.055-0.074-2.187,0.553-2.529       C29.206,30.841,29.975,31.416,30.299,32.47z" style="fill:url(#SVGID_00000016064822984286518460000007670213881696068521_);"/>
					
						<linearGradient gradientTransform="matrix(0.8276 -0.5616 0.5616 0.8276 610.4076 -108.4211)" y2="-209.9368" x2="-560.5078" y1="-210.157" x1="-557.7328" gradientUnits="userSpaceOnUse" id="SVGID_00000069400124275665337790000017516237532794808461_">
						<stop style="stop-color:#FFFFFF" offset="0"/>
						<stop style="stop-color:#EAEAEA" offset="0.8358"/>
						<stop style="stop-color:#E5E5E5" offset="1"/>
					</linearGradient>
					<path d="M30.135,31.322       c0.291,0.577,0.28,1.287-0.028,1.58c-0.307,0.298-0.793,0.07-1.085-0.506c-0.296-0.577-0.282-1.285,0.025-1.58       C29.354,30.517,29.841,30.746,30.135,31.322z" style="fill:url(#SVGID_00000069400124275665337790000017516237532794808461_);"/>
				</g>
				<g>
					
						<linearGradient gradientTransform="matrix(0.8101 -0.4158 0.2175 0.7757 425.8442 -78.8428)" y2="-107.964" x2="-473.8302" y1="-107.964" x1="-478.0971" gradientUnits="userSpaceOnUse" id="SVGID_00000049907640909625164840000009848007471344135823_">
						<stop style="stop-color:#8C481C" offset="0"/>
						<stop style="stop-color:#603216" offset="0.2863"/>
						<stop style="stop-color:#1B0E0E" offset="0.7725"/>
						<stop style="stop-color:#00000A" offset="1"/>
					</linearGradient>
					<path d="M16.654,38.453       c0.209-0.262,0.426-0.519,0.652-0.767c0.449-0.494,0.879-1.054,1.457-1.392c0.034-0.539-0.029-1.122-0.203-1.691       c-0.485-1.586-1.647-2.455-2.594-1.939c-0.945,0.517-1.32,2.223-0.834,3.807C15.443,37.481,16.027,38.198,16.654,38.453z" style="fill:url(#SVGID_00000049907640909625164840000009848007471344135823_);"/>
					
						<radialGradient gradientUnits="userSpaceOnUse" gradientTransform="matrix(0.8284 -0.6201 0.4081 0.767 200.9359 -385.333)" r="5.3576" cy="262.4648" cx="-350.9619" id="SVGID_00000098193968916746691660000009488001555566208655_">
						<stop style="stop-color:#215673" offset="0.2679"/>
						<stop style="stop-color:#1F526F" offset="0.4726"/>
						<stop style="stop-color:#194862" offset="0.6939"/>
						<stop style="stop-color:#0F364C" offset="0.9223"/>
						<stop style="stop-color:#0B2E43" offset="1"/>
					</radialGradient>
					<path d="M17.482,37.481       c0.007-0.004,0.012-0.007,0.018-0.011c0.144-0.163,0.286-0.328,0.434-0.486c0.27-0.516,0.329-1.289,0.102-2.027       c-0.325-1.056-1.093-1.63-1.724-1.289c-0.627,0.343-0.876,1.475-0.552,2.528C16.081,37.248,16.853,37.824,17.482,37.481z" style="fill:url(#SVGID_00000098193968916746691660000009488001555566208655_);"/>
					
						<linearGradient gradientTransform="matrix(0.8276 -0.5616 0.5616 0.8276 610.4076 -108.4211)" y2="-214.7655" x2="-572.0508" y1="-214.9858" x1="-569.2733" gradientUnits="userSpaceOnUse" id="SVGID_00000143589621651190194560000006354191247101254033_">
						<stop style="stop-color:#FFFFFF" offset="0"/>
						<stop style="stop-color:#EAEAEA" offset="0.8358"/>
						<stop style="stop-color:#E5E5E5" offset="1"/>
					</linearGradient>
					<path d="M17.872,33.807       c0.292,0.576,0.281,1.287-0.029,1.581c-0.305,0.296-0.793,0.07-1.085-0.506c-0.293-0.577-0.28-1.286,0.026-1.581       C17.091,33.002,17.578,33.231,17.872,33.807z" style="fill:url(#SVGID_00000143589621651190194560000006354191247101254033_);"/>
				</g>
				<path d="M16.105,39.34c0.433-0.645,0.867-1.325,1.418-1.88c0.341-0.345,0.729-0.621,1.111-0.905      c0,0,0,0,0-0.001c0.003-0.002,0.006-0.004,0.009-0.006c0.19-0.141,0.375-0.288,0.553-0.442c0.108-0.18,0.202-0.365,0.267-0.563      c-0.017-0.441-0.296-1.361-0.342-1.526c-0.294-1.04-0.869-2.308-1.84-2.881c-0.072-0.05-0.146-0.099-0.225-0.144      c-1.854-1.028-3.08,1.319-2.893,2.875c0.205-0.935,0.427-2.376,1.449-2.781c0.72-0.285,1.439,0.105,1.922,0.632      c0.59,0.639,0.778,1.504,0.89,2.339c0.06,0.441,0.483,1.993,0.065,2.297c-0.564,0.411-1.223,1.233-1.932,1.633      c-0.4,0.289-0.853,0.476-1.354,0.452c-0.276-0.014-0.586-0.063-0.895-0.141c0.178,0.14,0.372,0.269,0.597,0.392      c0.303,0.165,0.744,0.37,1.125,0.321c-0.139,0.196-0.274,0.396-0.404,0.595c-0.367,0.56-0.658,1.262-0.837,1.904      c-0.087,0.31-0.137,0.607-0.146,0.928c-0.004,0.169,0.027,0.327,0.066,0.485c0.027-0.019,0.053-0.035,0.077-0.053      C14.757,41.618,15.436,40.334,16.105,39.34z" style="fill:#563600;"/>
				<path d="M30.695,30.229c-0.346-0.917-1.484-1.649-2.161-1.794c-0.513-0.109-0.967-0.066-1.46,0.114      c-1.966,0.715-2.589,3.531-2.426,5.354c0.072,0.778,0.234,1.729,0.748,2.349c0.862,1.042,1.504,2.247,1.956,3.519      c0.474,1.334,0.09,2.901-0.487,4.129c-0.06,0.126-0.121,0.257-0.187,0.389c-0.021,0.16-0.044,0.319-0.074,0.478      c0.765-0.637,1.246-1.508,1.55-2.448c0.292-1.251,0.03-2.756-0.608-3.814c-0.184-0.3-0.382-0.588-0.556-0.896      c-0.099-0.171-0.194-0.342-0.292-0.514c-0.367-0.65,0.394-0.513,0.597-0.491c0.838,0.091,1.729,0.1,2.533-0.184      c0.039-0.014,0.074-0.03,0.111-0.044c-0.695,0.112-1.395,0.079-1.969-0.165c-0.095-0.025-0.189-0.05-0.281-0.082      c-2.434-0.797-2.612-5.231-0.639-6.546c0.785-0.526,1.568-0.585,2.411-0.207c0.519,0.233,0.991,0.976,1.188,1.045      C30.806,30.479,30.739,30.349,30.695,30.229z" style="fill:#563600;"/>
				<path d="M15.093,42.47c0,0-1.143,0.531-0.756,1.397c0.387,0.866,1.612,1.799,3.667,1.475      c2.053-0.324,4.028-2.115,3.433-3.174C20.425,40.373,15.093,42.47,15.093,42.47z" style="fill:#2E1C00;"/>
			</g>
			<path d="M16.16,39.996c0.381-0.504,0.762-1.01,1.181-1.483c0.229-0.292,0.479-0.572,0.754-0.833     c0.096-0.092,0.196-0.178,0.298-0.262c0.292-0.278,0.597-0.54,0.938-0.757c0.418-0.269,1.35-0.652,1.723-1.126     c-2.508,0.997-4.345,2.702-5.424,5.161C15.798,40.46,15.983,40.231,16.16,39.996z" style="fill:#E74315;"/>
			<path d="M14.615,43.407c-0.227,0.805,0.564,1.284,1.237,1.479c0.035,0.012,0.08-0.028,0.107-0.076     C15.34,44.6,14.805,44.031,14.615,43.407z" style="fill:#FFF9C7;"/>
			<path d="M10.228,19.819c-2.396-0.529-4.813,1.296-5.551,3.494c-0.037,0.115,0.071,0.083,0.107,0.007     c0.516-1.09,1.256-1.941,2.311-2.531c0.94-0.524,1.989-0.598,3.034-0.716C10.217,20.063,10.359,19.848,10.228,19.819z" style="fill:#FABB69;"/>
		</g>
	</g>
	</svg>