<svg xml:space="preserve" style="max-height: 500px" viewBox="275.16576749435666 131.338194 113.22394695259594 93.426138" y="0px" x="0px" id="Layer_1" version="1.1" xmlns="http://www.w3.org/2000/svg" width="113.22394695259594" height="93.426138"><g>
		<g>
			
				<linearGradient y2="149.7636" x2="384.1284" y1="149.7636" x1="369.6338" gradientUnits="userSpaceOnUse" id="SVGID_00000070819074043445377250000016090057582040068274_">
				<stop style="stop-color:#FFDBCB" offset="0"/>
				<stop style="stop-color:#FFE3D3" offset="0.3719"/>
				<stop style="stop-color:#FFF9E8" offset="0.9458"/>
				<stop style="stop-color:#FFFBEA" offset="1"/>
			</linearGradient>
			<path d="M372.71,152.59     c0,0,2.245-0.756,5.349,0.201c3.104,0.96,5.981,2.499,5.677,1.541c-0.302-0.96-4.996-5.122-10.168-4.618     c0,0,3.53-0.63,7.113,0.201c3.583,0.833,4.694,0.405,1.792-1.209c-2.9-1.616-8.122-1.792-10.067-1.389     c0,0,2.778-0.972,7.369-0.185c4.593,0.791,2.638-0.588,0.404-1.479c-2.524-1.01-9.611-1.06-10.545,0.125     C369.634,145.778,372.28,147.696,372.71,152.59z" style="fill:url(#SVGID_00000070819074043445377250000016090057582040068274_);"/>
			
				<linearGradient y2="148.3945" x2="329.0919" y1="220.5702" x1="329.2194" gradientUnits="userSpaceOnUse" id="SVGID_00000168817991352666190210000018103073595836188314_">
				<stop style="stop-color:#493F3E" offset="0"/>
				<stop style="stop-color:#6D5D5D" offset="0.4138"/>
				<stop style="stop-color:#6F5F5F" offset="0.4345"/>
				<stop style="stop-color:#756465" offset="0.5491"/>
				<stop style="stop-color:#826F71" offset="0.8571"/>
			</linearGradient>
			<path d="M376.214,206.999     c-0.584-1.253-0.497-2.789-0.376-4.143c0.121-1.344,0.311-2.634,0.542-3.961c0.471-2.719,0.808-5.466,1.145-8.205     c0.314-2.592,0.377-5.565-0.199-8.122c-0.129-0.569-0.437-1.165-0.855-1.674c0.327-0.143,0.685-0.214,1.076-0.265     c0.105-0.013,0.167-0.084,0.195-0.184c0.114-0.39-0.491-0.581-0.758-0.678c-0.304-0.112-0.587-0.223-0.867-0.312     c0.268-0.25,0.506-0.525,0.644-0.878c0.057-0.145,0.007-0.35-0.155-0.406c-3.037-1.055-6.626-0.963-9.767-0.451     c-3.618,0.588-7.063,1.709-10.33,3.366c-1.02,0.515-1.991,1.132-2.908,1.829c-0.732-1.165-1.52-2.279-2.441-3.299     c-0.15-0.166-0.305-0.325-0.462-0.478c0.982-1.156,1.732-2.589,2.338-3.81c0.392-0.785,0.673-1.602,0.882-2.432     c0.056,0.438,0.08,0.876,0.08,1.315c0,0.164-0.019,0.234,0.095,0.35c0.041,0.04,0.109,0.031,0.155,0.002     c0.565-0.332,0.889-1.366,1.146-1.936c0.42-0.937,0.679-1.895,0.842-2.903c0.04-0.233,0.076-0.472,0.107-0.705     c0.011,0.034,0.022,0.07,0.032,0.105c0.07,0.248-0.008,0.784,0.245,0.969c0.046,0.033,0.113,0.04,0.159,0.005     c0.655-0.517,1.01-1.426,1.346-2.161c0.445-0.974,0.805-1.984,1.088-3.016c0.196-0.71,0.349-1.434,0.446-2.16     c0.001,0.078,0.004,0.158,0.004,0.237c0.004,0.246-0.043,0.728,0.259,0.813c0.053,0.014,0.113-0.016,0.146-0.055     c0.346-0.432,0.525-1.02,0.742-1.523c0.278-0.643,0.58-1.284,0.881-1.919c0.605-1.292,1.377-2.518,2.305-3.604     c0.976-1.145,2.155-2.131,3.567-2.691c0.71-0.282,1.459-0.422,2.22-0.509c0.746-0.083,1.465,0.076,2.206,0.09     c0.1,0,0.15-0.113,0.125-0.193c-0.058-0.186-0.172-0.35-0.328-0.494c0.03-0.002,0.058-0.003,0.083-0.005     c0.482-0.021,0.92,0.073,1.391,0.112c0.082,0.007,0.221-0.044,0.25-0.129c0.143-0.447-0.321-0.753-0.642-0.978     c-0.107-0.073-0.22-0.145-0.332-0.21c0.348,0.04,0.735,0.021,0.936-0.028c0.355-0.089,1.096-0.552,0.912-1.04     c-0.112-0.309-0.392-0.629-0.688-0.918c0.175-0.334,0.1-0.771,0.002-1.125c-0.342-1.27-1.831-2.377-2.955-2.9     c-1.472-0.686-3.275-0.74-4.862-0.606c-1.681,0.143-3.256,0.665-4.793,1.334c-1.621,0.701-3.188,1.516-4.643,2.52     c-1.473,1.013-2.685,2.298-4.023,3.472c-1.184,1.041-2.245,2.199-3.225,3.433c0.032-0.19,0.07-0.374,0.094-0.52     c0.054-0.351,0.165-0.692,0.275-1.028c0.046-0.142-0.096-0.278-0.232-0.187c-1.059,0.722-1.909,1.896-2.551,2.988     c-0.344,0.582-0.67,1.169-1.037,1.737c0.071-0.414,0.086-0.845,0.024-1.304c-0.008-0.072-0.117-0.078-0.129-0.004     c-0.003,0.013-0.003,0.021-0.005,0.034c-0.008,0.001-0.012,0-0.016,0.005c-1.361,1.014-2.28,2.696-3.146,4.126     c-1.044,1.725-1.834,3.585-2.866,5.314c-1.06,1.774-2.477,3.477-4.173,4.676c-0.819,0.58-1.816,0.963-2.778,1.238     c-0.255,0.071-0.53,0.133-0.813,0.181c0.328-1.049,0.483-2.148,0.445-3.212c-0.047-1.366-0.63-2.817-1.259-4.011     c-0.191-0.362-0.425-0.694-0.682-1.004c0.091,0.038,0.179,0.078,0.27,0.123c0.358,0.181,0.634,0.475,0.982,0.662     c0.069,0.035,0.13-0.044,0.113-0.106c-0.434-1.534-1.175-2.985-2.086-4.29c-0.638-0.915-1.381-1.597-2.276-2.079     c0.246,0.027,0.492,0.081,0.738,0.173c0.43,0.16,0.887,0.575,1.346,0.621c0.091,0.008,0.161-0.031,0.204-0.11     c0.212-0.4-0.613-1.23-0.817-1.487c-0.762-0.967-1.707-1.912-2.716-2.613c-0.954-0.665-2.047-1.162-3.083-1.688     c-1.214-0.619-2.441-0.988-3.735-1.382c-2.261-0.688-4.745-0.905-7.091-0.628c-1.112,0.132-2.196,0.438-3.178,0.984     c-0.379,0.209-0.797,0.427-1.189,0.676c0.03-0.531,0.184-1.086,0.377-1.504c0.031-0.066,0-0.166-0.073-0.191     c-0.731-0.242-1.504,0.839-1.835,1.346c-0.193,0.298-0.326,0.651-0.389,1.018c-0.821-0.901-2.033-1.52-3.146-1.223     c-0.054,0.016-0.094,0.07-0.104,0.125c-0.05,0.289,0.445,0.551,0.602,0.73c0.214,0.247,0.373,0.515,0.511,0.795     c-0.116,0.005-0.229,0.01-0.339,0.009c-0.967-0.015-1.945,0.006-2.893,0.224c-1.898,0.437-3.684,1.124-5.361,2.114     c-1.591,0.934-3.077,2.246-4.246,3.667c-1.116,1.353-2.311,2.782-2.558,4.584c-0.02,0.137,0.12,0.27,0.254,0.211     c0.264-0.111,0.463-0.323,0.702-0.474c0.412-0.251,0.904-0.411,1.361-0.552c0.072-0.025,0.15-0.039,0.222-0.057     c-0.031,0.031-0.066,0.063-0.104,0.098c-0.585,0.541-1.131,1.15-1.571,1.818c-0.438,0.67-0.805,1.39-1.133,2.119     c-0.155,0.35-0.273,0.711-0.369,1.08c-0.062,0.253-0.05,0.733-0.198,0.94c-0.105,0.146,0.081,0.379,0.232,0.245     c0.638-0.57,1.135-1.093,1.893-1.443c-0.268,0.461-0.477,0.96-0.624,1.465c-0.232,0.793-0.322,1.628-0.4,2.447     c-0.067,0.724-0.147,1.571-0.018,2.287c0.021,0.126,0.153,0.193,0.263,0.12c0.216-0.139,0.389-0.364,0.571-0.563     c-0.141,0.32-0.234,0.68-0.309,1.083c-0.084,0.461-0.075,0.945,0.046,1.394c-0.666,0.498-1.296,1.07-1.824,1.695     c-0.38,0.452-0.663,0.982-0.904,1.526c0.005-0.116,0.012-0.233,0.02-0.351c0.021-0.298,0.179-0.761,0.12-1.057     c-0.021-0.107-0.146-0.189-0.245-0.111c-0.717,0.566-1.158,1.455-1.63,2.223c-0.52,0.848-0.896,1.732-1.212,2.671     c-0.458,1.363-0.955,2.724-1.204,4.132c-0.053-0.262-0.105-0.517-0.184-0.755c-0.083-0.254-0.363-0.479-0.532-0.124     c-0.765,1.612-0.997,3.508-1.101,5.265c-0.033,0.555-0.059,1.105-0.076,1.657c-0.199,0.641-0.337,1.31-0.36,2.056     c-0.067,2.182,0.343,4.231,0.803,6.347c0.495,2.288,1.543,4.928,3.103,7.019c0.747,1.188,1.585,2.174,2.927,2.787     c0.093,0.04,0.187,0.074,0.279,0.111c3.522,1.923,7.592,1.653,10.726-0.903c0.682-0.554,1.298-1.212,1.853-1.936     c-0.071,0.395-0.134,0.901,0.072,0.993c0.404,0.182,1.073-0.496,1.357-0.681c0.816-0.533,1.624-1.068,2.366-1.703     c1.115-0.95,2.062-2.093,2.889-3.333c-0.081,0.742-0.151,1.449,0.145,2.232c0.478,1.261,1.746,2.226,2.725,3.086     c0.463,0.406,0.985,0.783,1.528,1.077c0.759,0.415,1.383,0.986,2.123,1.415c1.269,0.735,2.861,1.076,4.236,1.597     c2.9,1.091,5.959,1.578,8.963,2.305c6.268,1.517,13.447,1.658,19.608-0.392c2.379-0.79,5.232-1.971,7.491-3.698     c0.184,0.281,0.346,0.594,0.487,0.973c0.43,1.169,0.085,2.292-0.078,3.463c-0.185,1.326,0.294,2.786,1.404,3.592     c0.215,0.153,0.541,0.009,0.512-0.275c-0.092-0.859-0.038-1.584,0.228-2.207c0.552,1.618,2.626,2.59,4.621,2.498     c1.913-0.087,4.034-1.509,5.671-2.42c0.784-0.44,1.543-0.94,2.276-1.478c1.35,0.376,2.961-0.01,4.349-0.295     c1.922-0.397,4.327-1.401,5.293-3.215C379.103,211.407,377.011,208.705,376.214,206.999z M295.046,194.002     c0,0-1.133-1.571-1.392-3.792c-0.255-2.222-0.152-3.287-0.152-3.287s1.089,0.179,1.544,0.355     c0.454,0.178,2.074,0.485,2.074,0.485s0.668,1.256,0.83,2.003C297.95,189.766,295.146,192.686,295.046,194.002z M364.992,207.261     c-0.238,0.241-0.671,0.128-0.967,0.082c-0.375-0.063-0.47-0.27-0.604-0.609c-0.155-0.387-0.315-0.766-0.501-1.138     c-0.041-0.08-0.115-0.197-0.087-0.294c0.046-0.155,0.145-0.246,0.242-0.371c0.262-0.337,0.458-0.705,0.665-1.074     c0.358-0.634,0.668-1.293,1.005-1.935c0-0.009,0-0.018,0.004-0.026c0.004-0.112,0.125-0.145,0.2-0.102     c0.046,0.008,0.084,0.034,0.092,0.085c0.108,0.693,0.126,1.457,0.138,2.159c0.012,0.721-0.088,1.443-0.074,2.158     C365.11,206.477,365.228,207.027,364.992,207.261z" style="fill:url(#SVGID_00000168817991352666190210000018103073595836188314_);"/>
			
				<linearGradient y2="148.391" x2="332.0625" y1="220.5681" x1="332.19" gradientUnits="userSpaceOnUse" id="SVGID_00000029735232932844129370000003954811634816648592_">
				<stop style="stop-color:#493F3E" offset="0"/>
				<stop style="stop-color:#6D5D5D" offset="0.4138"/>
				<stop style="stop-color:#6F5F5F" offset="0.4345"/>
				<stop style="stop-color:#756465" offset="0.5491"/>
				<stop style="stop-color:#826F71" offset="0.8571"/>
			</linearGradient>
			<path d="M377.434,209.278     c0.341,1.611,0.338,3.24-0.817,4.489c-0.808,0.872-2.079,1.426-3.223,0.826c-1.256-0.658-1.754-2.081-2.001-3.398     c-0.311-1.662-0.433-3.328-1.238-4.855c-0.807-1.522-2.107-2.797-2.673-4.441c-0.572-1.662-0.719-3.493-0.795-5.239     c-0.048-1.068-0.033-2.131,0.109-3.194c0.098-0.733,0.348-1.483,0.357-2.227c-0.22,0.063-0.445,0.079-0.67,0.134     c-0.094,0.022-0.18-0.061-0.157-0.158c0.59-2.299,2.579-3.773,3.501-5.896c-1.139-0.003-2.238,0.259-3.344,0.508     c-0.086,0.02-0.194-0.061-0.157-0.156c0.241-0.653,0.642-1.211,0.999-1.799c-1.517,0.488-2.825,1.749-3.861,2.898     c-1.151,1.28-1.755,2.931-2.852,4.251c-0.066,0.077-0.191,0.029-0.216-0.056c-0.275-0.99-0.188-2.048-0.584-3     c-0.519,0.973-0.744,2.069-1.286,3.031c-0.043,0.076-0.18,0.087-0.222,0c-0.761-1.692-1.37-3.461-2.255-5.095     c-0.445-0.825-0.94-1.565-1.587-2.245c-0.261-0.27-0.517-0.536-0.747-0.821c-0.02,0.014-0.04,0.028-0.061,0.043     c0.308,0.649,0.647,1.282,0.931,1.94c0.388,0.887,0.732,1.787,1.041,2.701c0.546,1.619,1.022,3.232,1.397,4.899     c0.75,3.337,1.457,6.924,4.206,9.239c0.119,0.102-0.035,0.254-0.157,0.2c-0.52-0.233-1.016-0.5-1.487-0.796     c0.479,0.517,1.058,0.921,1.72,1.256c0.43,0.215,0.851,0.406,1.313,0.548c0.279,0.085,0.518,0.18,0.737,0.376     c0.072,0.065,0.031,0.187-0.058,0.214c-0.788,0.231-1.696,0.163-2.535,0.021c0.403,0.247,0.819,0.477,1.188,0.775     c0.335,0.27,0.636,0.576,0.91,0.905c0.191-0.584,0.652-1.01,0.9-1.572c0.3-0.691,0.638-1.361,1.02-2.009     c0.056-0.097,0.2-0.073,0.232,0.03c0.252,0.805,0.273,1.642,0.261,2.477c-0.013,0.797,0.052,1.567,0.081,2.359     c0.011,0.324,0.016,0.785-0.36,0.894c-0.267,0.078-0.492,0.064-0.751,0.067c0.155,0.145,0.347,0.276,0.59,0.395     c0.708,0.342,1.463,0.676,1.936,1.336c0.983,1.371,1.237,3.256,0.523,4.805c-1.106,2.39-3.802,3.919-6.368,4.141     c-1.589,0.139-2.944-0.416-3.398-2.04c-0.465-1.659-0.252-3.428-0.449-5.123c-0.098-0.838-0.271-1.739-0.775-2.44     c-0.263-0.366-0.603-0.68-1.009-0.88c-0.046-0.024-0.311-0.11-0.259-0.159c-0.049,0.048-0.037,0.508-0.046,0.588     c-0.05,0.379-0.157,0.746-0.274,1.11c-0.029,0.096-0.183,0.137-0.233,0.03c-0.518-1.102-0.627-2.334-1.059-3.463     c-1.003-0.801-1.995-1.606-2.875-2.539c-1.695-1.784-3.066-3.993-4.134-6.199c-0.999-2.065-1.707-4.3-1.483-6.607     c-0.752,0.7-1.383,1.506-1.959,2.358c-0.065,0.096-0.247,0.07-0.238-0.064c0.144-2.072,0.727-4.114,1.701-5.949     c-1.003,0.638-1.983,1.309-3.039,1.852c-0.079,0.04-0.205-0.008-0.192-0.111c0.049-0.39,0.058-0.779,0.063-1.173     c-4.663,3.768-5.121,9.771-5.674,15.328c-0.011,0.119-0.169,0.184-0.239,0.063c-0.429-0.745-0.612-1.572-0.863-2.382     c-0.629,1.547-0.592,3.295-1.338,4.806c-0.033,0.07-0.153,0.091-0.2,0.027c-1.563-2.012-1.657-4.839-1.358-7.267     c0.354-2.894,1.158-5.821,2.333-8.489c1.25-2.841,3.038-5.623,5.291-7.776c1.131-1.082,2.387-2.065,3.616-3.043     c1.18-0.939,2.4-1.831,3.788-2.444c0.13-0.057,0.254,0.087,0.153,0.201c-0.303,0.344-0.635,0.666-0.87,1.054     c0.747-0.427,1.521-0.794,2.339-1.077c0.133-0.045,0.2,0.126,0.124,0.215c-0.3,0.364-0.561,0.755-0.816,1.15     c1.185-0.279,2.337,0.435,3.366,1.232c0.872-1.102,1.559-2.407,2.118-3.535c0.392-0.785,0.673-1.602,0.882-2.432     c0.056,0.438,0.08,0.876,0.08,1.315c0,0.164-0.019,0.234,0.095,0.35c0.041,0.04,0.109,0.031,0.155,0.002     c0.565-0.332,0.889-1.366,1.146-1.936c0.42-0.937,0.679-1.895,0.842-2.903c0.04-0.233,0.076-0.472,0.107-0.705     c0.011,0.034,0.022,0.07,0.032,0.105c0.07,0.248-0.008,0.784,0.245,0.969c0.046,0.033,0.113,0.04,0.159,0.005     c0.655-0.517,1.01-1.426,1.346-2.161c0.445-0.974,0.805-1.984,1.088-3.016c0.196-0.71,0.349-1.434,0.446-2.16     c0.001,0.078,0.004,0.158,0.004,0.237c0.004,0.246-0.043,0.728,0.259,0.813c0.053,0.014,0.113-0.016,0.146-0.055     c0.346-0.432,0.525-1.02,0.742-1.523c0.278-0.643,0.58-1.284,0.881-1.919c0.605-1.292,1.377-2.518,2.305-3.604     c0.976-1.145,2.155-2.131,3.567-2.691c0.71-0.282,1.459-0.422,2.22-0.509c0.746-0.083,1.465,0.076,2.206,0.09     c0.1,0,0.15-0.113,0.125-0.193c-0.058-0.186-0.172-0.35-0.328-0.494c0.03-0.002,0.058-0.003,0.083-0.005     c0.482-0.021,0.92,0.073,1.391,0.112c0.082,0.007,0.221-0.044,0.25-0.129c0.143-0.447-0.321-0.753-0.642-0.978     c-0.107-0.073-0.22-0.145-0.332-0.21c0.348,0.04,0.735,0.021,0.936-0.028c0.355-0.089,1.096-0.552,0.912-1.04     c-0.112-0.309-0.392-0.629-0.688-0.918c0.175-0.334,0.1-0.771,0.002-1.125c-0.342-1.27-1.831-2.377-2.955-2.9     c-0.446-0.209-0.923-0.356-1.416-0.463c0.027,0.011,0.051,0.02,0.073,0.032c1.055,0.458,2.188,1.057,2.771,2.094     c0.049,0.086-0.012,0.191-0.111,0.194c-0.619,0.006-1.223,0.081-1.817,0.255c0.939,0.593,1.767,1.311,2.354,2.271     c0.047,0.077-0.013,0.201-0.11,0.191c-1.089-0.097-2.178-0.358-3.264-0.128c0.326,0.416,0.763,0.736,1.146,1.102     c0.096,0.095-0.007,0.235-0.125,0.214c-5.878-1.134-12.274,3.414-13.889,9.034c0.605-0.203,1.181-0.501,1.817-0.61     c0.093-0.016,0.219,0.089,0.142,0.188c-1.704,2.253-2.761,4.904-3.472,7.621c-0.031,0.117-0.17,0.113-0.232,0.029     c-0.384-0.497-0.608-1.076-0.778-1.673c-1.487,2.821-1.751,6.097-3.081,8.984c-0.041,0.085-0.183,0.083-0.223,0     c-0.456-0.972-0.592-2.003-0.676-3.057c-2.863,2.074-5.153,5.057-8.529,6.346c-0.079,0.029-0.166-0.045-0.162-0.124     c0.025-0.766,0.253-1.507,0.321-2.27c-0.983,0.779-2.047,1.453-3.206,1.95c-1.07,0.462-2.203,0.746-3.281,1.179     c-0.634,0.255-1.201,0.562-1.717,0.917c0.298-0.139,0.628-0.205,0.967-0.242c0.715-0.079,1.434-0.208,2.152-0.23     c0.142-0.006,0.175,0.218,0.034,0.25c-0.525,0.115-1.033,0.368-1.321,0.823c0.784-0.013,1.534-0.203,2.347-0.028     c0.637,0.137,1.313,0.297,1.755,0.809c0.05,0.059,0.042,0.149-0.018,0.19c-0.023,0.057-0.075,0.103-0.151,0.092     c-1.078-0.177-2.081,0.661-2.818,1.338c-0.643,0.589-1.279,1.204-1.866,1.844c-1.672,1.814-3.098,3.83-4.305,5.979     c-2.501,4.446-3.093,9.571-4.201,14.469c-0.017,0.09-0.149,0.128-0.213,0.055c-1.284-1.491-1.892-3.428-3.161-4.923     c-0.325,1.238-0.255,2.549-0.706,3.762c-0.025,0.066-0.083,0.105-0.156,0.089c-2.02-0.481-4.276-1.487-5.765-2.97     c-1.368-1.365-2.133-3.24-3.592-4.51c-0.519,1.176-0.365,2.536-0.512,3.786c-0.015,0.119-0.169,0.184-0.24,0.064     c-1.774-3.026-1.36-7.292,0.17-10.33c0.046-0.091,0.174-0.075,0.221,0c0.842,1.282,2.1,2.099,3.678,1.803     c1.406-0.263,2.714-1.003,3.906-1.771c1.35-0.872,2.813-1.956,3.699-3.33c0.736-1.143,0.882-2.564,1.779-3.612     c0.069-0.081,0.18-0.023,0.212,0.056c0.31,0.758,0.396,1.579,0.31,2.386c1.228-1.271,2.311-2.655,3.027-4.286     c0.055-0.124,0.233-0.05,0.238,0.063c0.05,1.078,0.021,2.148-0.144,3.202c0.06-0.119,0.132-0.232,0.192-0.352     c1.034-2.022,1.604-4.217,1.885-6.463c0.012-0.095,0.14-0.189,0.219-0.091c0.283,0.356,0.539,0.734,0.839,1.078     c0.929-1.801,1.862-4.156,1.628-6.272c-0.236,0.082-0.474,0.155-0.707,0.223c-0.255,0.071-0.53,0.133-0.813,0.181     c0.328-1.049,0.483-2.148,0.445-3.212c-0.047-1.366-0.63-2.817-1.259-4.011c-0.191-0.362-0.425-0.694-0.682-1.004     c0.091,0.038,0.179,0.078,0.27,0.123c0.358,0.181,0.634,0.475,0.982,0.662c0.069,0.035,0.13-0.044,0.113-0.106     c-0.434-1.534-1.175-2.985-2.086-4.29c-0.638-0.915-1.381-1.597-2.276-2.079c0.246,0.027,0.492,0.081,0.738,0.173     c0.43,0.16,0.887,0.575,1.346,0.621c0.091,0.008,0.161-0.031,0.204-0.11c0.212-0.4-0.613-1.23-0.817-1.487     c-0.762-0.967-1.707-1.912-2.716-2.613c-0.954-0.665-2.047-1.162-3.083-1.688c-1.214-0.619-2.441-0.988-3.735-1.382     c-2.261-0.688-4.745-0.905-7.091-0.628c-1.112,0.132-2.196,0.438-3.178,0.984c-0.379,0.209-0.797,0.427-1.189,0.676     c0.03-0.531,0.184-1.086,0.377-1.504c0.031-0.066,0-0.166-0.073-0.191c-0.731-0.242-1.504,0.839-1.835,1.346     c-0.193,0.298-0.326,0.651-0.389,1.018c-0.821-0.901-2.033-1.52-3.146-1.223c-0.054,0.016-0.094,0.07-0.104,0.125     c-0.05,0.289,0.445,0.551,0.602,0.73c0.214,0.247,0.373,0.515,0.511,0.795c-0.116,0.005-0.229,0.01-0.339,0.009     c-0.967-0.015-1.945,0.006-2.893,0.224c-1.898,0.437-3.684,1.124-5.361,2.114c-1.591,0.934-3.077,2.246-4.246,3.667     c-1.116,1.353-2.311,2.782-2.558,4.584c-0.02,0.137,0.12,0.27,0.254,0.211c0.264-0.111,0.463-0.323,0.702-0.474     c0.412-0.251,0.904-0.411,1.361-0.552c0.072-0.025,0.15-0.039,0.222-0.057c-0.031,0.031-0.066,0.063-0.104,0.098     c-0.585,0.541-1.131,1.15-1.571,1.818c-0.438,0.67-0.805,1.39-1.133,2.119c-0.155,0.35-0.273,0.711-0.369,1.08     c-0.062,0.253-0.05,0.733-0.198,0.94c-0.105,0.146,0.081,0.379,0.232,0.245c0.638-0.57,1.135-1.093,1.893-1.443     c-0.268,0.461-0.477,0.96-0.624,1.465c-0.232,0.793-0.322,1.628-0.4,2.447c-0.067,0.724-0.147,1.571-0.018,2.287     c0.021,0.126,0.153,0.193,0.263,0.12c0.216-0.139,0.389-0.364,0.571-0.563c-0.141,0.32-0.234,0.68-0.309,1.083     c-0.037,0.204-0.053,0.412-0.051,0.623c0.823-0.52,1.656-1.032,2.547-1.431c0.957-0.428,1.96-0.685,2.96-0.985     c1.647-0.497,3.931-1.289,5.535-0.279c0.064,0.039,0.09,0.146,0.025,0.198c-0.379,0.308-0.784,0.572-1.146,0.899     c0.747,0.092,1.499,0.245,2.167,0.601c0.731,0.388,1.346,0.95,1.92,1.54c0.979,1.011,2.188,2.373,2.067,3.885     c-0.005,0.088-0.072,0.141-0.158,0.125c-1.081-0.223-1.913-0.971-2.909-1.381c0.2,0.798,0.421,1.569,0.391,2.404     c-0.003,0.1-0.103,0.154-0.19,0.111c-1.143-0.574-1.999-1.591-3.154-2.129c0.229,1.405,0.616,2.784,0.408,4.22     c-0.017,0.1-0.15,0.112-0.213,0.056c-1.299-1.151-2.938-1.928-4.707-1.797c-1.624,0.119-3.147,0.86-4.381,1.908     c-2.486,2.105-4.186,5.315-4.269,8.6c0.703-0.518,1.208-1.259,1.97-1.708c0.107-0.062,0.2,0.041,0.185,0.146     c-0.109,0.762-0.386,1.476-0.61,2.212c-0.257,0.851-0.391,1.737-0.423,2.628c-0.051,1.627,0.162,3.256,0.619,4.819     c0.35,1.19,0.809,2.357,1.359,3.47c0.263,0.53,0.544,1.095,0.887,1.607c0.188,0.227,0.384,0.469,0.567,0.721     c0.099,0.104,0.2,0.203,0.31,0.294c0.065,0.053,0.052,0.123,0.004,0.169c0.377,0.605,0.648,1.264,0.619,1.96     c-0.054,1.17-1.442,1.848-2.409,2.143c-0.946,0.291-1.983,0.413-2.982,0.291c0.25,0.169,0.516,0.321,0.808,0.456     c0.093,0.04,0.187,0.074,0.279,0.111c3.522,1.923,7.592,1.653,10.726-0.903c0.682-0.554,1.298-1.212,1.853-1.936     c-0.071,0.395-0.134,0.901,0.072,0.993c0.404,0.182,1.073-0.496,1.357-0.681c0.816-0.533,1.624-1.068,2.366-1.703     c1.115-0.95,2.062-2.093,2.889-3.333c-0.081,0.742-0.151,1.449,0.145,2.232c0.478,1.261,1.746,2.226,2.725,3.086     c0.463,0.406,0.985,0.783,1.528,1.077c0.759,0.415,1.383,0.986,2.123,1.415c1.269,0.735,2.861,1.076,4.236,1.597     c2.9,1.091,5.959,1.578,8.963,2.305c6.268,1.517,13.447,1.658,19.608-0.392c2.379-0.79,5.232-1.971,7.491-3.698     c0.184,0.281,0.346,0.594,0.487,0.973c0.43,1.169,0.085,2.292-0.078,3.463c-0.185,1.326,0.294,2.786,1.404,3.592     c0.215,0.153,0.541,0.009,0.512-0.275c-0.092-0.859-0.038-1.584,0.228-2.207c0.552,1.618,2.626,2.59,4.621,2.498     c1.913-0.087,4.034-1.509,5.671-2.42c0.784-0.44,1.543-0.94,2.276-1.478c1.35,0.376,2.961-0.01,4.349-0.295     c1.922-0.397,4.327-1.401,5.293-3.215C378.691,212.175,378.139,210.656,377.434,209.278z M295.046,194.002     c0,0-1.133-1.571-1.392-3.792c-0.255-2.222-0.152-3.287-0.152-3.287s1.089,0.179,1.544,0.355     c0.454,0.178,2.074,0.485,2.074,0.485s0.668,1.256,0.83,2.003C297.95,189.766,295.146,192.686,295.046,194.002z" style="opacity:0.2;fill:url(#SVGID_00000029735232932844129370000003954811634816648592_);"/>
			<g>
				<path d="M304.677,184.066c-0.539-0.095-0.989-0.324-1.348-0.743c-0.074-0.086-0.232-0.018-0.184,0.097      c0.151,0.375,0.293,0.73,0.329,1.142c0.113,1.276-1.429,0.034-1.743-0.247c-0.023-0.022-0.06,0.009-0.045,0.037      c-0.036,0.009-0.065,0.035-0.065,0.082c0,0.628-0.025,1.221-0.378,1.769c-0.419,0.648-1.263,1.03-1.984,1.151      c-1.296,0.219-2.559,0.279-3.828-0.131c-1.005-0.326-1.936-0.638-3-0.37c-0.496,0.122-1.039,0.341-1.418,0.689      c-0.182,0.164-0.365,0.315-0.536,0.486c-0.147,0.145-0.296,0.425-0.469,0.536c-0.048,0.029-0.004,0.105,0.043,0.084      c0.392-0.168,0.757-0.644,1.109-0.898c0.653-0.47,1.487-0.668,2.283-0.655c-0.051,0.731-0.075,1.467-0.031,2.193      c0.047,0.845,0.263,1.663,0.442,2.486c0.335,1.525,1.191,2.898,2.059,4.184c0.504,0.749,1.043,1.452,1.361,2.308      c0.281,0.769,0.472,1.551,0.493,2.372c0.018,0.798-0.139,1.58-0.309,2.356c-0.102,0.461-0.188,0.922-0.301,1.38      c-0.062,0.241-0.199,0.483-0.24,0.72c-0.014,0.083,0.119,0.128,0.145,0.043c0.153-0.444,0.393-0.919,0.526-1.404      c0.22-0.798,0.403-1.625,0.491-2.448c0.151-1.414-0.259-2.959-0.982-4.17c-0.623-1.05-1.314-2.031-1.922-3.072      c0.383-1.603,1.659-2.804,2.633-4.079c0.029-0.036-0.025-0.074-0.054-0.043c-0.684,0.65-1.32,1.291-1.855,2.079      c-0.344,0.5-0.781,1.047-0.945,1.651c-0.19-0.342-0.37-0.692-0.528-1.054c-0.382-0.853-0.534-1.961-0.676-2.875      c-0.136-0.869-0.121-1.749-0.176-2.625h0.003c0.628,0.028,1.323,0.336,1.92,0.531c0.608,0.199,1.238,0.252,1.874,0.298      c1.095,0.077,2.493-0.177,3.392-0.829c0.462-0.332,0.742-0.718,0.935-1.246c0.187-0.515,0.157-0.84,0.099-1.352      c0.384,0.482,1.012,1.102,1.621,0.755c0.447-0.252,0.288-0.938,0.102-1.449c0.327,0.268,0.711,0.438,1.152,0.385      C304.742,184.181,304.745,184.082,304.677,184.066z" style="fill:#534141;"/>
				<path d="M307.169,204.016c0.064-0.122-0.118-0.231-0.206-0.125c-0.326,0.407-0.694,0.77-0.991,1.211      c-0.167,0.248-0.316,0.51-0.475,0.767c-0.034,0.053-0.06,0.123-0.084,0.193c-0.083-0.351-0.02-0.834-0.016-1.129      c0.008-0.655,0.116-1.287,0.258-1.923c0.143-0.622,0.332-1.221,0.537-1.824c0.175-0.502,0.321-1.086,0.62-1.531      c0.097-0.145-0.104-0.313-0.209-0.171c-0.407,0.539-0.757,1.167-1.206,1.668c-0.146,0.163-0.83,1.175-0.968,0.503      c-0.137-0.67,0.189-1.563,0.362-2.199c0.216-0.791,0.403-1.49,0.768-2.232c0.02-0.042-0.043-0.067-0.064-0.028      c-0.54,0.945-0.798,1.856-1.081,2.899c-0.108,0.402-0.493,1.657-0.063,2.013c0.303,0.253,0.647-0.13,0.849-0.342      c0.278-0.286,0.524-0.605,0.76-0.93c-0.243,0.707-0.402,1.467-0.559,2.134c-0.152,0.655-0.235,1.313-0.25,1.986      c-0.008,0.442-0.094,1.084,0.149,1.475c0.045,0.067,0.146,0.063,0.192,0.005c0.273-0.327,0.44-0.807,0.674-1.178      c0.121-0.194,0.267-0.37,0.416-0.543c-0.156,0.375-0.273,0.749-0.349,1.201c-0.098,0.57,0.203,1.332,0.458,1.82      c0.009,0.021,0.041,0.011,0.032-0.012c-0.233-0.631-0.441-1.318-0.282-1.988C306.6,205.098,306.872,204.596,307.169,204.016z" style="fill:#534141;"/>
				<path d="M353.051,212.6c-0.712-0.9-1.446-1.791-2.217-2.645c-1.79-1.994-3.741-3.873-5.675-5.728      c-0.954-0.917-1.852-1.84-2.718-2.848c-0.952-1.106-1.739-2.177-1.999-3.653c-0.233-1.333-0.076-2.836,0.158-4.157      c0.119-0.667,0.32-1.321,0.553-1.956c0.252-0.672,0.672-1.161,1.093-1.723c0.063-0.088,0.001-0.252-0.124-0.226      c-0.479,0.101-0.879,0.496-1.232,0.814c-0.229,0.209-0.438,0.443-0.647,0.671c-0.109,0.119-0.228,0.3-0.35,0.454      c0.015-0.68,0.116-1.36,0.294-2.014c0.232-0.867,0.501-1.492,1.014-2.219c0.039-0.056-0.037-0.12-0.082-0.066      c-0.247,0.298-0.48,0.53-0.66,0.879c-0.219,0.422-0.323,0.899-0.465,1.349c-0.247,0.782-0.35,1.591-0.368,2.408      c-0.003,0.106,0.134,0.144,0.205,0.094c0.288-0.185,0.536-0.617,0.771-0.871c0.279-0.304,0.672-0.76,1.096-1.025      c-0.188,0.234-0.37,0.469-0.52,0.739c-0.302,0.546-0.471,1.16-0.647,1.755c-0.379,1.27-0.453,2.611-0.453,3.925      c0.003,1.285,0.3,2.477,0.976,3.574c0.695,1.127,1.75,2.137,2.645,3.109c0.904,0.98,1.943,1.838,2.892,2.774      c1.033,1.02,2.067,2.04,3.08,3.077c0.97,0.991,1.828,2.063,2.742,3.097c0.411,0.466,0.868,0.97,1.157,1.521      c0.242,0.464,0.346,0.98,0.471,1.485c0.013,0.053,0.098,0.03,0.091-0.021C353.971,214.146,353.7,213.422,353.051,212.6z" style="fill:#534141;"/>
				<path d="M369.681,211.021c-1.208-3.086-3.387-3.657-4.48-3.721c0.021-0.645,0.152-1.274,0.127-1.92      c-0.034-0.819-0.009-1.637-0.009-2.457c0-0.831-0.172-1.795-0.434-2.586c-0.297-0.893-0.492-1.789-0.705-2.699      c-0.468-2-0.618-4.014-0.075-6.007c0.26-0.954,0.6-1.841,1.037-2.725c0.206-0.42,0.451-0.788,0.754-1.143      c0.31-0.366,0.619-0.857,1.107-0.993c0.132-0.036,0.082-0.266-0.057-0.237c-0.046,0.007-0.093,0.021-0.138,0.037      c-0.45,0.112-0.86,0.306-1.233,0.587c-0.236,0.177-0.459,0.364-0.679,0.561c-0.122,0.111-0.324,0.377-0.514,0.502      c0.073-0.286,0.263-0.62,0.378-0.84c0.276-0.524,0.522-1.029,0.867-1.518c0.244-0.345,0.469-0.703,0.732-1.036      c0.253-0.315,0.615-0.54,0.836-0.87c0.024-0.034-0.021-0.074-0.047-0.041c-0.253,0.306-0.635,0.518-0.903,0.818      c-0.378,0.418-0.688,0.912-1.011,1.369c-0.265,0.373-0.489,0.771-0.667,1.19c-0.142,0.326-0.422,0.731-0.438,1.087      c-0.003,0.066,0.042,0.141,0.119,0.128c0.258-0.042,0.446-0.29,0.629-0.465c0.354-0.338,0.743-0.681,1.18-0.929      c-0.242,0.261-0.454,0.561-0.65,0.792c-0.538,0.639-0.85,1.525-1.164,2.285c-0.765,1.834-0.948,3.877-0.657,5.829      c0.14,0.951,0.333,1.908,0.559,2.841c0.171,0.698,0.383,1.377,0.563,2.065c-0.009,0.789-0.408,1.57-0.755,2.25      c-0.179,0.352-0.381,0.691-0.569,1.036c-0.134,0.245-0.388,0.705-0.62,0.998c-0.251-0.368-0.522-0.757-0.844-1.031      c-0.261-0.222-0.546-0.396-0.821-0.593c0.079,0.023,0.156,0.047,0.234,0.076c0.203,0.064,0.497,0.009,0.709,0.006      c0.427,0,0.949,0.051,1.351-0.096c0.091-0.031,0.105-0.132,0.065-0.206c-0.183-0.339-1.121-0.467-1.433-0.584      c-0.63-0.235-1.403-0.678-1.997-1.207c0.516,0.256,1.09,0.424,1.61,0.582c0.136,0.044,0.237-0.11,0.129-0.212      c-0.222-0.215-0.475-0.416-0.717-0.606c-0.371-0.296-0.666-0.771-0.953-1.144c-0.602-0.773-1.147-1.678-1.455-2.612      c-0.592-1.805-1.075-3.676-1.54-5.52c-0.457-1.827-1.26-3.527-1.809-5.323c-0.484-1.594-1.18-3.277-2.214-4.611      c0-0.018,0-0.035-0.012-0.053c-0.378-0.676-0.78-1.368-1.337-1.916c-0.65-0.644-1.427-1.143-2.169-1.674      c-0.3-0.214-0.564-0.424-0.892-0.598c-0.24-0.127-0.521-0.386-0.793-0.444c-0.078-0.016-0.128-0.035-0.197-0.028      c0.22-0.283,0.513-0.511,0.745-0.78c0.074-0.085,0.047-0.258-0.069-0.29c-0.297-0.093-0.676-0.038-0.973,0.034      c-0.201,0.047-0.384,0.115-0.575,0.192c0.167-0.24,0.359-0.462,0.545-0.693c0.118-0.155-0.041-0.392-0.228-0.317      c-1.757,0.689-3.345,1.972-4.892,3.025c-1.044,0.71-2.005,1.589-2.921,2.491c-0.275-0.104-0.53-0.297-0.812-0.4      c-0.4-0.148-0.809-0.257-1.232-0.323c-0.427-0.063-0.881,0-1.31,0.042c-0.337,0.033-0.642,0.126-0.958,0.196      c0.278-0.276,0.749-0.443,1.053-0.585c0.347-0.164,0.729-0.218,1.071-0.369c0.138-0.065,0.089-0.256-0.059-0.255      c-1.029,0.01-2.008-0.02-3.028,0.201c-1.021,0.223-1.771,0.765-2.642,1.294c-0.042,0.027-0.003,0.104,0.042,0.082      c0.402-0.195,0.749-0.472,1.15-0.659c0.542-0.253,1.108-0.439,1.694-0.555c0.688-0.138,1.364-0.134,2.045-0.116      c-0.698,0.213-1.5,0.473-1.755,1.102c-0.038,0.091,0.032,0.21,0.14,0.193c0.363-0.05,0.689-0.203,1.06-0.247      c0.475-0.056,0.976-0.086,1.454-0.052c0.458,0.033,0.916,0.207,1.346,0.365c0.191,0.071,0.362,0.194,0.55,0.274      c-0.337,0.336-0.671,0.671-0.999,1.004c-1.247,1.263-2.364,2.699-3.245,4.242c-0.932,1.639-1.965,3.341-2.609,5.119      c-0.321,0.881-0.712,1.712-0.993,2.614c-0.295,0.942-0.569,1.893-0.804,2.854c-0.417,1.726-0.753,3.597-0.577,5.377      c0.081,0.789,0.061,1.577,0.24,2.352c-0.112,1.422-0.132,2.848,0.066,4.269c0.109,0.777,0.263,1.452,0.624,2.15      c0.333,0.64,0.803,1.23,1.286,1.767c0.039,0.043,0.107-0.005,0.074-0.054c-0.363-0.61-0.806-1.16-1.12-1.803      c-0.359-0.742-0.498-1.504-0.622-2.314c-0.178-1.156-0.188-2.343-0.175-3.52c0.247,0.824,0.604,1.621,0.958,2.403      c0.343,0.749,0.671,1.485,1.142,2.16c0.54,0.775,1.2,1.458,1.699,2.259c0.213,0.344,0.475,0.69,0.784,0.953      c0.054,0.047,0.133-0.028,0.091-0.085c-0.421-0.526-0.695-1.171-1.108-1.708c-0.521-0.688-1.05-1.411-1.503-2.15      c-0.49-0.81-0.84-1.756-1.2-2.628c-0.368-0.888-0.682-1.807-0.744-2.767c-0.061-0.935-0.157-1.851-0.086-2.787      c0.066-0.902,0.18-1.783,0.312-2.683c0.133-0.927,0.435-1.864,0.693-2.764c0.304-1.049,0.596-2.124,1.059-3.116      c1.561-3.34,3.094-6.649,5.611-9.399c0.65-0.711,1.366-1.36,2.067-2.019c0.671-0.625,1.313-1.27,2.054-1.814      c0.775-0.575,1.602-1.087,2.407-1.623c0.651-0.435,1.309-0.898,2.011-1.268c-0.164,0.223-0.302,0.457-0.393,0.721      c-0.059,0.165,0.079,0.321,0.251,0.269c0.253-0.077,0.433-0.287,0.683-0.39c0.213-0.086,0.528-0.199,0.815-0.221      c-0.299,0.286-0.624,0.567-0.735,0.967c-0.018,0.057,0.017,0.145,0.067,0.178c0.065,0.041,0.125,0.094,0.206,0.086      c0.292-0.027,0.384-0.085,0.688,0.107c0.6,0.375,1.199,0.741,1.8,1.122c0.629,0.4,1.275,0.806,1.784,1.352      c0.478,0.515,0.866,1.113,1.242,1.699c0.029,0.044,0.07,0.047,0.107,0.029c0.949,1.454,1.577,3.203,2.063,4.852      c0.288,0.968,0.694,1.896,1.057,2.836c0.33,0.851,0.556,1.811,0.772,2.698c0.242,0.983,0.567,1.938,0.799,2.929      c0.21,0.899,0.447,1.897,0.861,2.724c0.41,0.815,0.857,1.576,1.427,2.295c0.366,0.466,0.764,0.833,1.177,1.211      c-0.672-0.216-1.399-0.492-1.852-0.979c-0.116-0.125-0.308,0.006-0.216,0.156c0.391,0.649,1.206,1.241,1.85,1.617      c0.435,0.256,0.875,0.47,1.356,0.625c0.123,0.039,0.507,0.105,0.734,0.204c-0.403,0.066-0.882,0.016-1.254,0.013      c-0.345-0.001-0.816-0.278-1.142-0.166c-0.069,0.023-0.094,0.087-0.095,0.15c-0.016,0.387,0.756,0.715,1.022,0.916      c0.42,0.315,0.748,0.846,1.047,1.27c0.312,0.433,0.673,1.03,0.729,1.575c0.052,0.53,1.161,0.376,1.489,0.409      c0.117,0.011,0.231,0.023,0.348,0.036c0.928,0.116,1.5,0.35,2.1,0.728c1.03,0.652,1.81,1.809,2.179,2.959      c0.33,1.045,0.242,2.091-0.016,3.154c-0.254,1.047-0.972,2.001-1.625,2.838c-0.045,0.061,0.036,0.148,0.096,0.1      C369.813,215.874,370.522,213.176,369.681,211.021z M364.988,207.263c-0.421-0.057-1.261,0.134-1.368-0.387      c-0.095-0.449-0.361-0.963-0.628-1.335c-0.045-0.064-0.092-0.129-0.138-0.198c0.242-0.225,0.426-0.562,0.63-0.799      c0.346-0.405,0.6-0.994,0.846-1.462c0.146-0.277,0.424-0.786,0.577-1.285c0.015,0.081,0.033,0.162,0.047,0.242      C365.247,203.742,364.991,205.547,364.988,207.263z" style="fill:#534141;"/>
			</g>
			
				<linearGradient y2="148.4115" x2="320.3385" y1="220.59" x1="320.466" gradientUnits="userSpaceOnUse" id="SVGID_00000039823770007983874370000007273690229521042833_">
				<stop style="stop-color:#493F3E" offset="0"/>
				<stop style="stop-color:#6D5D5D" offset="0.4138"/>
				<stop style="stop-color:#6F5F5F" offset="0.4345"/>
				<stop style="stop-color:#756465" offset="0.5491"/>
				<stop style="stop-color:#826F71" offset="0.8571"/>
			</linearGradient>
			<path d="M351.243,210.399     c-2.06-2.432-4.58-4.43-6.751-6.761c-0.982-1.058-1.992-2.23-2.764-3.521c0.189,0.977,0.529,1.917,1.081,2.793     c0.969,1.534,2.248,2.829,3.291,4.305c0.756,1.068,1.375,2.374,0.546,3.598c-1.764,2.602-5.95,2.359-8.528,1.373     c-3.014-1.15-5.659-3.509-7.012-6.462c-0.344-0.759-0.614-1.549-0.753-2.363c-0.065,1.888,0.23,3.765,0.711,5.662     c0.343,1.344,0.885,2.728,1.023,4.117c0.095,0.95-0.088,2.026-1.096,2.404c-2.146,0.803-4.621,0.157-6.809-0.683     c-1.678-0.309-3.32-0.789-4.933-1.356c-3.305-1.159-6.422-2.924-8.913-5.414c-1.07-1.068-1.995-2.219-2.108-3.785     c-0.071-1.018,0.096-2.022,0.263-3.025c-0.642,0.788-1.342,1.536-2.073,2.244c-0.106,0.102-0.266-0.028-0.199-0.156     c0.518-0.985,0.643-2.042,0.914-3.104c0.203-0.788,0.454-1.565,0.592-2.367c-0.85,0.383-1.545,1.012-2.204,1.666     c-0.08,0.079-0.213,0.02-0.217-0.092c-0.021-0.553,0.063-1.095,0.125-1.645c-0.367,0.537-0.759,1.061-1.124,1.6     c-0.61,0.897-1.051,1.83-1.363,2.871c-0.533,1.771-0.913,3.586-2.05,5.091c-0.061,0.088-0.196,0.085-0.23-0.028     c-0.024-0.078-0.046-0.154-0.071-0.229c-0.003-0.002-0.004-0.002-0.008-0.006c-0.283-0.459-0.416-0.975-0.558-1.486     c-0.044-0.112-0.082-0.22-0.12-0.333c-0.463,0.607-0.75,1.319-1.186,1.945c-0.436,0.629-0.911,1.229-1.438,1.783     c-1.077,1.133-2.286,2.164-3.699,2.855c-1.261,0.619-2.624,0.997-4.021,1.147c-0.55,0.06-1.12,0.09-1.683,0.052     c3.354,1.523,7.096,1.13,10.022-1.256c0.682-0.554,1.298-1.212,1.853-1.936c-0.071,0.395-0.134,0.901,0.072,0.993     c0.404,0.182,1.073-0.496,1.357-0.681c0.816-0.533,1.624-1.068,2.366-1.703c1.115-0.95,2.062-2.093,2.889-3.333     c-0.081,0.742-0.151,1.449,0.145,2.232c0.478,1.261,1.746,2.226,2.725,3.086c0.463,0.406,0.985,0.783,1.528,1.077     c0.759,0.415,1.383,0.986,2.123,1.415c1.269,0.735,2.861,1.076,4.236,1.597c2.9,1.091,5.959,1.578,8.963,2.305     c6.268,1.517,13.447,1.658,19.608-0.392c2.298-0.763,5.037-1.896,7.258-3.53C352.522,212.061,351.926,211.205,351.243,210.399z" style="opacity:0.2;fill:url(#SVGID_00000039823770007983874370000007273690229521042833_);"/>
			
				<linearGradient y2="144.4522" x2="294.3545" y1="224.1211" x1="294.4952" gradientUnits="userSpaceOnUse" id="SVGID_00000143606255670196234530000000909499755820074410_">
				<stop style="stop-color:#493F3E" offset="0"/>
				<stop style="stop-color:#6D5D5D" offset="0.4138"/>
				<stop style="stop-color:#6F5F5F" offset="0.4345"/>
				<stop style="stop-color:#756465" offset="0.5491"/>
				<stop style="stop-color:#826F71" offset="0.8571"/>
			</linearGradient>
			<path d="M292.205,187.251     c-0.495,0.44-0.899,0.951-1.138,1.629c-0.337,0.966-0.492,1.989-0.496,3.012c-0.004,2.093,0.554,4.094,1.579,5.917     c1.063,1.891,2.45,3.562,3.796,5.259c0.451,0.572,0.871,1.157,1.236,1.764c0.23-0.684,0.609-2.157,0.719-2.463     c0.562-1.533,0.532-3.013,0.065-4.568c-0.419-1.395-1.185-2.797-1.376-4.245c-0.087-0.663-0.045-1.342,0.177-1.977     c0.104-0.29,0.221-0.576,0.33-0.864c-0.834,0.972-1.988,2.452-2.052,3.288c0,0-1.133-1.571-1.392-3.792     c-0.202-1.76-0.18-2.792-0.159-3.146C293.13,187.081,292.643,187.136,292.205,187.251z" style="opacity:0.2;fill:url(#SVGID_00000143606255670196234530000000909499755820074410_);"/>
			
				<linearGradient y2="148.3413" x2="362.7284" y1="220.5129" x1="362.8559" gradientUnits="userSpaceOnUse" id="SVGID_00000181773934086750364150000007497003300438032554_">
				<stop style="stop-color:#493F3E" offset="0"/>
				<stop style="stop-color:#6D5D5D" offset="0.4138"/>
				<stop style="stop-color:#6F5F5F" offset="0.4345"/>
				<stop style="stop-color:#756465" offset="0.5491"/>
				<stop style="stop-color:#826F71" offset="0.8571"/>
			</linearGradient>
			<path d="M366.858,186.945     c-1.837,1.156-2.912,3.227-3.333,5.328c-0.417,2.101-0.529,4.372-2.591,5.585c-0.758,0.446-1.492,0.563-2.18,0.45     c0.582,1.257,1.358,2.409,2.474,3.348c0.119,0.102-0.035,0.254-0.157,0.2c-0.52-0.233-1.016-0.5-1.487-0.796     c0.479,0.517,1.058,0.921,1.72,1.256c0.43,0.215,0.851,0.406,1.313,0.548c0.279,0.085,0.518,0.18,0.737,0.376     c0.072,0.065,0.031,0.187-0.058,0.214c-0.788,0.231-1.696,0.163-2.535,0.021c0.403,0.247,0.819,0.477,1.188,0.775     c0.335,0.27,0.636,0.576,0.91,0.905c0.191-0.584,0.652-1.01,0.9-1.572c0.3-0.691,0.638-1.361,1.02-2.009     c0.056-0.097,0.2-0.073,0.232,0.03c0.002,0.01,0.006,0.02,0.01,0.031c-0.021-2.281-0.921-4.633-1.136-6.895     c-0.149-1.588,0.049-3.185,0.744-4.636C365.196,188.929,366.005,187.919,366.858,186.945z" style="opacity:0.2;fill:url(#SVGID_00000181773934086750364150000007497003300438032554_);"/>
			
				<linearGradient y2="200.3926" x2="302.1881" y1="182.7095" x1="300.828" gradientUnits="userSpaceOnUse" id="SVGID_00000054246851209638435250000016376747245387769021_">
				<stop style="stop-color:#FFDBCB" offset="0"/>
				<stop style="stop-color:#FFE3D3" offset="0.3719"/>
				<stop style="stop-color:#FFF9E8" offset="0.9458"/>
				<stop style="stop-color:#FFFBEA" offset="1"/>
			</linearGradient>
			<path d="M297.12,187.763     c0,0,1.234,1.804,1.13,4.781c-0.108,2.976-0.404,7.058,2.314,1.254c0,0-0.063,2.382,0.553,2.382c0.614,0,1.787-2.934,1.958-5.208     c0,0,0.063,2.89,0.634,2.995c0.575,0.106,1.575-1.401,1.575-5.313s-0.532-4.462-0.532-4.462s-1.147-0.306-1.509-0.907     c0,0,0.66,1.482,0.17,1.843c-0.488,0.36-1.682-0.813-1.682-0.813s0.428,2.066-1.419,2.916     C298.463,188.08,297.12,187.763,297.12,187.763z" style="fill:url(#SVGID_00000054246851209638435250000016376747245387769021_);"/>
			
				<linearGradient y2="208.3967" x2="380.9572" y1="208.3967" x1="365.497" gradientUnits="userSpaceOnUse" id="SVGID_00000165199658814698274980000014215807243989401535_">
				<stop style="stop-color:#FFDBCB" offset="0"/>
				<stop style="stop-color:#FFE3D3" offset="0.3719"/>
				<stop style="stop-color:#FFF9E8" offset="0.9458"/>
				<stop style="stop-color:#FFFBEA" offset="1"/>
			</linearGradient>
			<path d="M369.706,210.765     c0,0,3.607-3.005,7.452-3.677c3.842-0.674,3.64-1.786,0.101-1.753c-3.541,0.033-7.722,1.989-9.071,3.271c0,0,3-3.205,7.454-4.386     c4.447-1.178,1.954-2.494-1.823-1.753c-3.4,0.667-7.51,4.18-8.321,4.946c1.778-0.063,3.43,1.955,4.059,3.427     c0.436,1.017,0.69,2.204,0.248,3.26c-0.065,0.152-0.142,0.29-0.229,0.42c0.045,0.005,0.085,0.015,0.131,0.021     c0,0,5.326-3.407,9.508-4.317C383.396,209.314,379.988,206.718,369.706,210.765z" style="fill:url(#SVGID_00000165199658814698274980000014215807243989401535_);"/>
			
				<linearGradient y2="216.2739" x2="386.7502" y1="216.2739" x1="373.0576" gradientUnits="userSpaceOnUse" id="SVGID_00000126313703441799468950000008573068861045846459_">
				<stop style="stop-color:#FFDBCB" offset="0"/>
				<stop style="stop-color:#FFE3D3" offset="0.3719"/>
				<stop style="stop-color:#FFF9E8" offset="0.9458"/>
				<stop style="stop-color:#FFFBEA" offset="1"/>
			</linearGradient>
			<path d="M385.042,214.843     c-2.313-1.601-5.303-3.669-6.975-3.78c0.213,0.775,0.1,1.647-0.205,2.392c-0.379,0.921-1.205,1.599-2.083,2.03     c-0.124,0.061-0.253,0.12-0.39,0.179c-0.685,0.418-1.504,0.793-2.332,0.974c1.195,0.343,2.93,0.903,4.264,1.611     c2.225,1.182,5.091,3.237,5.869,3.237c0.772,0-0.137-2.056-2.732-4.046c0,0,2.965,1.349,4.417,2.293     c1.447,0.943,1.415-0.438-0.405-2.09c-1.82-1.653-2.799-2.327-2.799-2.327s2.325,0.674,3.743,1.45     C386.83,217.541,387.672,216.665,385.042,214.843z" style="fill:url(#SVGID_00000126313703441799468950000008573068861045846459_);"/>
			
				<linearGradient y2="189.5536" x2="316.3138" y1="161.337" x1="307.1161" gradientUnits="userSpaceOnUse" id="SVGID_00000173857641191138647260000005317493799855792275_">
				<stop style="stop-color:#F2EDEC" offset="0"/>
				<stop style="stop-color:#ECE6E5" offset="0.3315"/>
				<stop style="stop-color:#E7E1DF" offset="0.4942"/>
				<stop style="stop-color:#D1CBC8" offset="0.6724"/>
				<stop style="stop-color:#A19994" offset="1"/>
			</linearGradient>
			<path d="M331.033,165.881     c-0.191-0.362-0.425-0.694-0.682-1.004c0.091,0.038,0.179,0.078,0.27,0.123c0.358,0.181,0.634,0.475,0.982,0.662     c0.069,0.035,0.13-0.044,0.113-0.106c-0.434-1.534-1.175-2.985-2.086-4.29c-0.638-0.915-1.381-1.597-2.276-2.079     c0.246,0.027,0.492,0.081,0.738,0.173c0.43,0.16,0.887,0.575,1.346,0.621c0.091,0.008,0.161-0.031,0.204-0.11     c0.212-0.4-0.613-1.23-0.817-1.487c-0.762-0.967-1.707-1.912-2.716-2.613c-0.954-0.665-2.047-1.162-3.083-1.688     c-1.214-0.619-2.441-0.988-3.735-1.382c-2.261-0.688-4.745-0.905-7.091-0.628c-1.112,0.132-2.196,0.438-3.178,0.984     c-0.379,0.209-0.797,0.427-1.189,0.676c0.03-0.531,0.184-1.086,0.377-1.504c0.031-0.066,0-0.166-0.073-0.191     c-0.731-0.242-1.504,0.839-1.835,1.346c-0.193,0.298-0.326,0.651-0.389,1.018c-0.821-0.901-2.033-1.52-3.146-1.223     c-0.054,0.016-0.094,0.07-0.104,0.125c-0.05,0.289,0.445,0.551,0.602,0.73c0.214,0.247,0.373,0.515,0.511,0.795     c-0.116,0.005-0.229,0.01-0.339,0.009c-0.967-0.015-1.945,0.006-2.893,0.224c-1.898,0.437-3.684,1.124-5.361,2.114     c-1.591,0.934-3.077,2.246-4.246,3.667c-1.116,1.353-2.311,2.782-2.558,4.584c-0.02,0.137,0.12,0.27,0.254,0.211     c0.264-0.111,0.463-0.323,0.702-0.474c0.412-0.251,0.904-0.411,1.361-0.552c0.072-0.025,0.15-0.039,0.222-0.057     c-0.031,0.031-0.066,0.063-0.104,0.098c-0.585,0.541-1.131,1.15-1.571,1.818c-0.438,0.67-0.805,1.39-1.133,2.119     c-0.155,0.35-0.273,0.711-0.369,1.08c-0.062,0.253-0.05,0.733-0.198,0.94c-0.105,0.146,0.081,0.379,0.232,0.245     c0.638-0.57,1.135-1.093,1.893-1.443c-0.268,0.461-0.477,0.96-0.624,1.465c-0.232,0.793-0.322,1.628-0.4,2.447     c-0.067,0.724-0.147,1.571-0.018,2.287c0.021,0.126,0.153,0.193,0.263,0.12c0.216-0.139,0.389-0.364,0.571-0.563     c-0.141,0.32-0.234,0.68-0.309,1.083c-0.084,0.461-0.075,0.945,0.046,1.394c0,0,4.972-4.016,8.999-2.242     c0,0-1.265,0.566-1.816,1.129c0,0,3.696-1.431,6.439,2.232c2.74,3.664,2.061,4.96,1.934,5.429c0,0,0.328,0.237,0.483,2.603     c0,0,0.047,0.515,0.073,1.231c1.079,0.352,2.191,0.607,3.331,0.698c0.85,0.067,1.723,0.083,2.558,0.281     c0.874,0.203,1.683,0.609,2.562,0.812c1.959,0.458,3.942-0.06,5.546-1.269c0.806-0.606,1.529-1.35,2.05-2.223     c0.446-0.752,0.754-1.567,1.104-2.369c0.346-0.788,0.746-1.509,1.316-2.159c0.518-0.595,1.092-1.137,1.616-1.723     c1.245-1.396,2.138-3.278,2.426-5.131c0.004-0.02,0.014-0.039,0.022-0.052c0.099-0.846,0.665-1.628,1.203-2.268     c0.904-1.071,1.874-2.027,2.6-3.238c0.159-0.268,0.309-0.535,0.455-0.806C331.867,167.634,331.463,166.696,331.033,165.881z" style="fill:url(#SVGID_00000173857641191138647260000005317493799855792275_);"/>
			
				<linearGradient y2="189.5536" x2="316.3138" y1="161.337" x1="307.1161" gradientUnits="userSpaceOnUse" id="SVGID_00000146478840425062039970000009414745448522567348_">
				<stop style="stop-color:#F2EDEC" offset="0"/>
				<stop style="stop-color:#ECE6E5" offset="0.3315"/>
				<stop style="stop-color:#E7E1DF" offset="0.4942"/>
				<stop style="stop-color:#D1CBC8" offset="0.6724"/>
				<stop style="stop-color:#A19994" offset="1"/>
			</linearGradient>
			<path d="M331.033,165.881     c-0.191-0.362-0.425-0.694-0.682-1.004c0.091,0.038,0.179,0.078,0.27,0.123c0.358,0.181,0.634,0.475,0.982,0.662     c0.069,0.035,0.13-0.044,0.113-0.106c-0.434-1.534-1.175-2.985-2.086-4.29c-0.638-0.915-1.381-1.597-2.276-2.079     c0.246,0.027,0.492,0.081,0.738,0.173c0.43,0.16,0.887,0.575,1.346,0.621c0.091,0.008,0.161-0.031,0.204-0.11     c0.212-0.4-0.613-1.23-0.817-1.487c-0.762-0.967-1.707-1.912-2.716-2.613c-0.954-0.665-2.047-1.162-3.083-1.688     c-1.214-0.619-2.441-0.988-3.735-1.382c-2.261-0.688-4.745-0.905-7.091-0.628c-1.112,0.132-2.196,0.438-3.178,0.984     c-0.379,0.209-0.797,0.427-1.189,0.676c0.03-0.531,0.184-1.086,0.377-1.504c0.031-0.066,0-0.166-0.073-0.191     c-0.731-0.242-1.504,0.839-1.835,1.346c-0.193,0.298-0.326,0.651-0.389,1.018c-0.821-0.901-2.033-1.52-3.146-1.223     c-0.054,0.016-0.094,0.07-0.104,0.125c-0.05,0.289,0.445,0.551,0.602,0.73c0.214,0.247,0.373,0.515,0.511,0.795     c-0.116,0.005-0.229,0.01-0.339,0.009c-0.967-0.015-1.945,0.006-2.893,0.224c-1.898,0.437-3.684,1.124-5.361,2.114     c-1.591,0.934-3.077,2.246-4.246,3.667c-1.116,1.353-2.311,2.782-2.558,4.584c-0.02,0.137,0.12,0.27,0.254,0.211     c0.264-0.111,0.463-0.323,0.702-0.474c0.412-0.251,0.904-0.411,1.361-0.552c0.072-0.025,0.15-0.039,0.222-0.057     c-0.031,0.031-0.066,0.063-0.104,0.098c-0.585,0.541-1.131,1.15-1.571,1.818c-0.438,0.67-0.805,1.39-1.133,2.119     c-0.155,0.35-0.273,0.711-0.369,1.08c-0.062,0.253-0.05,0.733-0.198,0.94c-0.105,0.146,0.081,0.379,0.232,0.245     c0.638-0.57,1.135-1.093,1.893-1.443c-0.268,0.461-0.477,0.96-0.624,1.465c-0.232,0.793-0.322,1.628-0.4,2.447     c-0.067,0.724-0.147,1.571-0.018,2.287c0.021,0.126,0.153,0.193,0.263,0.12c0.216-0.139,0.389-0.364,0.571-0.563     c-0.141,0.32-0.234,0.68-0.309,1.083c-0.084,0.461-0.075,0.945,0.046,1.394c0,0,4.972-4.016,8.999-2.242     c0,0-1.265,0.566-1.816,1.129c0,0,3.696-1.431,6.439,2.232c0.308,0.41,0.57,0.791,0.796,1.143     c0.095-0.444,0.253-0.872,0.46-1.264c0.765-1.424,1.985-2.531,2.755-3.952c0.808-1.493,1.135-3.161,0.975-4.852     c-0.136-1.419-0.545-3.036-1.665-4.011c-1.647-1.436-3.689-0.891-5.587-0.389c-0.763,0.203-2.218,0.719-1.725-0.622     c0.261-0.704,0.898-1.31,1.44-1.8c0.189-0.169,0.384-0.329,0.589-0.474c0.939-1.066,2.715-1.084,3.78-0.131     c0.057-0.652-0.01-1.308,0.03-1.961c0.008-0.116,0.13-0.163,0.218-0.092c0.527,0.439,0.911,0.984,1.198,1.597     c0.442-0.803,0.66-1.723,1.363-2.359c0.062-0.057,0.154-0.048,0.2,0.025c0.316,0.514,0.478,1.089,0.725,1.631     c0.563-1.046,1.18-2.096,2.288-2.635c0.109-0.051,0.205,0.033,0.188,0.146c-0.067,0.464-0.255,1.62,0.537,1.57     c0.554-0.036,1.029-0.32,1.492-0.604c0.578-0.355,1.262-0.808,1.975-0.791c1.309-0.132,2.551,0.494,3.631,1.168     c0.441,0.274,1.819,1.278,0.651,1.636c-0.378,0.115-0.744,0.081-1.134,0.1c-0.424,0.021-0.853,0.116-1.261,0.234     c-0.833,0.241-1.653,0.574-2.372,1.063c-1.52,1.028-2.6,2.68-2.682,4.546c-0.075,1.741,0.567,3.521,1.774,4.788     c1.188,1.247,2.688,1.779,4.329,2.153c0.451,0.105,0.986,0.187,1.517,0.308c0.246,0.021,0.492,0.046,0.742,0.076     c1.097,0.133,2.501,0.789,2.471,2.1c-0.041,1.504-1.27,2.686-1.853,3.997c-1.03,2.326-0.885,5.752-3.859,6.632     c-1.228,0.361-2.561,0.348-3.758-0.117c-0.817-0.099-1.587-0.457-2.292-0.983c-0.029-0.024-0.061-0.047-0.092-0.071     c-1.384-0.608-2.734-1.458-3.779-1.948c-0.649-0.305-1.371-0.65-1.975-1.114c-0.03,0.33-0.118,0.546-0.157,0.687     c0,0,0.328,0.237,0.483,2.603c0,0,0.047,0.515,0.073,1.231c1.079,0.352,2.191,0.607,3.331,0.698     c0.85,0.067,1.723,0.083,2.558,0.281c0.874,0.203,1.683,0.609,2.562,0.812c1.959,0.458,3.942-0.06,5.546-1.269     c0.806-0.606,1.529-1.35,2.05-2.223c0.446-0.752,0.754-1.567,1.104-2.369c0.346-0.788,0.746-1.509,1.316-2.159     c0.518-0.595,1.092-1.137,1.616-1.723c1.245-1.396,2.138-3.278,2.426-5.131c0.004-0.02,0.014-0.039,0.022-0.052     c0.099-0.846,0.665-1.628,1.203-2.268c0.904-1.071,1.874-2.027,2.6-3.238c0.159-0.268,0.309-0.535,0.455-0.806     C331.867,167.634,331.463,166.696,331.033,165.881z" style="fill:url(#SVGID_00000146478840425062039970000009414745448522567348_);"/>
			<path d="M320.339,181.719c-0.012-0.106-0.175-0.119-0.188-0.009c-0.071,0.609-0.083,1.151-0.309,1.735     c-0.232,0.6-0.371,1.218-0.646,1.807c-0.57,1.225-1.692,1.977-2.961,2.339c-1.373,0.394-2.597,0.217-3.905-0.294     c-0.536-0.209-1.017-0.625-1.508-0.927c-0.5-0.307-0.978-0.648-1.478-0.954c-0.057-0.032-0.105,0.054-0.057,0.094     c1.018,0.835,2.037,1.692,3.236,2.238c1.297,0.591,2.688,0.526,4.026,0.148c1.162-0.331,2.169-1.078,2.792-2.108     c0.379-0.624,0.576-1.349,0.758-2.046C320.284,183.038,320.43,182.451,320.339,181.719z" style="fill:#534141;"/>
			<path d="M315.169,176.957c0.045-0.475-0.061-0.948-0.261-1.4c-0.294-0.656-0.837-0.711-1.437-0.886     c-0.038-0.013-0.051,0.045-0.02,0.062c0.468,0.245,0.891,0.28,1.206,0.771c0.185,0.285,0.272,0.599,0.303,0.921     c-0.063-0.101-0.133-0.194-0.217-0.283c-0.863-0.901-1.971-1.058-3.162-0.84c-0.744,0.137-1.435,0.413-2.088,0.773     c-0.272,0.119-0.543,0.248-0.81,0.404c-0.462,0.272-0.871,0.823-0.979,1.39c-0.005,0.024-0.013,0.046-0.017,0.071     c-0.064,0.3-0.037,0.501,0.084,0.686c0.036,0.094,0.084,0.183,0.15,0.269c0.245,0.323,0.796,0.501,1.163,0.624     c0.541,0.186,1.121,0.207,1.689,0.208c1.289,0.002,2.898-0.42,3.899-1.272C315.125,178.068,315.283,177.493,315.169,176.957z      M313.834,178.578c-1.717,0.848-3.513,1.049-5.295,0.336c-0.622-0.251-0.571-0.864-0.37-1.374c0-0.001,0.002-0.001,0.002-0.001     c0.264-0.365,0.688-0.677,0.996-0.88c0.646-0.429,1.48-0.795,2.243-0.944c0.872-0.168,1.589-0.236,2.433,0.113     c0.537,0.224,0.974,0.793,1.067,1.357c0.011,0.067,0.012,0.132,0.008,0.195c-0.005,0.051-0.01,0.101-0.018,0.148     c-0.003,0.003,0,0.004,0,0.009C314.788,178.033,314.255,178.369,313.834,178.578z" style="fill:#534141;"/>
			<path d="M313.936,176.677c-0.273-0.283-0.599-0.11-0.815,0.143c-0.12,0.141-0.199,0.311-0.291,0.47     c-0.071,0.129-0.142,0.253-0.179,0.39c-0.094,0.134-0.168,0.277-0.122,0.453c0.021,0.084,0.121,0.109,0.192,0.09     c0.246-0.068,0.433-0.244,0.655-0.364c0.177-0.091,0.352-0.186,0.49-0.326C314.075,177.325,314.155,176.901,313.936,176.677z" style="fill:#534141;"/>
			<path d="M311.146,178.363c-0.306-0.362-0.596-0.851-1.076-0.997c-0.273-0.081-0.887-0.086-0.928,0.325     c-0.038,0.418,0.346,0.611,0.7,0.689c0.208,0.046,0.416,0.084,0.627,0.112c0.182,0.026,0.387,0.118,0.571,0.1     C311.143,178.581,311.217,178.45,311.146,178.363z" style="fill:#534141;"/>
			<path d="M321.614,175.673c-0.81,0.093-1.912,0.25-2.533-0.456c-0.029-0.035-0.102-0.006-0.077,0.042     c0.179,0.376,0.625,0.66,1.122,0.799c-0.234,0.274-0.443,0.571-0.705,0.832c-0.441,0.441-0.896,0.88-1.387,1.268     c-1.091,0.862-2.299,1.604-3.525,2.254c-1.404,0.745-2.907,1.219-4.483,1.433c-0.576,0.078-1.155,0.11-1.74,0.108     c-0.026-0.007-0.054-0.015-0.081-0.024c-0.062-0.02-0.111-0.006-0.148,0.022c-0.168-0.004-0.33-0.005-0.497-0.013     c-0.646-0.029-1.641-0.052-2.254-0.393c0.567-0.401,1.287-0.742,1.45-1.479c0.013-0.054-0.07-0.077-0.091-0.026     c-0.293,0.69-1.201,0.969-1.741,1.387c-0.082,0.064-0.09,0.189-0.006,0.256c0.442,0.357,1.083,0.409,1.624,0.498     c0.596,0.101,1.209,0.141,1.817,0.139c0.2,0.062,0.409,0.106,0.597,0.207c0.433,0.226,0.888,0.4,1.295,0.674     c0.695,0.471,1.279,1.088,1.979,1.556c1.2,0.796,2.871,0.765,4.085,0.019c1.298-0.798,1.671-2.679,2.203-3.99     c0.324-0.8,0.625-1.626,0.903-2.444c0.262-0.778,0.732-1.474,1.097-2.203c0.446,0.053,0.89-0.018,1.176-0.257     C321.775,175.809,321.735,175.659,321.614,175.673z" style="fill:#534141;"/>
			
				<linearGradient y2="181.0398" x2="319.667" y1="181.0398" x1="309.3164" gradientUnits="userSpaceOnUse" id="SVGID_00000080171434100268672050000005308159732661785217_">
				<stop style="stop-color:#E75667" offset="0.1146"/>
				<stop style="stop-color:#420D00" offset="1"/>
			</linearGradient>
			<path d="M318.501,179.806     c-0.288,0.769-0.58,1.537-0.884,2.296c-0.305,0.758-0.596,1.59-1.217,2.148c-0.493,0.446-1.334,0.688-1.995,0.719     c-1.059,0.051-1.799-0.469-2.638-1.021c-0.604-0.398-1.072-0.957-1.72-1.307c-0.239-0.132-0.489-0.243-0.731-0.361     c1.617-0.128,3.251-0.518,4.718-1.221c1.358-0.649,2.699-1.462,3.896-2.379c0.528-0.406,1.03-0.845,1.503-1.32     c0.082-0.082,0.159-0.165,0.234-0.252c-0.08,0.162-0.158,0.326-0.238,0.487C319.072,178.311,318.783,179.055,318.501,179.806z" style="fill:url(#SVGID_00000080171434100268672050000005308159732661785217_);"/>
			
				<linearGradient y2="179.9849" x2="319.667" y1="179.9849" x1="309.6015" gradientUnits="userSpaceOnUse" id="SVGID_00000042737854089059199340000013948845031955153545_">
				<stop style="stop-color:#FFFFFF" offset="0"/>
				<stop style="stop-color:#EAEAEA" offset="0.8358"/>
				<stop style="stop-color:#E5E5E5" offset="1"/>
			</linearGradient>
			<path d="M313.121,182.692     c1.574-0.44,2.945-1.439,4.121-2.551c0.707-0.669,1.371-1.395,2.001-2.154c0.061-0.132,0.121-0.263,0.186-0.393     c0.08-0.161,0.158-0.325,0.238-0.487c-0.075,0.087-0.152,0.17-0.234,0.252c-0.473,0.476-0.975,0.914-1.503,1.32     c-1.196,0.917-2.537,1.729-3.896,2.379c-1.38,0.661-2.907,1.041-4.433,1.191C310.667,182.84,311.877,183.038,313.121,182.692z" style="fill:url(#SVGID_00000042737854089059199340000013948845031955153545_);"/>
			
				<linearGradient y2="183.5792" x2="317.5097" y1="183.5792" x1="313.2343" gradientUnits="userSpaceOnUse" id="SVGID_00000110465662998252873350000011091359770803053743_">
				<stop style="stop-color:#E75667" offset="0.1146"/>
				<stop style="stop-color:#CA1A18" offset="1"/>
			</linearGradient>
			<path d="M316.945,182.244     c-0.976-0.159-2.041-0.011-2.776,0.712c-0.51,0.502-0.852,1.15-0.935,1.82c0.357,0.136,0.737,0.213,1.171,0.192     c0.661-0.031,1.502-0.272,1.995-0.719c0.55-0.492,0.838-1.2,1.109-1.879C317.324,182.319,317.137,182.274,316.945,182.244z" style="fill:url(#SVGID_00000110465662998252873350000011091359770803053743_);"/>
			
				<linearGradient y2="161.5171" x2="315.5252" y1="161.5171" x1="311.4289" gradientUnits="userSpaceOnUse" id="SVGID_00000105425641621112578560000015987098204757839550_">
				<stop style="stop-color:#484852" offset="0"/>
				<stop style="stop-color:#2E272A" offset="0.5888"/>
				<stop style="stop-color:#1F1313" offset="1"/>
			</linearGradient>
			<path d="M315.502,161.24     c-0.544-0.688-1.142-1.086-2.034-1.082c-0.892,0.008-1.704,0.767-1.964,1.574c-0.096,0.295-0.128,0.657,0.076,0.907     c0.175,0.219,0.383,0.321,0.615,0.151c0.313-0.233,0.492-0.764,0.733-1.075c0.263-0.192,0.568-0.241,0.873-0.319     c0.549-0.139,1.045-0.032,1.591,0.022C315.483,161.43,315.567,161.324,315.502,161.24z" style="fill:url(#SVGID_00000105425641621112578560000015987098204757839550_);"/>
			
				<linearGradient y2="163.6883" x2="304.2794" y1="163.6883" x1="300.1395" gradientUnits="userSpaceOnUse" id="SVGID_00000070119600123149776040000015748553356329735856_">
				<stop style="stop-color:#1F1313" offset="0"/>
				<stop style="stop-color:#2E272A" offset="0.4112"/>
				<stop style="stop-color:#484852" offset="1"/>
			</linearGradient>
			<path d="M300.142,164.668     c0.164-0.862,0.513-1.493,1.305-1.9c0.792-0.404,1.867-0.106,2.468,0.491c0.223,0.217,0.416,0.521,0.353,0.838     c-0.056,0.276-0.193,0.464-0.477,0.417c-0.387-0.062-0.789-0.448-1.149-0.614c-0.317-0.048-0.615,0.049-0.919,0.121     c-0.554,0.128-0.943,0.453-1.398,0.753C300.243,164.825,300.122,164.77,300.142,164.668z" style="fill:url(#SVGID_00000070119600123149776040000015748553356329735856_);"/>
			
				<linearGradient y2="168.6125" x2="328.5474" y1="168.6125" x1="312.1057" gradientUnits="userSpaceOnUse" id="SVGID_00000168108412169588478580000005669794574693547146_">
				<stop style="stop-color:#484852" offset="0"/>
				<stop style="stop-color:#2E272A" offset="0.5888"/>
				<stop style="stop-color:#1F1313" offset="1"/>
			</linearGradient>
			<path d="M328.318,175.078     c0.239-1.068,0.266-2.177,0.194-3.268c-0.13-2.032-0.586-3.948-1.47-5.697c-0.388-0.321-0.804-0.61-1.245-0.869     c-2.965-1.733-6.338-4.2-9.942-2.664c-2.272,0.97-4.164,3.256-3.671,5.838c0.508,2.651,1.473,4.426,5.179,5.337     c0.874,0.215,1.81,0.301,2.707,0.327c1.609,0.045,3.233,0.017,4.831,0.215C325.972,174.429,327.214,175.354,328.318,175.078z" style="fill:url(#SVGID_00000168108412169588478580000005669794574693547146_);"/>
			
				<linearGradient y2="168.6133" x2="328.5474" y1="168.6133" x1="312.1057" gradientUnits="userSpaceOnUse" id="SVGID_00000041284496932690316370000005431515209283838096_">
				<stop style="stop-color:#484852" offset="0"/>
				<stop style="stop-color:#2E272A" offset="0.5888"/>
				<stop style="stop-color:#1F1313" offset="1"/>
			</linearGradient>
			<path d="M328.513,171.81     c-0.13-2.032-0.586-3.948-1.47-5.697c-0.388-0.321-0.804-0.61-1.245-0.869c-2.293-1.342-4.834-3.118-7.531-3.146     c2.206,0.575,4.715,1.043,6.085,2.944c0.045,0.063,0,0.175-0.076,0.187c-0.771,0.131-1.603,0.358-2.122,0.974     c1.068,0.428,1.796,1.367,2.452,2.282c0.058,0.078-0.019,0.197-0.109,0.191c-0.449-0.02-0.888-0.126-1.337-0.131     c0.453,0.927,1.726,1.912,1.271,3.035c-0.346,0.844-1.216,1.219-2.066,1.373c-3.138,0.573-7.864-0.496-8.951-3.957     c-0.304-0.973-0.489-2.594-0.194-3.58c0.55-1.833,2.396-2.498,4.017-3.24c-0.455,0.076-0.916,0.207-1.379,0.403     c-2.272,0.97-4.164,3.256-3.671,5.838c0.508,2.651,1.473,4.426,5.179,5.337c0.874,0.215,1.81,0.301,2.707,0.327     c1.609,0.045,3.233,0.017,4.831,0.215c1.07,0.133,2.313,1.058,3.417,0.782C328.558,174.01,328.584,172.901,328.513,171.81z" style="opacity:0.5;fill:url(#SVGID_00000041284496932690316370000005431515209283838096_);"/>
			
				<linearGradient y2="148.1804" x2="303.3621" y1="192.3025" x1="316.73" gradientUnits="userSpaceOnUse" id="SVGID_00000018954513162840060410000011836989386914718625_">
				<stop style="stop-color:#493F3E" offset="0"/>
				<stop style="stop-color:#4C4241" offset="0.2239"/>
				<stop style="stop-color:#574B4A" offset="0.4124"/>
				<stop style="stop-color:#685959" offset="0.5877"/>
				<stop style="stop-color:#6F5F5F" offset="0.6408"/>
				<stop style="stop-color:#756465" offset="0.7382"/>
				<stop style="stop-color:#826F71" offset="1"/>
			</linearGradient>
			<path d="M300.14,161.833     c-0.765-0.17-1.572-0.042-1.572-0.042c2.638-2.084,5.441-1.232,5.441-1.232c-0.3-0.511-1.403-1.573-1.403-1.573     c2.125-0.129,3.274,1.53,3.274,1.53c0.508-1.361,1.775-2.764,1.775-2.764l0.604,1.657c1.445-2.635,3.847-2.506,3.847-2.506     c-0.655,0.468-0.93,1.786-0.93,1.786c4.613-2.807,8.392-0.13,8.392-0.13c-1.276-0.126-1.703,0.339-1.703,0.339     c6.503,1.958,8.844,8.463,8.844,8.463c-1.487-0.428-2.551,0-2.551,0c2.677,1.612,3.697,3.737,3.697,3.737     c-0.645-0.505-2.251-1.147-2.251-1.147s2.08,3.146,1.613,5.867c-0.467,2.72-2.509,4.76-2.509,4.76     c1.276-0.467,1.829-1.742,1.829-1.742c1.23,2.934,0,4.449,0,4.449c2.38-2.184,1.655-4.876,1.655-4.876     c0.683,0.639,0.725,1.803,0.725,1.803c1.529-2.064,0.555-5.01,0.555-5.01c0.466,0.745,1.4,1.329,1.4,1.329     c1.083-1.457,0.975-3.428,0.975-3.428c0.328-1.049,0.483-2.148,0.445-3.212c-0.047-1.366-0.63-2.817-1.259-4.011     c-0.191-0.362-0.425-0.694-0.682-1.004c0.091,0.038,0.179,0.078,0.27,0.123c0.358,0.181,0.634,0.475,0.982,0.662     c0.069,0.035,0.13-0.044,0.113-0.106c-0.434-1.534-1.175-2.985-2.086-4.29c-0.638-0.915-1.381-1.597-2.276-2.079     c0.246,0.027,0.492,0.081,0.738,0.173c0.43,0.16,0.887,0.575,1.346,0.621c0.091,0.008,0.161-0.031,0.204-0.11     c0.212-0.4-0.613-1.23-0.817-1.487c-0.762-0.967-1.707-1.912-2.716-2.613c-0.954-0.665-2.047-1.162-3.083-1.688     c-1.214-0.619-2.441-0.988-3.735-1.382c-2.261-0.688-4.745-0.905-7.091-0.628c-1.112,0.132-2.196,0.438-3.178,0.984     c-0.379,0.209-0.797,0.427-1.189,0.676c0.03-0.531,0.184-1.086,0.377-1.504c0.031-0.066,0-0.166-0.073-0.191     c-0.731-0.242-1.504,0.839-1.835,1.346c-0.193,0.298-0.326,0.651-0.389,1.018c-0.821-0.901-2.033-1.52-3.146-1.223     c-0.054,0.016-0.094,0.07-0.104,0.125c-0.05,0.289,0.445,0.551,0.602,0.73c0.214,0.247,0.373,0.515,0.511,0.795     c-0.116,0.005-0.229,0.01-0.339,0.009c-0.967-0.015-1.945,0.006-2.893,0.224c-1.898,0.437-3.684,1.124-5.361,2.114     c-1.591,0.934-3.077,2.246-4.246,3.667c-1.116,1.353-2.311,2.782-2.558,4.584c-0.02,0.137,0.12,0.27,0.254,0.211     c0.264-0.111,0.463-0.323,0.702-0.474c0.412-0.251,0.904-0.411,1.361-0.552c0.072-0.025,0.15-0.039,0.222-0.057     c-0.031,0.031-0.066,0.063-0.104,0.098c-0.585,0.541-1.131,1.15-1.571,1.818c-0.438,0.67-0.805,1.39-1.133,2.119     c-0.155,0.35-0.273,0.711-0.369,1.08c-0.062,0.253-0.05,0.733-0.198,0.94c-0.105,0.146,0.081,0.379,0.232,0.245     c0.638-0.57,1.135-1.093,1.893-1.443c-0.268,0.461-0.477,0.96-0.624,1.465c-0.232,0.793-0.322,1.628-0.4,2.447     c-0.067,0.724-0.147,1.571-0.018,2.287c0.021,0.126,0.153,0.193,0.263,0.12c0.216-0.139,0.389-0.364,0.571-0.563     c-0.141,0.32-0.234,0.68-0.309,1.083c-0.084,0.461-0.075,0.945,0.046,1.394c1.82-1.693,4.229-2.094,4.229-2.094     C293.085,165.719,300.14,161.833,300.14,161.833z" style="fill:url(#SVGID_00000018954513162840060410000011836989386914718625_);"/>
			
				<linearGradient y2="148.1817" x2="303.3615" y1="192.3026" x1="316.729" gradientUnits="userSpaceOnUse" id="SVGID_00000049942633907031277680000007133634474875498671_">
				<stop style="stop-color:#493F3E" offset="0"/>
				<stop style="stop-color:#6D5D5D" offset="0.4138"/>
				<stop style="stop-color:#6F5F5F" offset="0.4345"/>
				<stop style="stop-color:#756465" offset="0.5491"/>
				<stop style="stop-color:#826F71" offset="0.8571"/>
			</linearGradient>
			<path d="M332.292,169.892     c-0.047-1.366-0.63-2.817-1.259-4.011c-0.191-0.362-0.425-0.694-0.682-1.004c0.091,0.038,0.179,0.078,0.27,0.123     c0.358,0.181,0.634,0.475,0.982,0.662c0.069,0.035,0.13-0.044,0.113-0.106c-0.015-0.052-0.034-0.104-0.051-0.156     c-0.91-1.108-1.907-2.14-3.082-2.978c0.314,0.718,0.446,1.476,0.308,2.273c-0.017,0.091-0.153,0.125-0.213,0.056     c-2.179-2.573-4.355-5.597-7.85-6.345c-0.133-0.025-0.115-0.21,0-0.246c0.713-0.229,1.442-0.412,2.108-0.76     c-1.527-0.703-3.284-1.145-4.963-1.114c-1.496,0.028-2.991,0.345-4.478,0.08c-0.101-0.018-0.12-0.149-0.059-0.213     c0.654-0.695,1.412-1.294,2.224-1.798c-1.835,0.329-3.483,1.232-5.224,1.884c-0.078,0.027-0.163-0.046-0.159-0.123     c0.012-0.695,0.125-1.408,0.451-2.023c-1.713,0.729-3.15,1.929-4.379,3.323c-0.059,0.07-0.155,0.039-0.2-0.024     c-0.317-0.435-0.597-0.895-0.926-1.321c-0.276,0.926-0.651,1.828-1.151,2.661c-0.033,0.058-0.114,0.082-0.171,0.045     c-1.165-0.722-2.745-1.151-4.127-0.968c0.309,0.508,0.661,0.994,0.985,1.495c0.046,0.073,0,0.161-0.077,0.188     c-2.093,0.725-4.463,1.097-6.105,2.685c0.615,0.005,1.225,0.03,1.832,0.129c0.093,0.015,0.126,0.156,0.055,0.213     c-1.815,1.483-3.712,2.873-5.208,4.684c0.503-0.33,1.051-0.604,1.646-0.497c0.086,0.015,0.111,0.12,0.075,0.188     c-1.459,2.898-3.218,5.644-4.362,8.688c0.004,0.012,0.006,0.02,0.007,0.031c0.021,0.126,0.153,0.193,0.263,0.12     c0.216-0.139,0.389-0.364,0.571-0.563c-0.141,0.32-0.234,0.68-0.309,1.083c-0.084,0.461-0.075,0.945,0.046,1.394     c1.82-1.693,4.229-2.094,4.229-2.094c-0.34-9.832,6.715-13.718,6.715-13.718c-0.765-0.17-1.572-0.042-1.572-0.042     c2.638-2.084,5.441-1.232,5.441-1.232c-0.3-0.511-1.403-1.573-1.403-1.573c2.125-0.129,3.274,1.53,3.274,1.53     c0.508-1.361,1.775-2.764,1.775-2.764l0.604,1.657c1.445-2.635,3.847-2.506,3.847-2.506c-0.655,0.468-0.93,1.786-0.93,1.786     c4.613-2.807,8.392-0.13,8.392-0.13c-1.276-0.126-1.703,0.339-1.703,0.339c6.503,1.958,8.844,8.463,8.844,8.463     c-1.487-0.428-2.551,0-2.551,0c2.677,1.612,3.697,3.737,3.697,3.737c-0.645-0.505-2.251-1.147-2.251-1.147     s2.08,3.146,1.613,5.867c-0.467,2.72-2.509,4.76-2.509,4.76c1.276-0.467,1.829-1.742,1.829-1.742c1.23,2.934,0,4.449,0,4.449     c2.38-2.184,1.655-4.876,1.655-4.876c0.683,0.639,0.725,1.803,0.725,1.803c1.529-2.064,0.555-5.01,0.555-5.01     c0.466,0.745,1.4,1.329,1.4,1.329c1.083-1.457,0.975-3.428,0.975-3.428C332.175,172.055,332.33,170.956,332.292,169.892z" style="opacity:0.5;fill:url(#SVGID_00000049942633907031277680000007133634474875498671_);"/>
			
				<linearGradient y2="172.027" x2="307.3657" y1="172.027" x1="293.2548" gradientUnits="userSpaceOnUse" id="SVGID_00000020378198929368326470000015694096090410483895_">
				<stop style="stop-color:#1F1313" offset="0"/>
				<stop style="stop-color:#2E272A" offset="0.4112"/>
				<stop style="stop-color:#484852" offset="1"/>
			</linearGradient>
			<path d="M306.763,173.431     c0.75-1.578,0.745-3.474,0.288-5.141c-0.749-2.719-3.997-3.673-6.38-2.518c-1.316,0.638-2.312,1.5-3.09,2.741     c-0.761,1.212-1.31,2.542-2.03,3.777c-0.745,1.27-1.46,2.05-2.296,3.177c0.995-0.372,2.941-0.864,4.941-0.064     c0,0-1.243,0.598-1.816,1.129c0,0,3.602-1.459,6.439,2.232c0.303-0.664,0.682-1.26,1.182-1.83     C304.968,175.833,306.126,174.774,306.763,173.431z" style="fill:url(#SVGID_00000020378198929368326470000015694096090410483895_);"/>
			
				<linearGradient y2="172.1753" x2="307.3657" y1="172.1753" x1="293.2548" gradientUnits="userSpaceOnUse" id="SVGID_00000003798840823380832610000005428693017793227965_">
				<stop style="stop-color:#484852" offset="0"/>
				<stop style="stop-color:#2E272A" offset="0.5888"/>
				<stop style="stop-color:#1F1313" offset="1"/>
			</linearGradient>
			<path d="M307.051,168.29     c-0.374-1.352-1.363-2.268-2.559-2.703c0.991,0.543,1.802,1.358,2.225,2.409c0.675,1.668,0.334,3.924-0.658,5.402     c-0.486,0.725-1.119,1.391-1.791,1.941c-0.301,0.246-0.605,0.476-0.963,0.632c-0.354,0.155-0.73,0.035-1.096-0.015     c-0.025,0.224-0.045,0.447-0.071,0.666c-0.012,0.089-0.101,0.175-0.192,0.111c-0.956-0.657-1.983-1.054-3.114-1.304     c-0.093-0.021-0.122-0.148-0.056-0.214c0.338-0.318,0.329-0.397-0.083-0.672c-0.336-0.223-0.691-0.401-1.072-0.535     c-0.661-0.229-1.348-0.384-2.02-0.575c-0.075-0.023-0.12-0.118-0.076-0.189c0.801-1.221,1.097-2.646,1.615-3.977     c-0.549,0.996-1.016,2.036-1.589,3.02c-0.745,1.27-1.46,2.05-2.296,3.177c0.995-0.372,2.941-0.864,4.941-0.064     c0,0-1.243,0.598-1.816,1.129c0,0,3.602-1.459,6.439,2.232c0.303-0.664,0.682-1.26,1.182-1.83     c0.968-1.101,2.126-2.159,2.763-3.503C307.513,171.852,307.508,169.957,307.051,168.29z" style="opacity:0.5;fill:url(#SVGID_00000003798840823380832610000005428693017793227965_);"/>
			<g>
				
					<linearGradient y2="167.9808" x2="321.9971" y1="167.9808" x1="313.89" gradientUnits="userSpaceOnUse" id="SVGID_00000003084629898108402070000004586834104665834942_">
					<stop style="stop-color:#FFFFFF" offset="0"/>
					<stop style="stop-color:#EAEAEA" offset="0.8358"/>
					<stop style="stop-color:#E5E5E5" offset="1"/>
				</linearGradient>
				<path d="M320.551,165.371      c-1.041-1.086-2.796-1.898-4.311-1.41c-1.127,0.365-1.997,1.416-2.243,2.566c-0.218,1.025-0.107,2.178,0.392,3.11      c0.871,1.646,2.612,2.846,4.535,2.423c0.452-0.103,0.964-0.291,1.359-0.542c0.822-0.529,1.534-1.218,1.677-2.231      C322.159,167.877,321.555,166.42,320.551,165.371z" style="fill:url(#SVGID_00000003084629898108402070000004586834104665834942_);"/>
				<g>
					
						<radialGradient gradientUnits="userSpaceOnUse" gradientTransform="matrix(1.0026 -0.6173 0.652 0.9492 -4630.7676 515.3397)" r="2.7028" cy="1998.922" cx="3635.8049" id="SVGID_00000029735169872318061930000017624790880599810184_">
						<stop style="stop-color:#321D23" offset="0.3792"/>
						<stop style="stop-color:#4C2608" offset="0.8984"/>
						<stop style="stop-color:#522802" offset="1"/>
					</radialGradient>
					<path d="M320.327,166.77       c1.032,1.499,0.729,3.417-0.673,4.28c-1.403,0.861-3.375,0.347-4.407-1.154c-1.03-1.499-0.729-3.418,0.674-4.279       C317.325,164.752,319.296,165.27,320.327,166.77z" style="fill:url(#SVGID_00000029735169872318061930000017624790880599810184_);"/>
					<path d="M319.368,167.34c0.646,0.812,0.569,1.898-0.171,2.424       c-0.738,0.526-1.859,0.296-2.506-0.516c-0.646-0.813-0.567-1.898,0.172-2.424C317.6,166.296,318.725,166.529,319.368,167.34z" style="opacity:0.7;fill:#020202;"/>
					<path d="M316.538,167.967c-0.021,0.757-0.436,1.339-0.93,1.303c-0.495-0.039-0.879-0.682-0.858-1.438       c0.02-0.76,0.436-1.342,0.929-1.303C316.176,166.565,316.555,167.212,316.538,167.967z" style="fill:#FFFFFF;"/>
				</g>
			</g>
			<g>
				
					<linearGradient gradientTransform="matrix(-0.9719 0.3319 0.3067 0.9677 -1810.8932 174.8389)" y2="669.5397" x2="-1959.1111" y1="669.5397" x1="-1966.6404" gradientUnits="userSpaceOnUse" id="SVGID_00000057148570737076978790000014705926501785599658_">
					<stop style="stop-color:#FFFFFF" offset="0"/>
					<stop style="stop-color:#EAEAEA" offset="0.8358"/>
					<stop style="stop-color:#E5E5E5" offset="1"/>
				</linearGradient>
				<path d="M298.922,173.686      c0.417,0.866,1.258,1.267,2.149,1.487c0.428,0.103,0.941,0.116,1.381,0.066c1.857-0.21,3.086-1.825,3.404-3.573      c0.181-0.99-0.044-2.059-0.532-2.914c-0.553-0.96-1.633-1.635-2.757-1.615c-1.509,0.026-2.858,1.3-3.49,2.596      C298.472,170.985,298.338,172.48,298.922,173.686z" style="fill:url(#SVGID_00000057148570737076978790000014705926501785599658_);"/>
				<g>
					
						<radialGradient gradientUnits="userSpaceOnUse" gradientTransform="matrix(0.9565 0.6865 -0.6239 0.968 4403.5801 125.2015)" r="2.7033" cy="2111.7046" cx="-2910.2144" id="SVGID_00000058549640018637796600000002700265334450423999_">
						<stop style="stop-color:#321D23" offset="0.3792"/>
						<stop style="stop-color:#4C2608" offset="0.8984"/>
						<stop style="stop-color:#522802" offset="1"/>
					</radialGradient>
					<path d="M304.89,173.211       c-0.986,1.529-2.869,1.99-4.21,1.028c-1.335-0.958-1.622-2.979-0.637-4.508c0.987-1.532,2.873-1.994,4.211-1.033       C305.592,169.658,305.876,171.679,304.89,173.211z" style="fill:url(#SVGID_00000058549640018637796600000002700265334450423999_);"/>
					<path d="M303.995,172.545c-0.502,0.907-1.531,1.256-2.303,0.779       c-0.771-0.48-0.992-1.605-0.49-2.512c0.498-0.912,1.531-1.259,2.3-0.779C304.274,170.511,304.492,171.637,303.995,172.545z" style="opacity:0.7;fill:#020202;"/>
					<path d="M301.417,170.912c-0.248,0.67-0.78,1.068-1.189,0.895c-0.406-0.176-0.536-0.861-0.285-1.53       c0.248-0.668,0.778-1.066,1.19-0.893C301.538,169.561,301.666,170.244,301.417,170.912z" style="fill:#FFFFFF;"/>
				</g>
			</g>
			<path d="M322.792,169.35c-1.282,0.428-2.4,1.798-2.612,3.123c-0.008,0.041,0.049,0.058,0.067,0.021     c0.246-0.526,0.538-1.03,0.915-1.475c0.515-0.604,1.117-1,1.738-1.47C323.001,169.47,322.916,169.309,322.792,169.35z" style="fill:#3D3130;"/>
			<path d="M301.826,176.205c-0.342-0.702-0.951-1.192-1.612-1.59c-0.768-0.468-1.494-0.583-2.368-0.655     c-0.054-0.005-0.065,0.069-0.016,0.082c0.745,0.185,1.384,0.394,2.063,0.76c0.688,0.372,1.225,0.98,1.803,1.5     C301.754,176.355,301.863,176.281,301.826,176.205z" style="fill:#3D3130;"/>
			
				<linearGradient y2="150.6494" x2="295.1837" y1="194.7789" x1="308.5538" gradientUnits="userSpaceOnUse" id="SVGID_00000126309125796826670950000014003990872365376903_">
				<stop style="stop-color:#493F3E" offset="0"/>
				<stop style="stop-color:#4C4241" offset="0.2239"/>
				<stop style="stop-color:#574B4A" offset="0.4124"/>
				<stop style="stop-color:#685959" offset="0.5877"/>
				<stop style="stop-color:#6F5F5F" offset="0.6408"/>
				<stop style="stop-color:#756465" offset="0.7382"/>
				<stop style="stop-color:#826F71" offset="1"/>
			</linearGradient>
			<path d="M305.235,186.796     c0,0,0.573,1.774,2.895,1.97c0,0-0.74,0.773-1.709,0.484c0,0,0.617,1.706,3.484,1.772c0,0-2.879,1.298-4.841,0.456     C305.064,191.479,305.459,188.666,305.235,186.796z" style="fill:url(#SVGID_00000126309125796826670950000014003990872365376903_);"/>
		</g>
		<path d="M300.683,187.315c-0.015-0.044-0.074-0.02-0.064,0.023c0.688,2.799,0.353,5.937-1.152,8.419    c-0.026,0.04,0.046,0.083,0.072,0.044C301.176,193.393,301.653,190.084,300.683,187.315z" style="fill:#534141;"/>
		<path d="M302.028,184.727c-0.031-0.028-0.087,0.004-0.061,0.034c1.203,1.355,1.145,3.033,1.141,4.612    c0,1.649-0.499,3.301-0.976,4.898c-0.007,0.027,0.048,0.04,0.059,0.014c0.691-1.533,1.108-3.303,1.104-4.925    C303.294,187.782,303.343,186.031,302.028,184.727z" style="fill:#534141;"/>
		<path d="M382.383,219.206c-0.828-1.029-1.835-1.734-2.856-2.55c-0.859-0.686-1.976-1.195-3.048-1.419    c-0.037-0.009-0.053,0.057-0.013,0.067c2.287,0.669,4.205,2.291,5.86,3.945C382.358,219.278,382.407,219.242,382.383,219.206z" style="fill:#534141;"/>
		<path d="M383.75,217.031c-0.721-0.788-1.545-1.511-2.433-2.106c-0.947-0.634-1.957-1.004-2.996-1.433    c-0.037-0.014-0.059,0.041-0.025,0.056c0.448,0.202,0.916,0.329,1.351,0.561c0.536,0.282,1.07,0.597,1.577,0.931    c0.879,0.579,1.727,1.306,2.487,2.03C383.733,217.093,383.771,217.055,383.75,217.031z" style="fill:#534141;"/>
	</g>
</svg>