<?xml version='1.0' encoding='utf-8'?>
<svg xmlns="http://www.w3.org/2000/svg" xmlns:xlink="http://www.w3.org/1999/xlink" version="1.1" id="Layer_1" x="0px" y="0px" viewBox="205 0 200 150" style="enable-background:new 205 0 200 150;" xml:space="preserve"><g>
		<g>
			
				<radialGradient id="SVGID_00000024708263805761067090000004765864089343136952_" cx="340.4458" cy="114.4946" r="10.3942" gradientTransform="matrix(1 -0.0024 0.0024 1 -0.0869 8.5086)" gradientUnits="userSpaceOnUse">
				<stop offset="0.1147" style="stop-color:#FFFFFF" />
				<stop offset="0.8821" style="stop-color:#D4BBAB" />
			</radialGradient>
			<path style="fill:url(#SVGID_00000024708263805761067090000004765864089343136952_);" d="M342.583,124.635     c-1.485,0.292-1.652,4.617-1.657,6.306c0.063-0.003,0.122-0.002,0.185-0.007c1.674-0.186,3.397-0.43,5.02-0.757     C345.506,127.759,344.201,124.318,342.583,124.635z" />
			
				<radialGradient id="SVGID_00000100351231254043423020000013408715289689031553_" cx="340.4451" cy="114.4939" r="10.3981" gradientTransform="matrix(1 -0.0024 0.0024 1 -0.0869 8.5086)" gradientUnits="userSpaceOnUse">
				<stop offset="0.1147" style="stop-color:#FFFFFF" />
				<stop offset="0.8821" style="stop-color:#D4BBAB" />
			</radialGradient>
			<path style="fill:url(#SVGID_00000100351231254043423020000013408715289689031553_);" d="M338.288,123.751     c-1.736,0.051-2.333,4.329-2.521,6.483c1.176,0.506,2.659,0.771,4.524,0.732C340.309,129.016,340.188,123.7,338.288,123.751z" />
			
				<radialGradient id="SVGID_00000163069132877375277340000010462318541060128942_" cx="349.4811" cy="129.4685" r="46.3297" gradientTransform="matrix(1 -0.0024 0.0024 1 -0.0869 8.5086)" gradientUnits="userSpaceOnUse">
				<stop offset="0.1763" style="stop-color:#90A2B0" />
				<stop offset="1" style="stop-color:#4A5760" />
			</radialGradient>
			<path style="fill:url(#SVGID_00000163069132877375277340000010462318541060128942_);" d="M352.338,122.133     c2.638-1.881,1.935-10.145-1.511-26.493c0,0-9.448,3.43-17.886,2.683c0,0,0.105,8.86-0.729,16.445     c-0.796,6.296-1.641,13.233,3.554,15.467c0.188-2.154,0.785-6.433,2.521-6.483c1.9-0.051,2.021,5.265,2.003,7.216     c0.205-0.005,0.418-0.014,0.635-0.026c0.005-1.689,0.172-6.014,1.657-6.306c1.618-0.316,2.923,3.124,3.547,5.542     C352.105,128.977,356.702,126.678,352.338,122.133z" />
			
				<radialGradient id="SVGID_00000103946642804695377100000014826434948346424449_" cx="349.4816" cy="129.4685" r="46.3314" gradientTransform="matrix(1 -0.0024 0.0024 1 -0.0869 8.5086)" gradientUnits="userSpaceOnUse">
				<stop offset="0.1763" style="stop-color:#90A2B0" />
				<stop offset="1" style="stop-color:#4A5760" />
			</radialGradient>
			<path style="opacity:0.5;fill:url(#SVGID_00000103946642804695377100000014826434948346424449_);" d="M346.317,125.813     c-1.155-1.721-2.092-3.587-3.299-5.276c-1.586-2.227-3.431-4.32-4.475-6.885c-0.963-2.373-1.147-4.85-1.203-7.389     c-0.036-1.6,0.089-3.566,1.846-4.181c2.295-0.803,4.793-0.825,7.121-1.574c1.756-0.567,3.435-1.311,5.089-2.112     c-0.183-0.893-0.371-1.811-0.569-2.757c0,0-9.448,3.43-17.886,2.683c0,0,0.105,8.86-0.729,16.445     c-0.796,6.296-1.641,13.233,3.554,15.467c0.188-2.154,0.785-6.433,2.521-6.483c1.9-0.051,2.021,5.265,2.003,7.216     c0.205-0.005,0.418-0.014,0.635-0.026c0.005-1.689,0.172-6.014,1.657-6.306c1.618-0.316,2.923,3.124,3.547,5.542     c1.432-0.286,2.782-0.639,3.95-1.067C348.462,128.477,347.274,127.236,346.317,125.813z" />
		</g>
		<g style="opacity:0.5;">
			
				<radialGradient id="SVGID_00000119088343428378180550000006793117700488976309_" cx="305.9161" cy="43.3045" r="83.3118" gradientTransform="matrix(1 -0.0024 0.0024 1 -0.0869 8.5086)" gradientUnits="userSpaceOnUse">
				<stop offset="0.1763" style="stop-color:#90A2B0" />
				<stop offset="1" style="stop-color:#6F7F8C" />
			</radialGradient>
			<path style="fill:url(#SVGID_00000119088343428378180550000006793117700488976309_);" d="M342.285,103.688     c-1.747,0.501-4.491,0.982-6.158,0.103c-0.036-0.02-0.081,0.097-0.052,0.12c1.604,1.184,4.362,0.866,6.121,0.249     C342.35,104.106,342.46,103.639,342.285,103.688z" />
			
				<radialGradient id="SVGID_00000055678284551315030490000004134068092944070838_" cx="305.9218" cy="43.2847" r="83.3273" gradientTransform="matrix(1 -0.0024 0.0024 1 -0.0869 8.5086)" gradientUnits="userSpaceOnUse">
				<stop offset="0.1763" style="stop-color:#90A2B0" />
				<stop offset="1" style="stop-color:#6F7F8C" />
			</radialGradient>
			<path style="fill:url(#SVGID_00000055678284551315030490000004134068092944070838_);" d="M341.829,106.909     c-1.174,0.456-2.316,0.596-3.562,0.358c-0.055-0.012-0.1,0.132-0.048,0.148c1.244,0.371,2.397,0.345,3.598-0.172     C341.925,107.199,341.992,106.845,341.829,106.909z" />
		</g>
		
			<radialGradient id="SVGID_00000067209660197983477440000005198757749352190116_" cx="398.5471" cy="82.2842" r="17.8746" gradientTransform="matrix(1 -0.0024 0.0024 1 -0.0869 8.5086)" gradientUnits="userSpaceOnUse">
			<stop offset="0.1763" style="stop-color:#90A2B0" />
			<stop offset="1" style="stop-color:#4A5760" />
		</radialGradient>
		<path style="fill:url(#SVGID_00000067209660197983477440000005198757749352190116_);" d="M394.643,70.956    c0,0-0.293,1.748-2.935,2.69c-3.146,1.329-5.907,4.615-4.33,5.506c-0.674,2.643,0.396,4.856,1.501,5.321    c-0.683-1.234-0.3-2.129-0.3-2.129s0.434,3.664,2.991,4.637c-0.346-2.643,1.227-4.093,2.459-5.077    c1.233-0.982,1.996-2.262,1.524-4.263c0.983,1.574,0.519,2.939,0.519,2.939s3.399-2.949-0.706-9.244    C394.728,70.36,394.643,70.956,394.643,70.956z" />
		<g>
			<path style="fill:#90A2B0;" d="M217.032,65.889l0.785-0.967C217.817,64.922,217.349,65.28,217.032,65.889z" />
			
				<radialGradient id="SVGID_00000010995370358443348960000016254699725648295318_" cx="219.5362" cy="48.9621" r="48.8762" gradientTransform="matrix(1 -0.0024 0.0024 1 -0.0869 8.5086)" gradientUnits="userSpaceOnUse">
				<stop offset="0.1763" style="stop-color:#90A2B0" />
				<stop offset="1" style="stop-color:#4A5760" />
			</radialGradient>
			<path style="fill:url(#SVGID_00000010995370358443348960000016254699725648295318_);" d="M248.192,26.526     c-0.184-0.808-0.425-0.825-0.425-0.825s-2.633,1.771-5.004,0.847c-4.251-1.66-7.746-3.017-12.746,0.182     c-4.999,3.198-7.334,11.322-10.964,16.717c-3.628,5.395-4.311,5.397-7.339,7.376c-1.241,0.811-2.08,1.521-2.565,2.329     c3.23-0.354,10.156-1.925,13.759-9.438c4.747-9.893,4.57-12.618,8.829-12.97c4.26-0.351,14.366,4.91,17.844,16.148     c3.129,10.112,1.595,20.91-4.813,29.461c3.332-1.352,6.554-3.687,7.762-8.383C254.301,61.064,248.192,26.526,248.192,26.526z" />
			
				<radialGradient id="SVGID_00000155130806154562956930000015268535625815524010_" cx="216.6372" cy="51.1266" r="52.6318" gradientTransform="matrix(1 -0.0024 0.0024 1 -0.0869 8.5086)" gradientUnits="userSpaceOnUse">
				<stop offset="0.1217" style="stop-color:#EE918F" />
				<stop offset="0.8562" style="stop-color:#D16E70" />
			</radialGradient>
			<path style="fill:url(#SVGID_00000155130806154562956930000015268535625815524010_);" d="M249.434,45.881     c-3.479-11.237-13.437-15.487-17.696-15.137c-4.259,0.352-4.082,3.077-8.829,12.97c-3.603,7.512-10.528,9.083-13.759,9.438     c-0.698,1.167-0.645,2.541,0.077,4.734c1.224,3.715,3.96,6.364,3.96,6.364l2.046-1.446c0.075,0.302-1.287,1.823-1.058,2.278     c0.23,0.454,1.977,1.893,1.977,1.893l0.881-1.086c0.316-0.608,0.785-0.967,0.785-0.967l-0.785,0.967     c-0.454,0.88-0.582,2.28,1.479,3.887c3.497,2.723,7.143,4.839,9.265,2.938c-0.225,1.366-0.225,1.366-0.225,1.366     s5.494,4.629,12.649,3.675c1.413-0.343,3.004-0.765,4.567-1.4C251.176,67.803,252.563,55.993,249.434,45.881z" />
			
				<radialGradient id="SVGID_00000165223593865817668520000017933174260951480760_" cx="216.6385" cy="51.1264" r="52.6302" gradientTransform="matrix(1 -0.0024 0.0024 1 -0.0869 8.5086)" gradientUnits="userSpaceOnUse">
				<stop offset="0.1217" style="stop-color:#EE918F" />
				<stop offset="0.8562" style="stop-color:#D16E70" />
			</radialGradient>
			<path style="opacity:0.5;fill:url(#SVGID_00000165223593865817668520000017933174260951480760_);" d="M249.434,45.881     c-3.479-11.237-13.437-15.487-17.696-15.137c-4.259,0.352-4.082,3.077-8.829,12.97c-0.069,0.146-0.142,0.283-0.213,0.422     c0.115-0.127,0.232-0.256,0.349-0.386c1.27-1.425,2.5-2.894,3.839-4.255c1.146-1.164,2.375-2.473,3.904-3.121     c2.962-1.257,5.601,0.232,6.696,3.146c1.189,3.171-0.303,6.618-0.232,9.876c0.059,2.696,1.092,5.013,2.609,7.203     c1.615,2.325,3.672,4.623,3.695,7.624c0.039,4.558-2.853,9.352-6.722,11.693c-0.916,0.556-1.879,1.003-2.871,1.369     c1.825,0.504,3.945,0.774,6.237,0.468c1.413-0.343,3.004-0.765,4.567-1.4C251.176,67.803,252.563,55.993,249.434,45.881z" />
		</g>
		<g>
			
				<radialGradient id="SVGID_00000119813138790291084020000008629666372888116110_" cx="233.7204" cy="60.2079" r="9.3288" gradientTransform="matrix(1 -0.0024 0.0024 1 -0.0869 8.5086)" gradientUnits="userSpaceOnUse">
				<stop offset="0.1763" style="stop-color:#90A2B0" />
				<stop offset="1" style="stop-color:#6F7F8C" />
			</radialGradient>
			<path style="fill:url(#SVGID_00000119813138790291084020000008629666372888116110_);" d="M249.676,65.484     c0,0-0.805,0.217-0.911,1.564c-0.105,1.346-1.019,1.833-1.825,2.266c-0.806,0.431-1.236,0.379-0.643,1.615     c1.237-0.434,4.255,0.261,5.126,4.51C252.977,72.53,251.829,64.564,249.676,65.484z" />
			
				<radialGradient id="SVGID_00000181787483667739423970000005462053795297600408_" cx="237.2021" cy="65.7596" r="17.1183" gradientTransform="matrix(1 -0.0024 0.0024 1 -0.0869 8.5086)" gradientUnits="userSpaceOnUse">
				<stop offset="0.1147" style="stop-color:#FFFFFF" />
				<stop offset="0.8821" style="stop-color:#D4BBAB" />
			</radialGradient>
			<path style="fill:url(#SVGID_00000181787483667739423970000005462053795297600408_);" d="M246.513,70.93     c0,0-2.628,4.313-6.713,7.015c-3.441,2.001-4.461,2.863,1.03,3.121c5.491,0.256,9.63-3.093,10.593-5.626     C250.662,71.513,247.857,70.712,246.513,70.93z" />
		</g>
		<g>
			
				<radialGradient id="SVGID_00000111872981619841371360000013450649981110827169_" cx="367.6053" cy="117.2104" r="11.1423" gradientTransform="matrix(1 -0.0024 0.0024 1 -0.0869 8.5086)" gradientUnits="userSpaceOnUse">
				<stop offset="0.1147" style="stop-color:#FFFFFF" />
				<stop offset="0.8821" style="stop-color:#D4BBAB" />
			</radialGradient>
			<path style="fill:url(#SVGID_00000111872981619841371360000013450649981110827169_);" d="M370.362,125.98     c-2.018,0.34-2.658,4.372-2.84,6.034c1.848,0.308,3.985,0.501,6.205,0.395C373.938,128.645,372.755,125.576,370.362,125.98z" />
			
				<radialGradient id="SVGID_00000063612382181855658220000018362251612008865198_" cx="367.6039" cy="117.2084" r="11.1449" gradientTransform="matrix(1 -0.0024 0.0024 1 -0.0869 8.5086)" gradientUnits="userSpaceOnUse">
				<stop offset="0.1147" style="stop-color:#FFFFFF" />
				<stop offset="0.8821" style="stop-color:#D4BBAB" />
			</radialGradient>
			<path style="fill:url(#SVGID_00000063612382181855658220000018362251612008865198_);" d="M364.521,124.719     c-1.465-0.119-2.855,3.684-3.378,5.299c0.195,0.173,0.42,0.321,0.67,0.442c0.638,0.3,2.318,0.889,4.573,1.346     C367.223,128.246,366.229,124.863,364.521,124.719z" />
			
				<radialGradient id="SVGID_00000030446267777031211640000016095294683567586954_" cx="367.606" cy="117.2096" r="11.1414" gradientTransform="matrix(1 -0.0024 0.0024 1 -0.0869 8.5086)" gradientUnits="userSpaceOnUse">
				<stop offset="0.1147" style="stop-color:#FFFFFF" />
				<stop offset="0.8821" style="stop-color:#D4BBAB" />
			</radialGradient>
			<path style="fill:url(#SVGID_00000030446267777031211640000016095294683567586954_);" d="M375.936,126.072     c-1.332,0.448-1.243,4.398-1.124,6.259c1.64-0.151,3.305-0.477,4.917-1.052C379.305,128.678,377.492,125.551,375.936,126.072z" />
			
				<radialGradient id="SVGID_00000159452652777508541520000017059143165012794807_" cx="350.3966" cy="97.5274" r="89.6459" gradientTransform="matrix(1 -0.0024 0.0024 1 -0.0869 8.5086)" gradientUnits="userSpaceOnUse">
				<stop offset="0.1763" style="stop-color:#90A2B0" />
				<stop offset="1" style="stop-color:#6F7F8C" />
			</radialGradient>
			<path style="fill:url(#SVGID_00000159452652777508541520000017059143165012794807_);" d="M395.538,70.841     c-0.282-1.799-0.405-9.471-7.92-16.693c-7.514-7.225-15.284-14.278-20.068-20.061c-4.785-5.78-11.879-14.796-25.328-9.482     c-12.934,6.165-55.576,22.965-55.576,22.965s-15.482,10.941-9.529,41.939c0,0,2.402,18.181-5.5,34.841     c-3.141,4.672-3.015,4.923,0.017,7.186c-0.91,0.706-1.899,1.711-2.726,2.792c0.571-0.338,1.218-0.592,1.852-0.549     c1.741,0.116,2.887,4.09,2.533,6.451c0,0,1.13-4.959,3.47-5.685c2.335-0.727,3.478,3.141,2.708,5.796     c0,0,1.548-5.507,3.588-5.811c2.038-0.307,2.335,5.04,2.335,5.04c5.674-0.14,12.35-2.045,5.908-7.451     c2.517-2.402,3.995-16.777,3.725-23.963c-0.271-7.185-0.54-16.009-0.54-16.009s8.965,6.157,13.882,6.146     c1.275,6.93,1.295,14.621-0.58,21.811c-1.245,5.676-2.332,9.976,2.85,12.328c-1.595,2.136-3.093,4.887-2.506,6.814     c0.763-1.848,2.591-5.62,4.763-5.441c2.686,0.221,3.504,3,3.169,7.22c0.663-2.19,2.079-5.886,4.134-5.924     c2.545-0.048,2.917,4.195,3.008,6.382c0.014,0.004,0.027,0.009,0.042,0.014c0.405-2.1,1.315-5.595,2.938-5.972     c1.847-0.427,3.306,2.285,3.982,4.643c0.007-0.081,0-0.161-0.022-0.24c5.491-0.844,8.94-2.004,7.594-3.79     c-1.346-1.785-2.436-2.933-0.967-3.575c1.468-0.643,3.522-2.224,0.773-11.947c-2.748-9.726-6.628-14.194-7.669-21.434     c9.374,0.575,22.551,1.169,31.381-11.49c0,0,1.315,2.895,0.906,9.967c-0.409,7.072-0.987,14.57-1.912,19.429     c-0.843,4.518-0.929,4.604,2.142,6.044c-2.517,3.274-2.576,5.701-1.25,6.888c0.523-1.615,1.913-5.418,3.378-5.299     c1.709,0.145,2.702,3.527,1.865,7.087c0.365,0.074,0.743,0.145,1.137,0.209c0.182-1.662,0.822-5.694,2.84-6.034     c2.392-0.404,3.576,2.664,3.365,6.429c0.357-0.019,0.721-0.046,1.085-0.078c-0.119-1.86-0.208-5.81,1.124-6.259     c1.556-0.521,3.368,2.605,3.793,5.207c1.384-0.491,2.725-1.164,3.977-2.065c3.145-2.819,3.227-4.693,2.282-7.757     c1.614-1.966,1.696-2.732,0.411-6.222c-1.286-3.49-5.486-17.125-5.887-21.752c-0.396-4.559,2.321-10.019,2.466-20.241     c0.144-10.225-6.178-18.218-10.629-27.579c10.755,9.346,20.31,14.095,21.872,26.018     C394.296,73.128,395.817,72.641,395.538,70.841z" />
			
				<radialGradient id="SVGID_00000104692698877567325110000002285083299503734146_" cx="350.3966" cy="97.5274" r="89.6459" gradientTransform="matrix(1 -0.0024 0.0024 1 -0.0869 8.5086)" gradientUnits="userSpaceOnUse">
				<stop offset="0.1763" style="stop-color:#90A2B0" />
				<stop offset="1" style="stop-color:#6F7F8C" />
			</radialGradient>
			<path style="fill:url(#SVGID_00000104692698877567325110000002285083299503734146_);" d="M395.538,70.841     c-0.282-1.799-0.405-9.471-7.92-16.693c-7.514-7.225-15.284-14.278-20.068-20.061c-4.785-5.78-11.879-14.796-25.328-9.482     c-12.934,6.165-55.576,22.965-55.576,22.965s-15.482,10.941-9.529,41.939c0,0,2.402,18.181-5.5,34.841     c-3.141,4.672-3.015,4.923,0.017,7.186c-0.91,0.706-1.899,1.711-2.726,2.792c0.571-0.338,1.218-0.592,1.852-0.549     c1.741,0.116,2.887,4.09,2.533,6.451c0,0,1.13-4.959,3.47-5.685c2.335-0.727,3.478,3.141,2.708,5.796     c0,0,1.548-5.507,3.588-5.811c2.038-0.307,2.335,5.04,2.335,5.04c5.674-0.14,12.35-2.045,5.908-7.451     c2.517-2.402,3.995-16.777,3.725-23.963c-0.271-7.185-0.54-16.009-0.54-16.009s8.965,6.157,13.882,6.146     c1.275,6.93,1.295,14.621-0.58,21.811c-1.245,5.676-2.332,9.976,2.85,12.328c-1.595,2.136-3.093,4.887-2.506,6.814     c0.763-1.848,2.591-5.62,4.763-5.441c2.686,0.221,3.504,3,3.169,7.22c0.663-2.19,2.079-5.886,4.134-5.924     c2.545-0.048,2.917,4.195,3.008,6.382c0.014,0.004,0.027,0.009,0.042,0.014c0.405-2.1,1.315-5.595,2.938-5.972     c1.847-0.427,3.306,2.285,3.982,4.643c0.007-0.081,0-0.161-0.022-0.24c5.491-0.844,8.94-2.004,7.594-3.79     c-1.346-1.785-2.436-2.933-0.967-3.575c1.468-0.643,3.522-2.224,0.773-11.947c-2.748-9.726-6.628-14.194-7.669-21.434     c9.374,0.575,22.551,1.169,31.381-11.49c0,0,1.315,2.895,0.906,9.967c-0.409,7.072-0.987,14.57-1.912,19.429     c-0.843,4.518-0.929,4.604,2.142,6.044c-2.517,3.274-2.576,5.701-1.25,6.888c0.523-1.615,1.913-5.418,3.378-5.299     c1.709,0.145,2.702,3.527,1.865,7.087c0.365,0.074,0.743,0.145,1.137,0.209c0.182-1.662,0.822-5.694,2.84-6.034     c2.392-0.404,3.576,2.664,3.365,6.429c0.357-0.019,0.721-0.046,1.085-0.078c-0.119-1.86-0.208-5.81,1.124-6.259     c1.556-0.521,3.368,2.605,3.793,5.207c1.384-0.491,2.725-1.164,3.977-2.065c3.145-2.819,3.227-4.693,2.282-7.757     c1.614-1.966,1.696-2.732,0.411-6.222c-1.286-3.49-5.486-17.125-5.887-21.752c-0.396-4.559,2.321-10.019,2.466-20.241     c0.144-10.225-6.178-18.218-10.629-27.579c10.755,9.346,20.31,14.095,21.872,26.018     C394.296,73.128,395.817,72.641,395.538,70.841z" />
			<g style="opacity:0.5;">
				
					<radialGradient id="SVGID_00000045584674208409255780000014778653066579894446_" cx="350.3993" cy="97.5251" r="89.6331" gradientTransform="matrix(1 -0.0024 0.0024 1 -0.0869 8.5086)" gradientUnits="userSpaceOnUse">
					<stop offset="0.1763" style="stop-color:#90A2B0" />
					<stop offset="1" style="stop-color:#6F7F8C" />
				</radialGradient>
				<path style="fill:url(#SVGID_00000045584674208409255780000014778653066579894446_);" d="M283.041,77.045      c3.41-2.571,3.401-6.629,4.468-7.057c4.908-2.148,3.396-8.125,7.45-10.057c4.054-1.931,5.562,2.764,9.842,7.452      c4.283,4.687,9.613,0.832,17.288-5.379c6.82-5.142,9.584-10.488,8.936-14.331c3.63-0.222,9.589-9.634,12.772-17.971      c1.328-3.474,3.363-5.5,5.285-6.685c-2.085,0.11-4.361,0.601-6.859,1.588c-12.934,6.165-55.576,22.965-55.576,22.965      s-15.482,10.941-9.529,41.939c0,0,0.95,7.209-0.318,16.705c2.919-3.52,3.461-8.344,4.14-15.281      C281.772,82.387,281.337,78.758,283.041,77.045z" />
			</g>
		</g>
		<g>
			
				<radialGradient id="SVGID_00000048499604031015004140000001836108642157109647_" cx="228.9912" cy="70.6871" r="28.4638" gradientTransform="matrix(1 -0.0024 0.0024 1 -0.0869 8.5086)" gradientUnits="userSpaceOnUse">
				<stop offset="0.1217" style="stop-color:#EE918F" />
				<stop offset="0.8562" style="stop-color:#D16E70" />
			</radialGradient>
			<path style="fill:url(#SVGID_00000048499604031015004140000001836108642157109647_);" d="M238.022,94.982     c0.362-0.636,0.566-1.244,0.645-1.814c-0.42-0.822-1.18-1.15-1.843-1.037c-1.092,0.185-3.641-0.446-6.003-0.169     c-2.365,0.279-4.996,3.377-4.996,3.377c-0.593,0.844-0.459,1.327-0.005,1.706c0.761,0.307,1.963,0.528,3.851,0.523     C235.17,97.555,237.146,96.525,238.022,94.982z" />
			
				<radialGradient id="SVGID_00000100354713580026449380000010275967971994920847_" cx="271.1648" cy="19.5719" r="104.127" gradientTransform="matrix(1 -0.0024 0.0024 1 -0.0869 8.5086)" gradientUnits="userSpaceOnUse">
				<stop offset="0.1763" style="stop-color:#90A2B0" />
				<stop offset="1" style="stop-color:#6F7F8C" />
			</radialGradient>
			<path style="fill:url(#SVGID_00000100354713580026449380000010275967971994920847_);" d="M343.412,22.004     c-0.138-3.451-2.056-4.341-5.891-4.204c-3.833,0.136-7.542-1.26-14.2-5.589c-6.654-4.329-14.158-9.151-20.98-8.294     c-6.823,0.856-11.221,8.625-15.557,12.342c-4.335,3.716-12.272-1.632-18.151-1.49c-5.878,0.141-15.574,6.939-20.55,10.655     c-4.975,3.718-4.191,10.49-4.559,17.519c-0.366,7.031,1.556,8.431,7.825,13.145c-3.166,12.021-1.87,20.197,1.467,25.173     c3.334,4.976,6.101,8.545,5.931,14.547c-0.166,6.003-7.248,11.203-14.256,9.127c-7.008-2.074-5.928-7.078-5.57-9.536     c0.142-0.964,0.014-1.699-0.254-2.23c-0.078,0.57-0.282,1.178-0.645,1.814c-0.876,1.543-2.852,2.573-8.352,2.586     c-1.888,0.005-3.09-0.216-3.851-0.523c0.765,0.642,2.442,0.994,3.14,2.289c0.677,1.26,1.428,9.2,11.919,14.158     c10.491,4.96,23.904,2.755,31.809-5.953c7.9-8.71,6.206-22.891,6.572-29.792c0.367-6.902,5.22-9.214,6.495-9.473     c1.279-0.258,2.3-0.134,2.296-2.689c-0.005-1.737-0.264-3.322,2.158-5.627c2.805-2.818,7.013-6.28,7.013-6.28     s5.78,11.489,9.49,12.758c3.709,1.269,9.322-1.939,10.086-3.348c0.489-0.902-0.176-2.059-0.718-2.778     c-0.342-0.368-0.567-0.668-0.567-0.668s0.266,0.265,0.567,0.668c0.551,0.595,1.411,1.373,2.12,1.372     c1.149-0.003,3.701-1.798,6.763-5.128c3.059-3.33,4.455-7.168,4.067-8.188c-0.385-1.023-2.946-2.933-2.946-2.933     s3.585,2.675,6.134-0.27c2.55-2.947,5.479-7.426,5.346-8.958c-0.13-1.535-3.841-3.314-3.841-3.314s3.069,1.271,4.733,1.394     c1.661,0.124,3.186-4.096,3.054-5.502c-0.131-1.406-2.817-2.294-2.817-2.294l3.962,0.502     C342.654,26.989,343.546,25.454,343.412,22.004z" />
			<g>
				
					<radialGradient id="SVGID_00000051367537637813521200000013796717339258160805_" cx="284.461" cy="52.1163" r="57.7254" gradientTransform="matrix(1 -0.0024 0.0024 1 -0.0869 8.5086)" gradientUnits="userSpaceOnUse">
					<stop offset="0.262" style="stop-color:#0BB6FF" />
					<stop offset="1" style="stop-color:#00496E" />
				</radialGradient>
				<path style="fill:url(#SVGID_00000051367537637813521200000013796717339258160805_);" d="M315.893,60.483      c-0.35-0.374-0.576-0.675-0.584-0.687l0.384-0.336c0.012,0.012,0.281,0.283,0.591,0.694L315.893,60.483z" />
			</g>
			
				<radialGradient id="SVGID_00000075120826577258784530000000053822260737883787_" cx="278.2375" cy="30.6533" r="8.5217" gradientTransform="matrix(1 -0.0024 0.0024 1 -0.0869 8.5086)" gradientUnits="userSpaceOnUse">
				<stop offset="0.1763" style="stop-color:#90A2B0" />
				<stop offset="1" style="stop-color:#6F7F8C" />
			</radialGradient>
			<path style="opacity:0.5;fill:url(#SVGID_00000075120826577258784530000000053822260737883787_);" d="M277.667,48.086     c0,0,3.154-3.671,7.871-3.125c-0.5-0.943-2.83-0.494-2.83-0.494s3.723-3.082,1.151-9.914c-2.572-6.83-9.22-7.005-11.637-2.974     c-2.418,4.032-1.947,13.551,5.595,14.619C277.308,46.967,277.667,48.086,277.667,48.086z" />
			
				<radialGradient id="SVGID_00000008849796564380288800000018085627976063847069_" cx="256.1944" cy="36.8325" r="6.1491" gradientTransform="matrix(1 -0.0024 0.0024 1 -0.0869 8.5086)" gradientUnits="userSpaceOnUse">
				<stop offset="0.1763" style="stop-color:#90A2B0" />
				<stop offset="1" style="stop-color:#6F7F8C" />
			</radialGradient>
			<path style="opacity:0.5;fill:url(#SVGID_00000008849796564380288800000018085627976063847069_);" d="M254.143,51.682     c0,0-5.22-5.085-2.272-11.613c1.746-2.799,5.086-3.354,7.725,0.147c1.977,2.406,1.828,5.97,1.828,5.97     S257.967,47.069,254.143,51.682z" />
		</g>
		
			<linearGradient id="SVGID_00000058584333947308465730000003372174937252497331_" gradientUnits="userSpaceOnUse" x1="179.3909" y1="-93.8765" x2="189.4301" y2="-93.8765" gradientTransform="matrix(1.1175 -0.4327 0.4334 1.1247 112.3735 223.0696)">
			<stop offset="0" style="stop-color:#FFFFFF" />
			<stop offset="0.783" style="stop-color:#EAEAEA" />
			<stop offset="1" style="stop-color:#E3E3E3" />
		</linearGradient>
		<path style="fill:url(#SVGID_00000058584333947308465730000003372174937252497331_);" d="M283.58,36.329    c1.001,4.286-0.782,8.372-3.991,9.125c-3.209,0.755-6.627-2.107-7.634-6.392c-1.005-4.288,0.778-8.376,3.987-9.13    C279.15,29.179,282.571,32.042,283.58,36.329z" />
		<g>
			
				<radialGradient id="SVGID_00000142896217754327695060000009039590409175886763_" cx="44.6256" cy="-260.265" r="13.3497" gradientTransform="matrix(0.869 -0.5365 0.26 0.8359 305.4885 272.8029)" gradientUnits="userSpaceOnUse">
				<stop offset="0.262" style="stop-color:#0BB6FF" />
				<stop offset="1" style="stop-color:#00496E" />
			</radialGradient>
			<path style="fill:url(#SVGID_00000142896217754327695060000009039590409175886763_);" d="M282.358,36.085     c1.037,3.052,0.375,6.49-1.475,7.688c-1.857,1.194-4.199-0.315-5.237-3.369c-1.038-3.048-0.376-6.491,1.476-7.688     C278.975,31.525,281.321,33.032,282.358,36.085z" />
			
				<radialGradient id="SVGID_00000076573044776345372270000016869078169395143833_" cx="258.0859" cy="-136.0249" r="10.7665" gradientTransform="matrix(0.8038 -0.6861 0.4206 0.7186 129.5982 309.1637)" gradientUnits="userSpaceOnUse">
				<stop offset="0.2679" style="stop-color:#225673" />
				<stop offset="0.4703" style="stop-color:#20526F" />
				<stop offset="0.6893" style="stop-color:#1A4862" />
				<stop offset="0.9152" style="stop-color:#11364C" />
				<stop offset="1" style="stop-color:#0C2E42" />
			</radialGradient>
			<path style="fill:url(#SVGID_00000076573044776345372270000016869078169395143833_);" d="M281.334,36.874     c0.689,2.028,0.25,4.313-0.979,5.104c-1.23,0.794-2.788-0.205-3.479-2.231c-0.688-2.028-0.25-4.313,0.982-5.107     C279.085,33.849,280.642,34.848,281.334,36.874z" />
			
				<linearGradient id="SVGID_00000175295583433865530060000016187257130494919827_" gradientUnits="userSpaceOnUse" x1="14.7526" y1="-213.9588" x2="9.0402" y2="-213.5056" gradientTransform="matrix(0.7945 -0.6075 0.6075 0.7945 400.5385 212.5869)">
				<stop offset="0" style="stop-color:#FFFFFF" />
				<stop offset="0.783" style="stop-color:#EAEAEA" />
				<stop offset="1" style="stop-color:#E3E3E3" />
			</linearGradient>
			<path style="fill:url(#SVGID_00000175295583433865530060000016187257130494919827_);" d="M280.956,34.632     c0.607,1.085,0.615,2.495,0.016,3.133c-0.593,0.647-1.57,0.284-2.179-0.803c-0.606-1.092-0.617-2.492-0.018-3.135     C279.371,33.181,280.348,33.545,280.956,34.632z" />
		</g>
		<path style="fill:#48555E;" d="M267.918,30.305c0,0,5.192-8.244,11.095-6.68C275.367,18.763,270.771,18.569,267.918,30.305z" />
		<path style="fill:#48555E;" d="M258.587,35.366c0,0-4.803-3.756-8.05,0.978C251.609,30.592,255.059,30.264,258.587,35.366z" />
		<g>
			<g>
				
					<radialGradient id="SVGID_00000062895210067364829330000015226326704095939723_" cx="284.461" cy="52.1163" r="57.7254" gradientTransform="matrix(1 -0.0024 0.0024 1 -0.0869 8.5086)" gradientUnits="userSpaceOnUse">
					<stop offset="0.262" style="stop-color:#0BB6FF" />
					<stop offset="1" style="stop-color:#00496E" />
				</radialGradient>
				<path style="fill:url(#SVGID_00000062895210067364829330000015226326704095939723_);" d="M315.893,60.483      c-0.35-0.374-0.576-0.675-0.584-0.687l0.384-0.336c0.012,0.012,0.281,0.283,0.591,0.694L315.893,60.483z" />
			</g>
			
				<radialGradient id="SVGID_00000050654113801955064900000002288912439539238562_" cx="341.6759" cy="39.9991" r="69.6916" gradientTransform="matrix(1 -0.0024 0.0024 1 -0.0869 8.5086)" gradientUnits="userSpaceOnUse">
				<stop offset="0.1217" style="stop-color:#EE918F" />
				<stop offset="0.8562" style="stop-color:#D16E70" />
			</radialGradient>
			<path style="fill:url(#SVGID_00000050654113801955064900000002288912439539238562_);" d="M342.206,18.826     c-10.585,5.128-25.677-4.345-30.772-7.12c-5.316-2.895-8.468,1.285-13.892,7.368c-6.804,10.259-5.65,16.832,0.053,21.624     c5.701,4.791,3.18,8.086-0.373,12.98c0,0,5.78,11.489,9.49,12.758c3.709,1.269,9.322-1.939,10.086-3.348     c0.489-0.902-0.176-2.059-0.718-2.778c-0.342-0.368-0.567-0.668-0.567-0.668s0.266,0.265,0.567,0.668     c0.551,0.595,1.411,1.373,2.12,1.372c1.149-0.003,3.701-1.798,6.763-5.128c3.059-3.33,4.455-7.168,4.067-8.188     c-0.385-1.023-2.946-2.933-2.946-2.933s3.585,2.675,6.134-0.27c2.55-2.947,5.479-7.426,5.346-8.958     c-0.13-1.535-3.841-3.314-3.841-3.314s3.069,1.271,4.733,1.394c1.661,0.124,3.186-4.096,3.054-5.502     c-0.131-1.406-2.817-2.294-2.817-2.294l3.962,0.502c0,0,0.892-1.535,0.758-4.985C343.352,20.502,342.955,19.485,342.206,18.826z" />
			
				<radialGradient id="SVGID_00000001662581641116885550000014159207342813613738_" cx="341.6751" cy="39.9993" r="69.6913" gradientTransform="matrix(1 -0.0024 0.0024 1 -0.0869 8.5086)" gradientUnits="userSpaceOnUse">
				<stop offset="0.1217" style="stop-color:#EE918F" />
				<stop offset="0.8562" style="stop-color:#D16E70" />
			</radialGradient>
			<path style="opacity:0.5;fill:url(#SVGID_00000001662581641116885550000014159207342813613738_);" d="M303.442,63.639     c-0.354-0.62-0.633-1.308-0.811-2.08c-0.393-1.716-0.29-3.514,0.096-5.226c0.529-2.336,1.465-4.069,3.07-5.842     c1.12-1.233,2.471-2.571,2.783-4.275c0.309-1.679-0.506-3.291-1.468-4.612c-0.883-1.211-1.937-2.315-2.733-3.586     c-0.707-1.122-1.054-2.445-1.195-3.761c-0.604-5.523,2.766-9.871,7.607-12.164c2.431-1.151,5.059-1.805,7.709-1.048     c2.71,0.774,5.116,2.332,7.705,3.415c4.17,1.747,9.086,1.401,13.314-0.022c1.328-0.448,2.679-1.044,3.906-1.801     c-0.002-0.203-0.007-0.414-0.013-0.631c-0.061-1.502-0.457-2.519-1.206-3.178c-10.585,5.128-25.677-4.345-30.772-7.12     c-5.316-2.895-8.468,1.285-13.892,7.368c-6.804,10.259-5.65,16.832,0.053,21.624c5.701,4.791,3.18,8.086-0.373,12.98     C297.222,53.678,300.324,59.842,303.442,63.639z" />
		</g>
		
			<radialGradient id="SVGID_00000005987359698569094320000016753800768215699380_" cx="272.3059" cy="63.3872" r="14.0237" gradientTransform="matrix(1 -0.0024 0.0024 1 -0.0869 8.5086)" gradientUnits="userSpaceOnUse">
			<stop offset="0.1147" style="stop-color:#FFFFFF" />
			<stop offset="0.8821" style="stop-color:#D4BBAB" />
		</radialGradient>
		<path style="fill:url(#SVGID_00000005987359698569094320000016753800768215699380_);" d="M277.676,68.741    c0,0-2.704,5.38-6.561,8.409c-2.228,1.455,0.309,2.051,4.35,1.257c4.044-0.794,8.986-4.67,9.999-10.106    c-1.454-2.594-4.474-2.405-5.979-1.194C277.978,68.318,277.676,68.741,277.676,68.741z" />
		<g>
			
				<radialGradient id="SVGID_00000101084145101359092390000003102546108002420141_" cx="277.6521" cy="56.0679" r="3.7615" gradientTransform="matrix(1 -0.0024 0.0024 1 -0.0869 8.5086)" gradientUnits="userSpaceOnUse">
				<stop offset="0.1763" style="stop-color:#90A2B0" />
				<stop offset="1" style="stop-color:#6F7F8C" />
			</radialGradient>
			<path style="fill:url(#SVGID_00000101084145101359092390000003102546108002420141_);" d="M278.979,58.838     c0.018,0.631,0,1.263-0.046,1.891c-0.046,0.631-0.116,1.26-0.216,1.883c-0.05,0.313-0.105,0.625-0.172,0.935     c-0.07,0.311-0.141,0.621-0.228,0.929c-0.086,0.307-0.196,0.611-0.307,0.913l-0.2,0.448l-0.249,0.433l-0.015,0.02l-0.022,0.025     c-0.217,0.203-0.433,0.409-0.601,0.643c-0.094,0.113-0.158,0.239-0.225,0.363c-0.058,0.127-0.108,0.257-0.126,0.392     c0.001,0.066-0.019,0.135-0.003,0.199c0.005,0.066,0.017,0.131,0.043,0.193c0.037,0.127,0.123,0.24,0.232,0.334     c0.104,0.096,0.237,0.166,0.38,0.213c0.142,0.05,0.295,0.078,0.449,0.089c-0.154,0.019-0.315,0.034-0.472,0.005     c-0.158-0.027-0.319-0.077-0.461-0.167c-0.143-0.089-0.273-0.212-0.354-0.372c-0.047-0.079-0.072-0.163-0.093-0.252     c-0.029-0.087-0.017-0.174-0.027-0.264c0.006-0.176,0.041-0.346,0.1-0.507c0.065-0.155,0.136-0.311,0.228-0.45     c0.081-0.143,0.185-0.27,0.285-0.399c0.104-0.126,0.22-0.237,0.332-0.357l-0.037,0.044l0.201-0.394l0.173-0.417     c0.101-0.289,0.199-0.576,0.275-0.875c0.175-0.592,0.31-1.198,0.439-1.807c0.127-0.611,0.248-1.225,0.365-1.84L278.979,58.838z" />
			
				<radialGradient id="SVGID_00000007415410766667413140000011440674633386125226_" cx="285.3255" cy="12.6502" r="5.8193" gradientTransform="matrix(1 -0.0024 0.0024 1 -0.0869 8.5086)" gradientUnits="userSpaceOnUse">
				<stop offset="0.1763" style="stop-color:#90A2B0" />
				<stop offset="1" style="stop-color:#6F7F8C" />
			</radialGradient>
			<path style="fill:url(#SVGID_00000007415410766667413140000011440674633386125226_);" d="M278.074,16.882     c0,0,0.244,0.065,0.667,0.196c0.419,0.136,1.025,0.315,1.737,0.573c0.709,0.258,1.542,0.554,2.419,0.907     c0.879,0.352,1.803,0.756,2.721,1.18c0.914,0.434,1.821,0.88,2.645,1.35c0.417,0.226,0.811,0.463,1.176,0.7     c0.371,0.228,0.716,0.455,1.025,0.678c0.153,0.11,0.302,0.215,0.445,0.314c0.134,0.112,0.259,0.218,0.38,0.316     c0.233,0.202,0.45,0.361,0.6,0.529c0.302,0.321,0.479,0.504,0.479,0.504s-0.199-0.156-0.546-0.429     c-0.162-0.146-0.396-0.281-0.646-0.452c-0.252-0.174-0.546-0.351-0.871-0.541c-0.316-0.199-0.671-0.398-1.053-0.599     c-0.376-0.207-0.783-0.408-1.199-0.624c-0.415-0.222-0.856-0.421-1.298-0.643c-0.441-0.223-0.899-0.427-1.353-0.642     c-0.905-0.43-1.822-0.838-2.68-1.229c-0.861-0.385-1.662-0.745-2.35-1.054c-0.689-0.308-1.263-0.566-1.665-0.747     C278.305,16.987,278.074,16.882,278.074,16.882z" />
		</g>
		<g style="opacity:0.5;">
			
				<radialGradient id="SVGID_00000124873514689066981290000008003671102616977281_" cx="305.8757" cy="78.9399" r="8.682" gradientTransform="matrix(1 -0.0024 0.0024 1 -0.0869 8.5086)" gradientUnits="userSpaceOnUse">
				<stop offset="0.1763" style="stop-color:#90A2B0" />
				<stop offset="1" style="stop-color:#6F7F8C" />
			</radialGradient>
			<path style="fill:url(#SVGID_00000124873514689066981290000008003671102616977281_);" d="M303.493,74.793     c0,0-0.013,0.381,0.037,1.047c0.024,0.333,0.051,0.734,0.119,1.195c0.055,0.461,0.125,0.979,0.225,1.54     c0.089,0.565,0.185,1.175,0.33,1.813c0.143,0.639,0.259,1.318,0.438,2.008c0.168,0.694,0.342,1.41,0.517,2.139     c0.206,0.721,0.414,1.452,0.624,2.185c0.098,0.37,0.197,0.741,0.299,1.11c0.092,0.369,0.182,0.737,0.271,1.101     c0.183,0.73,0.36,1.446,0.531,2.142c0.347,1.388,0.63,2.695,0.893,3.809c0.13,0.56,0.246,1.071,0.333,1.528     c0.081,0.46,0.153,0.861,0.209,1.19c0.111,0.659,0.174,1.036,0.174,1.036s-0.099-0.37-0.27-1.017     c-0.083-0.322-0.181-0.714-0.297-1.165c-0.128-0.447-0.272-0.952-0.429-1.501c-0.304-1.105-0.683-2.389-1.042-3.773     c-0.183-0.692-0.371-1.407-0.563-2.133c-0.098-0.364-0.192-0.731-0.291-1.097c-0.102-0.365-0.207-0.729-0.311-1.093     c-0.197-0.739-0.397-1.479-0.593-2.206c-0.167-0.736-0.329-1.459-0.487-2.159c-0.176-0.698-0.253-1.391-0.37-2.039     c-0.118-0.646-0.188-1.266-0.251-1.839c-0.029-0.286-0.07-0.558-0.088-0.82c-0.015-0.261-0.025-0.51-0.041-0.744     c-0.03-0.465-0.028-0.871-0.026-1.208c-0.008-0.335,0.023-0.598,0.031-0.776C303.478,74.887,303.493,74.793,303.493,74.793z" />
			
				<radialGradient id="SVGID_00000103970622071355889140000015485218200584627131_" cx="302.0712" cy="72.3353" r="2.1872" gradientTransform="matrix(1 -0.0024 0.0024 1 -0.0869 8.5086)" gradientUnits="userSpaceOnUse">
				<stop offset="0.1763" style="stop-color:#90A2B0" />
				<stop offset="1" style="stop-color:#6F7F8C" />
			</radialGradient>
			<path style="fill:url(#SVGID_00000103970622071355889140000015485218200584627131_);" d="M300.263,77.953     c0,0,0.043,0.086,0.13,0.222c0.077,0.142,0.211,0.328,0.355,0.558c0.07,0.113,0.172,0.224,0.258,0.352     c0.092,0.125,0.179,0.258,0.291,0.383c0.109,0.128,0.223,0.255,0.333,0.393c0.1,0.144,0.245,0.252,0.364,0.381     c0.124,0.128,0.249,0.257,0.369,0.383c0.133,0.114,0.265,0.224,0.393,0.333c0.127,0.106,0.248,0.219,0.361,0.323     c0.113,0.109,0.243,0.176,0.35,0.261c0.44,0.317,0.725,0.576,0.725,0.576s-0.357-0.102-0.878-0.324     c-0.126-0.062-0.28-0.102-0.409-0.198c-0.138-0.089-0.283-0.18-0.426-0.284c-0.145-0.102-0.3-0.199-0.446-0.318     c-0.135-0.131-0.27-0.265-0.403-0.396c-0.128-0.144-0.277-0.264-0.379-0.423c-0.113-0.147-0.216-0.303-0.317-0.447     c-0.111-0.139-0.179-0.302-0.253-0.447c-0.074-0.146-0.146-0.281-0.192-0.415c-0.05-0.134-0.087-0.258-0.123-0.368     c-0.038-0.107-0.048-0.213-0.067-0.292C300.264,78.047,300.263,77.953,300.263,77.953z" />
			
				<radialGradient id="SVGID_00000029034979657728331370000003044203247873513104_" cx="290.3861" cy="79.0678" r="4.9994" gradientTransform="matrix(1 -0.0024 0.0024 1 -0.0869 8.5086)" gradientUnits="userSpaceOnUse">
				<stop offset="0.1763" style="stop-color:#90A2B0" />
				<stop offset="1" style="stop-color:#6F7F8C" />
			</radialGradient>
			<path style="fill:url(#SVGID_00000029034979657728331370000003044203247873513104_);" d="M286.298,81.478     c0,0,0.479,0.714,1.195,1.786c0.357,0.537,0.787,1.15,1.249,1.807c0.228,0.332,0.474,0.663,0.717,1.007     c0.24,0.347,0.503,0.683,0.755,1.028c0.508,0.688,1.045,1.351,1.549,1.971c0.258,0.304,0.509,0.598,0.746,0.876     c0.249,0.271,0.483,0.526,0.699,0.763c0.229,0.22,0.435,0.429,0.618,0.618c0.179,0.192,0.357,0.332,0.495,0.458     c0.278,0.256,0.437,0.4,0.437,0.4s-0.183-0.112-0.499-0.321c-0.154-0.107-0.354-0.225-0.557-0.394     c-0.207-0.162-0.444-0.343-0.693-0.555c-0.237-0.221-0.496-0.458-0.77-0.711c-0.265-0.262-0.539-0.543-0.817-0.84     c-0.267-0.305-0.547-0.617-0.818-0.945c-0.263-0.336-0.539-0.67-0.798-1.016c-0.514-0.698-1.01-1.403-1.436-2.091     c-0.44-0.681-0.8-1.345-1.12-1.907C286.633,82.276,286.298,81.478,286.298,81.478z" />
			
				<radialGradient id="SVGID_00000172412428694375005070000001985186916355743908_" cx="328.9192" cy="74.4563" r="12.4578" gradientTransform="matrix(1 -0.0024 0.0024 1 -0.0869 8.5086)" gradientUnits="userSpaceOnUse">
				<stop offset="0.1763" style="stop-color:#90A2B0" />
				<stop offset="1" style="stop-color:#6F7F8C" />
			</radialGradient>
			<path style="fill:url(#SVGID_00000172412428694375005070000001985186916355743908_);" d="M326.897,64.854     c0,0,0.334,0.45,0.827,1.293c0.488,0.845,1.163,2.071,1.783,3.632c0.309,0.78,0.621,1.638,0.881,2.565     c0.138,0.463,0.267,0.941,0.37,1.437c0.055,0.247,0.118,0.498,0.16,0.752c0.04,0.256,0.078,0.515,0.119,0.776     c0.163,1.041,0.225,2.135,0.217,3.244c0.001,0.555-0.071,1.112-0.103,1.675c-0.063,0.551-0.127,1.105-0.188,1.658     c-0.139,1.104-0.273,2.208-0.405,3.294c-0.14,1.087-0.232,2.16-0.344,3.196c-0.076,1.038-0.188,2.04-0.244,2.993     c-0.053,0.952-0.119,1.853-0.115,2.685c-0.008,0.416-0.016,0.816-0.021,1.195c0,0.378,0.015,0.739,0.021,1.078     c0.016,0.678,0.024,1.268,0.076,1.752c0.074,0.972,0.117,1.528,0.117,1.528s-0.077-0.552-0.215-1.519     c-0.078-0.481-0.117-1.073-0.167-1.75c-0.026-0.341-0.061-0.701-0.081-1.083c-0.006-0.38-0.011-0.783-0.018-1.203     c-0.029-0.836,0.008-1.744,0.03-2.703c0.025-0.96,0.099-1.97,0.175-3.013c0.103-1.039,0.187-2.118,0.31-3.209     c0.124-1.09,0.249-2.197,0.374-3.305c0.067-0.552,0.137-1.104,0.204-1.655c0.038-0.543,0.115-1.085,0.119-1.626     c0.018-1.082-0.031-2.149-0.178-3.173c-0.038-0.256-0.074-0.511-0.108-0.761c-0.05-0.249-0.096-0.495-0.142-0.74     c-0.086-0.492-0.2-0.968-0.32-1.427c-0.226-0.922-0.509-1.778-0.792-2.56c-0.283-0.78-0.574-1.487-0.845-2.107     c-0.272-0.619-0.534-1.149-0.756-1.581c-0.228-0.431-0.406-0.768-0.536-0.994C326.97,64.975,326.897,64.854,326.897,64.854z" />
			
				<radialGradient id="SVGID_00000026145309776359968030000009884737534038704800_" cx="331.2437" cy="63.685" r="4.4324" gradientTransform="matrix(1 -0.0024 0.0024 1 -0.0869 8.5086)" gradientUnits="userSpaceOnUse">
				<stop offset="0.1763" style="stop-color:#90A2B0" />
				<stop offset="1" style="stop-color:#6F7F8C" />
			</radialGradient>
			<path style="fill:url(#SVGID_00000026145309776359968030000009884737534038704800_);" d="M330.735,65.262     c0,0,0.092,0.173,0.221,0.492c0.124,0.32,0.311,0.777,0.47,1.346c0.174,0.565,0.324,1.238,0.449,1.967     c0.046,0.368,0.121,0.744,0.143,1.133c0.037,0.385,0.066,0.78,0.076,1.176c0.016,0.394,0.002,0.789-0.012,1.178     c0.001,0.389-0.055,0.77-0.09,1.138c-0.027,0.37-0.104,0.721-0.16,1.055c-0.053,0.335-0.128,0.647-0.208,0.932     c-0.077,0.286-0.146,0.546-0.221,0.775c-0.083,0.225-0.154,0.422-0.215,0.583c-0.119,0.321-0.194,0.501-0.194,0.501     s0.031-0.195,0.1-0.53c0.035-0.166,0.074-0.369,0.123-0.602c0.041-0.233,0.069-0.5,0.117-0.786     c0.05-0.287,0.091-0.598,0.12-0.929c0.032-0.33,0.075-0.678,0.089-1.039c0.043-0.721,0.07-1.493,0.039-2.263     c-0.007-0.771-0.087-1.539-0.154-2.259c-0.084-0.719-0.179-1.391-0.286-1.962c-0.102-0.575-0.2-1.051-0.279-1.383     C330.782,65.453,330.735,65.262,330.735,65.262z" />
			
				<radialGradient id="SVGID_00000037657820963787966090000002214409559242957502_" cx="363.7234" cy="72.0724" r="6.0707" gradientTransform="matrix(1 -0.0024 0.0024 1 -0.0869 8.5086)" gradientUnits="userSpaceOnUse">
				<stop offset="0.1763" style="stop-color:#90A2B0" />
				<stop offset="1" style="stop-color:#6F7F8C" />
			</radialGradient>
			<path style="fill:url(#SVGID_00000037657820963787966090000002214409559242957502_);" d="M361.388,87.741     c0,0,0.118-0.24,0.329-0.658c0.217-0.415,0.491-1.023,0.834-1.746c0.163-0.367,0.351-0.755,0.525-1.179     c0.183-0.421,0.364-0.868,0.552-1.331c0.197-0.457,0.361-0.945,0.553-1.432c0.19-0.489,0.346-0.996,0.524-1.497     c0.151-0.507,0.317-1.011,0.455-1.513c0.119-0.509,0.281-0.999,0.375-1.487c0.087-0.486,0.224-0.951,0.281-1.402     c0.063-0.451,0.147-0.877,0.184-1.272c0.025-0.397,0.061-0.761,0.092-1.084c0.032-0.323,0.012-0.605,0.02-0.839     c0.009-0.47,0.013-0.737,0.013-0.737s0.032,0.267,0.088,0.731c0.017,0.235,0.066,0.519,0.071,0.847     c0.004,0.327,0.01,0.697,0.004,1.102c-0.013,0.406-0.066,0.841-0.1,1.302c-0.033,0.465-0.131,0.946-0.211,1.446     c-0.084,0.498-0.219,1.004-0.339,1.522c-0.138,0.513-0.3,1.029-0.448,1.545c-0.186,0.506-0.352,1.019-0.547,1.511     c-0.197,0.493-0.393,0.976-0.604,1.434c-0.196,0.464-0.415,0.9-0.626,1.313c-0.204,0.415-0.418,0.795-0.604,1.151     C362.025,86.875,361.388,87.741,361.388,87.741z" />
		</g>
		
			<radialGradient id="SVGID_00000142858540878588884760000018125532326680811667_" cx="388.6299" cy="60.5015" r="5.6942" gradientTransform="matrix(1 -0.0024 0.0024 1 -0.0869 8.5086)" gradientUnits="userSpaceOnUse">
			<stop offset="0.1763" style="stop-color:#90A2B0" />
			<stop offset="1" style="stop-color:#4A5760" />
		</radialGradient>
		<path style="opacity:0.5;fill:url(#SVGID_00000142858540878588884760000018125532326680811667_);" d="M387.379,79.152    c0,0-0.026-0.225,0.055-0.544c0.015-0.08,0.044-0.164,0.077-0.25c0.033-0.087,0.06-0.184,0.11-0.272    c0.096-0.178,0.196-0.376,0.337-0.541c0.071-0.083,0.14-0.165,0.211-0.246c0.065-0.086,0.161-0.141,0.236-0.211    c0.161-0.124,0.304-0.246,0.462-0.307c0.298-0.142,0.507-0.189,0.507-0.189s-0.121,0.195-0.323,0.42    c-0.109,0.104-0.205,0.259-0.328,0.397c-0.126,0.135-0.242,0.293-0.36,0.449c-0.137,0.142-0.233,0.316-0.358,0.457    c-0.111,0.152-0.216,0.293-0.305,0.414C387.517,78.979,387.379,79.152,387.379,79.152z" />
		<g>
			
				<radialGradient id="SVGID_00000179615519511801009660000009826054615544745901_" cx="274.1179" cy="125.8493" r="16.3834" gradientTransform="matrix(1 -0.0024 0.0024 1 -0.0869 8.5086)" gradientUnits="userSpaceOnUse">
				<stop offset="0.1147" style="stop-color:#FFFFFF" />
				<stop offset="0.8821" style="stop-color:#D4BBAB" />
			</radialGradient>
			<path style="fill:url(#SVGID_00000179615519511801009660000009826054615544745901_);" d="M276.762,134.546     c-2.34,0.726-3.47,5.685-3.47,5.685c1.013,1.509,5.296,0.869,6.178,0.111C280.239,137.686,279.097,133.819,276.762,134.546z" />
			
				<radialGradient id="SVGID_00000040535876612606302370000018259801380403679164_" cx="274.1184" cy="125.8478" r="16.3875" gradientTransform="matrix(1 -0.0024 0.0024 1 -0.0869 8.5086)" gradientUnits="userSpaceOnUse">
				<stop offset="0.1147" style="stop-color:#FFFFFF" />
				<stop offset="0.8821" style="stop-color:#D4BBAB" />
			</radialGradient>
			<path style="fill:url(#SVGID_00000040535876612606302370000018259801380403679164_);" d="M270.759,133.779     c-0.634-0.043-1.28,0.211-1.852,0.549c-1.688,2.211-2.69,4.735-0.911,5.662c2.651,1.382,5.296,0.24,5.296,0.24     C273.646,137.869,272.5,133.895,270.759,133.779z" />
			
				<radialGradient id="SVGID_00000155130944449884448090000013970012027226767507_" cx="274.1185" cy="125.8491" r="16.3853" gradientTransform="matrix(1 -0.0024 0.0024 1 -0.0869 8.5086)" gradientUnits="userSpaceOnUse">
				<stop offset="0.1147" style="stop-color:#FFFFFF" />
				<stop offset="0.8821" style="stop-color:#D4BBAB" />
			</radialGradient>
			<path style="fill:url(#SVGID_00000155130944449884448090000013970012027226767507_);" d="M283.058,134.531     c-2.04,0.304-3.588,5.811-3.588,5.811c2.272,1.635,5.42,0.239,5.923-0.77C285.392,139.571,285.096,134.225,283.058,134.531z" />
		</g>
		<g>
			<path style="fill:none;" d="M323.213,141.689c0.01-0.063,0.021-0.127,0.033-0.192c-0.015-0.005-0.028-0.01-0.042-0.014     C323.208,141.554,323.209,141.623,323.213,141.689z" />
			
				<radialGradient id="SVGID_00000152972169843766984330000016044597035532440495_" cx="318.0029" cy="120.4641" r="23.684" gradientTransform="matrix(1 -0.0024 0.0024 1 -0.0869 8.5086)" gradientUnits="userSpaceOnUse">
				<stop offset="0.1147" style="stop-color:#FFFFFF" />
				<stop offset="0.8821" style="stop-color:#D4BBAB" />
			</radialGradient>
			<path style="fill:url(#SVGID_00000152972169843766984330000016044597035532440495_);" d="M326.184,135.525     c-1.622,0.377-2.532,3.872-2.938,5.972c3.164,1.15,6.793-0.121,6.92-1.329C329.489,137.811,328.03,135.099,326.184,135.525z" />
			
				<radialGradient id="SVGID_00000015327160832561299640000016856022922401625731_" cx="318.0057" cy="120.4638" r="23.6783" gradientTransform="matrix(1 -0.0024 0.0024 1 -0.0869 8.5086)" gradientUnits="userSpaceOnUse">
				<stop offset="0.1147" style="stop-color:#FFFFFF" />
				<stop offset="0.8821" style="stop-color:#D4BBAB" />
			</radialGradient>
			<path style="fill:url(#SVGID_00000015327160832561299640000016856022922401625731_);" d="M312.893,133.806     c-2.172-0.179-4,3.594-4.763,5.441c0.257,0.845,0.915,1.533,2.142,1.938c3.647,1.207,5.242,0.377,5.75-0.028     c0.015-0.042,0.027-0.088,0.04-0.132C316.397,136.806,315.58,134.026,312.893,133.806z" />
			
				<radialGradient id="SVGID_00000147939837914116540710000016471118415715260547_" cx="318.0064" cy="120.4651" r="23.6782" gradientTransform="matrix(1 -0.0024 0.0024 1 -0.0869 8.5086)" gradientUnits="userSpaceOnUse">
				<stop offset="0.1147" style="stop-color:#FFFFFF" />
				<stop offset="0.8821" style="stop-color:#D4BBAB" />
			</radialGradient>
			<path style="fill:url(#SVGID_00000147939837914116540710000016471118415715260547_);" d="M320.196,135.102     c-2.055,0.038-3.471,3.733-4.134,5.924c-0.003,0.035-0.007,0.071-0.008,0.107c0.038-0.031,0.071-0.063,0.096-0.086     c0.579,1.531,5.503,2.094,7.029,0.43c0.009,0.002,0.017,0.004,0.025,0.007C323.113,139.297,322.741,135.054,320.196,135.102z" />
		</g>
		<g style="opacity:0.5;">
			
				<radialGradient id="SVGID_00000150784932661582034520000002768769128321630087_" cx="305.9169" cy="43.3583" r="83.2398" gradientTransform="matrix(1 -0.0024 0.0024 1 -0.0869 8.5086)" gradientUnits="userSpaceOnUse">
				<stop offset="0.1763" style="stop-color:#90A2B0" />
				<stop offset="1" style="stop-color:#6F7F8C" />
			</radialGradient>
			<path style="fill:url(#SVGID_00000150784932661582034520000002768769128321630087_);" d="M282.764,109.734     c-0.879-1.008-3.192-0.687-4.188-0.145c-0.043,0.021-0.128,0.206-0.045,0.22c0.597,0.098,1.281-0.092,1.899-0.067     c0.775,0.031,1.417,0.284,2.151,0.427C282.752,110.202,282.859,109.843,282.764,109.734z" />
			
				<radialGradient id="SVGID_00000051379148729924803190000005063936849432180099_" cx="305.9216" cy="43.2059" r="83.4209" gradientTransform="matrix(1 -0.0024 0.0024 1 -0.0869 8.5086)" gradientUnits="userSpaceOnUse">
				<stop offset="0.1763" style="stop-color:#90A2B0" />
				<stop offset="1" style="stop-color:#6F7F8C" />
			</radialGradient>
			<path style="fill:url(#SVGID_00000051379148729924803190000005063936849432180099_);" d="M282.196,113.643     c-0.545-0.036-1.088,0.118-1.634,0.139c-0.608,0.021-1.157-0.171-1.746-0.255c-0.099-0.013-0.186,0.235-0.091,0.262     c0.588,0.164,1.092,0.412,1.713,0.462c0.545,0.042,1.159-0.063,1.682-0.209C282.243,114.008,282.376,113.652,282.196,113.643z" />
			
				<radialGradient id="SVGID_00000165208153903711087220000001330805995814824877_" cx="305.926" cy="43.3266" r="83.2821" gradientTransform="matrix(1 -0.0024 0.0024 1 -0.0869 8.5086)" gradientUnits="userSpaceOnUse">
				<stop offset="0.1763" style="stop-color:#90A2B0" />
				<stop offset="1" style="stop-color:#6F7F8C" />
			</radialGradient>
			<path style="fill:url(#SVGID_00000165208153903711087220000001330805995814824877_);" d="M283.338,116.465     c-2.267,0.41-4.963-0.523-6.9-1.672c-0.049-0.029-0.113,0.129-0.068,0.164c1.831,1.398,4.606,2.523,6.922,1.75     C283.363,116.683,283.438,116.447,283.338,116.465z" />
		</g>
		<g style="opacity:0.5;">
			
				<radialGradient id="SVGID_00000164490791631518208530000014753157903604644780_" cx="305.9259" cy="43.3412" r="83.2648" gradientTransform="matrix(1 -0.0024 0.0024 1 -0.0869 8.5086)" gradientUnits="userSpaceOnUse">
				<stop offset="0.1763" style="stop-color:#90A2B0" />
				<stop offset="1" style="stop-color:#6F7F8C" />
			</radialGradient>
			<path style="fill:url(#SVGID_00000164490791631518208530000014753157903604644780_);" d="M321.163,111.916     c-0.896,0-1.796,0.17-2.682-0.051c-0.074-0.018-0.14,0.174-0.069,0.205c0.851,0.366,1.794,0.388,2.685,0.191     C321.209,112.236,321.314,111.915,321.163,111.916z" />
			
				<radialGradient id="SVGID_00000038411233996803965060000004679484924048051903_" cx="305.9211" cy="43.3275" r="83.2855" gradientTransform="matrix(1 -0.0024 0.0024 1 -0.0869 8.5086)" gradientUnits="userSpaceOnUse">
				<stop offset="0.1763" style="stop-color:#90A2B0" />
				<stop offset="1" style="stop-color:#6F7F8C" />
			</radialGradient>
			<path style="fill:url(#SVGID_00000038411233996803965060000004679484924048051903_);" d="M322.317,113.453     c-2.218,0.565-5.013,0.831-7.229,0.117c-0.051-0.018-0.091,0.107-0.046,0.134c0.966,0.614,2.15,0.578,3.259,0.627     c1.378,0.059,2.703-0.008,3.979-0.557C322.364,113.739,322.442,113.421,322.317,113.453z" />
			
				<radialGradient id="SVGID_00000126298703492136431350000012659759985616687256_" cx="305.9228" cy="43.3848" r="83.2163" gradientTransform="matrix(1 -0.0024 0.0024 1 -0.0869 8.5086)" gradientUnits="userSpaceOnUse">
				<stop offset="0.1763" style="stop-color:#90A2B0" />
				<stop offset="1" style="stop-color:#6F7F8C" />
			</radialGradient>
			<path style="fill:url(#SVGID_00000126298703492136431350000012659759985616687256_);" d="M327.092,115.092     c-4.15,2.293-9.875,2.544-14.11,0.275c-0.039-0.02-0.081,0.098-0.051,0.12c3.871,2.782,10.215,2.706,14.142,0.09     C327.205,115.487,327.314,114.967,327.092,115.092z" />
		</g>
		<g style="opacity:0.5;">
			
				<radialGradient id="SVGID_00000135665097507330848130000008960024502162746800_" cx="305.9136" cy="43.3477" r="83.2721" gradientTransform="matrix(1 -0.0024 0.0024 1 -0.0869 8.5086)" gradientUnits="userSpaceOnUse">
				<stop offset="0.1763" style="stop-color:#90A2B0" />
				<stop offset="1" style="stop-color:#6F7F8C" />
			</radialGradient>
			<path style="fill:url(#SVGID_00000135665097507330848130000008960024502162746800_);" d="M374.475,100.246     c-2.275,0.551-4.779,0.817-6.965-0.312c-0.114-0.06-0.24,0.291-0.123,0.363c2.028,1.23,4.959,1.451,7.042,0.326     C374.517,100.577,374.633,100.207,374.475,100.246z" />
			
				<radialGradient id="SVGID_00000134238690434145995560000006617271770180027541_" cx="305.9409" cy="43.3028" r="83.2763" gradientTransform="matrix(1 -0.0024 0.0024 1 -0.0869 8.5086)" gradientUnits="userSpaceOnUse">
				<stop offset="0.1763" style="stop-color:#90A2B0" />
				<stop offset="1" style="stop-color:#6F7F8C" />
			</radialGradient>
			<path style="fill:url(#SVGID_00000134238690434145995560000006617271770180027541_);" d="M372.779,103.561     c-1.475,0.289-2.979,0.434-4.351-0.307c-0.058-0.028-0.128,0.151-0.078,0.187c1.32,0.898,2.842,0.916,4.352,0.532     C372.839,103.938,372.941,103.529,372.779,103.561z" />
		</g>
		
			<radialGradient id="SVGID_00000157988954715241842480000010820788043978891171_" cx="238.5818" cy="74.606" r="18.1357" gradientTransform="matrix(1 -0.0024 0.0024 1 -0.0869 8.5086)" gradientUnits="userSpaceOnUse">
			<stop offset="0.1217" style="stop-color:#EC807E" />
			<stop offset="0.8562" style="stop-color:#CA585B" />
		</radialGradient>
		<path style="opacity:0.5;fill:url(#SVGID_00000157988954715241842480000010820788043978891171_);" d="M230.063,94.186    c0,0-1.268,0.151-1.763,0.676c-0.496,0.521,0.028,1.539,1.916,0.616C232.105,94.553,230.762,94.11,230.063,94.186z" />
		
			<radialGradient id="SVGID_00000114034799567064381550000018012737070920178067_" cx="238.5772" cy="74.6037" r="18.1376" gradientTransform="matrix(1 -0.0024 0.0024 1 -0.0869 8.5086)" gradientUnits="userSpaceOnUse">
			<stop offset="0.1217" style="stop-color:#EC807E" />
			<stop offset="0.8562" style="stop-color:#CA585B" />
		</radialGradient>
		<path style="opacity:0.5;fill:url(#SVGID_00000114034799567064381550000018012737070920178067_);" d="M234.38,93.828    c0,0-1.66,0.622-1.509,1.345c0.15,0.725,1.491,0.189,2.149-0.388C235.68,94.208,235.741,93.568,234.38,93.828z" />
		<g>
			<defs>
				<path id="SVGID_00000080902202143969676490000010625494478846493337_" d="M254.347,51.583c0,0,2.615-4.337,7.076-5.397      c-1.069-8.135-4.946-9.963-8.026-8.579C250.313,38.992,249.151,47.003,254.347,51.583z" />
			</defs>
			<clipPath id="SVGID_00000108285700853389308830000006397508779805771429_">
				<use xlink:href="#SVGID_00000080902202143969676490000010625494478846493337_" style="overflow:visible;" />
			</clipPath>
			
				<linearGradient id="SVGID_00000119097544558639640680000007891203456363658659_" gradientUnits="userSpaceOnUse" x1="163.6239" y1="-99.9116" x2="170.9951" y2="-99.9116" gradientTransform="matrix(1.125 -0.424 0.4361 1.3219 111.5946 248.1285)">
				<stop offset="0" style="stop-color:#FFFFFF" />
				<stop offset="0.783" style="stop-color:#EAEAEA" />
				<stop offset="1" style="stop-color:#E3E3E3" />
			</linearGradient>
			
				<path style="clip-path:url(#SVGID_00000108285700853389308830000006397508779805771429_);fill:url(#SVGID_00000119097544558639640680000007891203456363658659_);" d="     M260.543,44.246c0.741,3.668-0.576,7.03-2.947,7.512c-2.374,0.482-4.9-2.102-5.646-5.768c-0.741-3.67,0.576-7.034,2.949-7.517     C257.271,37.993,259.8,40.576,260.543,44.246z" />
			<g style="clip-path:url(#SVGID_00000108285700853389308830000006397508779805771429_);">
				
					<radialGradient id="SVGID_00000029750498543382698040000012069019104395427727_" cx="19.2118" cy="-249.9431" r="11.8889" gradientTransform="matrix(0.8125 -0.6186 0.3402 0.8065 323.855 252.7237)" gradientUnits="userSpaceOnUse">
					<stop offset="0.262" style="stop-color:#0BB6FF" />
					<stop offset="1" style="stop-color:#00496E" />
				</radialGradient>
				<path style="fill:url(#SVGID_00000029750498543382698040000012069019104395427727_);" d="M259.952,42.995      c1.187,2.613,0.896,5.72-0.64,6.942c-1.54,1.219-3.75,0.085-4.934-2.532c-1.183-2.609-0.896-5.721,0.642-6.941      C256.559,39.248,258.767,40.38,259.952,42.995z" />
				
					<radialGradient id="SVGID_00000132796063443821871160000012922861281969729446_" cx="230.2833" cy="-131.3326" r="9.5887" gradientTransform="matrix(0.733 -0.7612 0.4887 0.6741 152.9497 305.4939)" gradientUnits="userSpaceOnUse">
					<stop offset="0.2679" style="stop-color:#225673" />
					<stop offset="0.4703" style="stop-color:#20526F" />
					<stop offset="0.6893" style="stop-color:#1A4862" />
					<stop offset="0.9152" style="stop-color:#11364C" />
					<stop offset="1" style="stop-color:#0C2E42" />
				</radialGradient>
				<path style="fill:url(#SVGID_00000132796063443821871160000012922861281969729446_);" d="M259.113,43.785      c0.788,1.736,0.596,3.799-0.425,4.607c-1.022,0.812-2.489,0.061-3.275-1.675c-0.789-1.736-0.597-3.802,0.425-4.612      C256.858,41.298,258.325,42.047,259.113,43.785z" />
				
					<linearGradient id="SVGID_00000029763357474220032330000004594456870719527057_" gradientUnits="userSpaceOnUse" x1="-14.4361" y1="-209.4064" x2="-19.5226" y2="-209.0029" gradientTransform="matrix(0.7315 -0.682 0.682 0.7315 413.0458 184.1667)">
					<stop offset="0" style="stop-color:#FFFFFF" />
					<stop offset="0.783" style="stop-color:#EAEAEA" />
					<stop offset="1" style="stop-color:#E3E3E3" />
				</linearGradient>
				<path style="fill:url(#SVGID_00000029763357474220032330000004594456870719527057_);" d="M258.584,41.829      c0.63,0.911,0.763,2.157,0.288,2.774c-0.472,0.625-1.368,0.39-2.004-0.522c-0.633-0.913-0.761-2.155-0.287-2.774      C257.051,40.682,257.95,40.919,258.584,41.829z" />
			</g>
		</g>
		<g>
			
				<radialGradient id="SVGID_00000132780356304716454030000009067038358047712155_" cx="223.3698" cy="40.7837" r="79.9534" gradientTransform="matrix(1 -0.0024 0.0024 1 -0.0869 8.5086)" gradientUnits="userSpaceOnUse">
				<stop offset="0.1763" style="stop-color:#90A2B0" />
				<stop offset="1" style="stop-color:#6F7F8C" />
			</radialGradient>
			<path style="fill:url(#SVGID_00000132780356304716454030000009067038358047712155_);" d="M276.075,49.455     c-3.828-3.651-10.395-6.045-16.474-2.746c-4.067,2.208-6.277,5.401-8.414,9.174c-0.044,0.075,0,0.255,0.079,0.129     c1.033-1.641,1.996-2.72,3.287-4.22c1.526-1.775,2.958-3.282,5.022-4.409c5.937-3.236,12.524,0.2,16.896,2.694     C276.681,50.197,276.223,49.597,276.075,49.455z" />
			
				<radialGradient id="SVGID_00000039812636585410272730000006384215276298375815_" cx="223.371" cy="40.7839" r="79.9517" gradientTransform="matrix(1 -0.0024 0.0024 1 -0.0869 8.5086)" gradientUnits="userSpaceOnUse">
				<stop offset="0.1763" style="stop-color:#90A2B0" />
				<stop offset="1" style="stop-color:#6F7F8C" />
			</radialGradient>
			<path style="fill:url(#SVGID_00000039812636585410272730000006384215276298375815_);" d="M262.888,55.633     c-4.296-1.566-9.849,0.198-12.45,4.04c-0.091,0.133-0.071,0.523,0.116,0.282c1.251-1.598,2.988-2.535,4.81-3.33     c2.579-1.13,4.651-0.891,7.32-0.39C262.908,56.275,263.104,55.71,262.888,55.633z" />
			
				<radialGradient id="SVGID_00000046306179396713599770000000978496320492234657_" cx="223.3703" cy="40.7833" r="79.954" gradientTransform="matrix(1 -0.0024 0.0024 1 -0.0869 8.5086)" gradientUnits="userSpaceOnUse">
				<stop offset="0.1763" style="stop-color:#90A2B0" />
				<stop offset="1" style="stop-color:#6F7F8C" />
			</radialGradient>
			<path style="fill:url(#SVGID_00000046306179396713599770000000978496320492234657_);" d="M260.63,60.6     c-3.709-0.548-7.104,0.679-9.667,3.383c-0.079,0.086-0.125,0.466,0.046,0.31c2.834-2.587,5.742-3.406,9.518-3.306     C260.649,60.992,260.756,60.62,260.63,60.6z" />
			
				<radialGradient id="SVGID_00000127004461400920401290000008389927558309218206_" cx="223.364" cy="40.7874" r="79.9624" gradientTransform="matrix(1 -0.0024 0.0024 1 -0.0869 8.5086)" gradientUnits="userSpaceOnUse">
				<stop offset="0.1763" style="stop-color:#90A2B0" />
				<stop offset="1" style="stop-color:#6F7F8C" />
			</radialGradient>
			<path style="fill:url(#SVGID_00000127004461400920401290000008389927558309218206_);" d="M258.559,64.728     c-2.263,0.297-4.65,0.857-6.359,2.473c-0.04,0.037-0.056,0.196,0.018,0.132c1.698-1.508,4.086-2.015,6.278-2.285     C258.612,65.033,258.686,64.71,258.559,64.728z" />
			
				<radialGradient id="SVGID_00000092438056834011048590000016838895919140685704_" cx="223.3692" cy="40.7809" r="79.9571" gradientTransform="matrix(1 -0.0024 0.0024 1 -0.0869 8.5086)" gradientUnits="userSpaceOnUse">
				<stop offset="0.1763" style="stop-color:#90A2B0" />
				<stop offset="1" style="stop-color:#6F7F8C" />
			</radialGradient>
			<path style="fill:url(#SVGID_00000092438056834011048590000016838895919140685704_);" d="M263.795,74.901     c-1.642-0.665-4.095,0.066-5.658,0.729c-1.735,0.733-3.311,1.741-4.464,3.246c-0.046,0.055-0.048,0.291,0.048,0.186     c2.518-2.83,6.306-3.85,9.969-3.761C263.817,75.302,263.925,74.954,263.795,74.901z" />
			
				<radialGradient id="SVGID_00000110470021686477013770000015226291217483966871_" cx="223.3645" cy="40.7858" r="79.958" gradientTransform="matrix(1 -0.0024 0.0024 1 -0.0869 8.5086)" gradientUnits="userSpaceOnUse">
				<stop offset="0.1763" style="stop-color:#90A2B0" />
				<stop offset="1" style="stop-color:#6F7F8C" />
			</radialGradient>
			<path style="fill:url(#SVGID_00000110470021686477013770000015226291217483966871_);" d="M260.702,78.833     c-1.053,0.121-1.985,0.593-2.672,1.405c-0.028,0.034-0.041,0.176,0.032,0.117c0.767-0.626,1.634-0.927,2.575-1.177     C260.746,79.147,260.848,78.815,260.702,78.833z" />
			
				<radialGradient id="SVGID_00000048467594767831617950000007954909191659344012_" cx="223.3621" cy="40.783" r="79.9618" gradientTransform="matrix(1 -0.0024 0.0024 1 -0.0869 8.5086)" gradientUnits="userSpaceOnUse">
				<stop offset="0.1763" style="stop-color:#90A2B0" />
				<stop offset="1" style="stop-color:#6F7F8C" />
			</radialGradient>
			<path style="fill:url(#SVGID_00000048467594767831617950000007954909191659344012_);" d="M262.357,87.166     c-1.257-0.402-2.439,0.26-3.34,1.077c-0.042,0.037-0.087,0.261,0.008,0.202c0.479-0.3,0.975-0.546,1.525-0.679     c0.557-0.137,1.137-0.094,1.696-0.189C262.367,87.557,262.504,87.214,262.357,87.166z" />
			
				<radialGradient id="SVGID_00000098908725319030337510000007948831994054582435_" cx="223.3686" cy="40.7889" r="79.9502" gradientTransform="matrix(1 -0.0024 0.0024 1 -0.0869 8.5086)" gradientUnits="userSpaceOnUse">
				<stop offset="0.1763" style="stop-color:#90A2B0" />
				<stop offset="1" style="stop-color:#6F7F8C" />
			</radialGradient>
			<path style="fill:url(#SVGID_00000098908725319030337510000007948831994054582435_);" d="M267.25,93.931     c-2.721-1.126-5.955-1.137-8.354,0.778c-0.074,0.059-0.125,0.403,0.017,0.313c2.48-1.584,5.475-1.455,8.155-0.559     C267.259,94.526,267.438,94.007,267.25,93.931z" />
			
				<radialGradient id="SVGID_00000104704898256028071410000011289907015032677027_" cx="223.375" cy="40.7688" r="79.9644" gradientTransform="matrix(1 -0.0024 0.0024 1 -0.0869 8.5086)" gradientUnits="userSpaceOnUse">
				<stop offset="0.1763" style="stop-color:#90A2B0" />
				<stop offset="1" style="stop-color:#6F7F8C" />
			</radialGradient>
			<path style="fill:url(#SVGID_00000104704898256028071410000011289907015032677027_);" d="M262.956,98.155     c-0.515-0.335-1.011-0.624-1.627-0.718c-0.538-0.08-1.063,0.138-1.554,0.321c-0.058,0.022-0.121,0.211-0.037,0.194     c0.554-0.1,1.066-0.155,1.625-0.018c0.508,0.124,0.983,0.417,1.455,0.63C262.96,98.628,263.084,98.238,262.956,98.155z" />
			
				<radialGradient id="SVGID_00000120534305956879237010000010505383974276821655_" cx="223.3677" cy="40.8177" r="79.9208" gradientTransform="matrix(1 -0.0024 0.0024 1 -0.0869 8.5086)" gradientUnits="userSpaceOnUse">
				<stop offset="0.1763" style="stop-color:#90A2B0" />
				<stop offset="1" style="stop-color:#6F7F8C" />
			</radialGradient>
			<path style="fill:url(#SVGID_00000120534305956879237010000010505383974276821655_);" d="M261.229,104.59     c-1.021-1.423-2.476-2.289-4.25-2.187c-0.079,0.003-0.152,0.239-0.067,0.249c1.688,0.188,2.995,1.15,4.088,2.394     C261.135,105.203,261.325,104.725,261.229,104.59z" />
			
				<radialGradient id="SVGID_00000123410795096856587130000015374972309898557114_" cx="223.3393" cy="40.802" r="79.9527" gradientTransform="matrix(1 -0.0024 0.0024 1 -0.0869 8.5086)" gradientUnits="userSpaceOnUse">
				<stop offset="0.1763" style="stop-color:#90A2B0" />
				<stop offset="1" style="stop-color:#6F7F8C" />
			</radialGradient>
			<path style="fill:url(#SVGID_00000123410795096856587130000015374972309898557114_);" d="M255.117,104.687     c-0.099-0.09-0.224,0.211-0.146,0.291c0.279,0.294,0.563,0.58,0.827,0.889c0.282,0.327,0.477,0.7,0.695,1.065     c0.087,0.143,0.195-0.139,0.186-0.215C256.537,105.831,255.738,105.258,255.117,104.687z" />
			
				<radialGradient id="SVGID_00000139979830812866303720000016759955969445341862_" cx="223.3775" cy="40.7809" r="79.9529" gradientTransform="matrix(1 -0.0024 0.0024 1 -0.0869 8.5086)" gradientUnits="userSpaceOnUse">
				<stop offset="0.1763" style="stop-color:#90A2B0" />
				<stop offset="1" style="stop-color:#6F7F8C" />
			</radialGradient>
			<path style="fill:url(#SVGID_00000139979830812866303720000016759955969445341862_);" d="M249.765,109.758     c-0.23-0.774-0.447-1.53-0.371-2.345c0.019-0.195-0.167-0.043-0.185,0.068c-0.141,0.912,0,1.8,0.276,2.674     C249.555,110.383,249.813,109.919,249.765,109.758z" />
			
				<radialGradient id="SVGID_00000083806345018594450990000011675820121846387103_" cx="223.3698" cy="40.8105" r="79.9212" gradientTransform="matrix(1 -0.0024 0.0024 1 -0.0869 8.5086)" gradientUnits="userSpaceOnUse">
				<stop offset="0.1763" style="stop-color:#90A2B0" />
				<stop offset="1" style="stop-color:#6F7F8C" />
			</radialGradient>
			<path style="fill:url(#SVGID_00000083806345018594450990000011675820121846387103_);" d="M246.621,107.224     c-0.054,0.993-0.546,1.651-1.178,2.369c-0.061,0.067-0.197,0.494,0.02,0.392c0.983-0.463,1.408-1.899,1.4-2.902     C246.862,106.802,246.629,107.073,246.621,107.224z" />
			
				<radialGradient id="SVGID_00000058558193709980231440000013656900715285247118_" cx="223.3613" cy="40.7824" r="79.9585" gradientTransform="matrix(1 -0.0024 0.0024 1 -0.0869 8.5086)" gradientUnits="userSpaceOnUse">
				<stop offset="0.1763" style="stop-color:#90A2B0" />
				<stop offset="1" style="stop-color:#6F7F8C" />
			</radialGradient>
			<path style="fill:url(#SVGID_00000058558193709980231440000013656900715285247118_);" d="M241.725,105.493     c-0.462,0.404-0.966,0.748-1.496,1.053c-0.419,0.24-1.099,0.687-1.604,0.636c-0.136-0.015-0.253,0.338-0.123,0.363     c0.5,0.099,1.069-0.226,1.522-0.418c0.679-0.289,1.255-0.695,1.76-1.229C241.891,105.787,241.955,105.291,241.725,105.493z" />
			
				<radialGradient id="SVGID_00000111163605227635272270000004011454748064498864_" cx="223.3684" cy="40.8521" r="79.8613" gradientTransform="matrix(1 -0.0024 0.0024 1 -0.0869 8.5086)" gradientUnits="userSpaceOnUse">
				<stop offset="0.1763" style="stop-color:#90A2B0" />
				<stop offset="1" style="stop-color:#6F7F8C" />
			</radialGradient>
			<path style="fill:url(#SVGID_00000111163605227635272270000004011454748064498864_);" d="M239.328,103.713     c-0.526,0.308-1.008,0.867-1.636,0.948c-0.102,0.012-0.184,0.299-0.058,0.296c0.657-0.006,1.272-0.546,1.704-0.992     C239.384,103.92,239.454,103.637,239.328,103.713z" />
		</g>
		<g style="opacity:0.5;">
			
				<radialGradient id="SVGID_00000019641576397860978650000015267718104124567964_" cx="302.3436" cy="59.5307" r="118.5431" gradientTransform="matrix(1 -0.0024 0.0024 1 -0.0869 8.5086)" gradientUnits="userSpaceOnUse">
				<stop offset="0.1763" style="stop-color:#90A2B0" />
				<stop offset="1" style="stop-color:#6F7F8C" />
			</radialGradient>
			<path style="fill:url(#SVGID_00000019641576397860978650000015267718104124567964_);" d="M386.399,115.235     c-1.286-3.49-5.486-17.125-5.887-21.752c-0.396-4.559,2.321-10.019,2.466-20.241c0.144-10.206-6.153-18.19-10.606-27.528     c-2.267-2.62-4.21-4.942-4.21-4.942c3.076,5.663,9.614,15.796,12.196,27.037c2.583,11.241-0.958,26.585-8.707,28.479     c-6.655,1.624-7.339-5.437-4.971-12.258c2.37-6.819,2.017-11.081-0.376-14.993c-0.319,9.373-7.612,22.68-20.734,22.37     c-13.123-0.309-12.124-10.875-11.978-20.418c0.108-6.825-3.938-8.851-3.938-8.851s1.371,3.914,1.376,5.958     c0.004,2.046-1.197-2.211-4.78-4.078c2.739,5.276,2.417,12.603,1.584,20.956c-0.833,8.351-0.159,22.45-9.109,21.063     c-8.949-1.384-12.145-21.729-14.161-34.264c-1.979,2.488-0.603,8.071-1.721,7.701c-1.118-0.368-3.486-4.213-3.486-4.213     s-1.238,1.493,2.248,6.079c3.487,4.585,4.953,13.479-1.188,10.938c-6.141-2.541-11.779-9.174-15.112-13.255     c-1.008,5.88,3.579,11.52,4.391,18.478c1.426,12.253-10.082,11.951-12.898,8.712c-0.318,4.07-1.547,8.928-3.143,13.179     c0.591-0.762,1.229-1.467,2.083-1.937c1.762-0.973,4.326-0.754,6.172-0.128c2.152,0.729,3.178,2.24,3.902,4.338     c0.514,1.487,1.271,3.665,0.749,5.25c-1.391,4.216-7.511,4.974-11.182,3.799c-2.171-0.694-4.028-1.943-5.533-3.54     c-1.107,2.101-0.467,2.678,1.786,4.36c-0.91,0.706-1.899,1.711-2.726,2.792c0.571-0.338,1.218-0.592,1.852-0.549     c1.741,0.116,2.887,4.09,2.533,6.451c0,0,1.13-4.959,3.47-5.685c2.335-0.727,3.478,3.141,2.708,5.796     c0,0,1.548-5.507,3.588-5.811c2.038-0.307,2.335,5.04,2.335,5.04c5.674-0.14,12.35-2.045,5.908-7.451     c2.517-2.402,3.995-16.777,3.725-23.963c-0.271-7.185-0.54-16.009-0.54-16.009s8.965,6.157,13.882,6.146     c1.275,6.93,1.295,14.621-0.58,21.811c-0.179,0.807-0.35,1.585-0.503,2.335c0.359-0.619,0.708-1.244,1.087-1.822     c1.374-2.084,3.055-3.226,5.65-2.776c1.684,0.29,3.195,1.194,4.871,1.521c2.079,0.403,4.185,0.418,6.288,0.201     c2.165-0.225,4.77-1.085,6.033,1.268c1.316,2.451,1.241,5.167-0.063,7.587c-1.172,2.178-3.754,3.268-6.031,3.822     c-2.994,0.732-6.124,1.133-9.203,0.839c-2.744-0.261-5.307-1.021-7.626-2.23c0.576,0.6,1.342,1.127,2.346,1.583     c-1.595,2.136-3.093,4.887-2.506,6.814c0.763-1.848,2.591-5.62,4.763-5.441c2.686,0.221,3.504,3,3.169,7.22     c0.663-2.19,2.079-5.886,4.134-5.924c2.545-0.048,2.917,4.195,3.008,6.382c0.014,0.004,0.027,0.009,0.042,0.014     c0.405-2.1,1.315-5.595,2.938-5.972c1.847-0.427,3.306,2.285,3.982,4.643c0.007-0.081,0-0.161-0.022-0.24     c5.491-0.844,8.94-2.004,7.594-3.79c-1.346-1.785-2.436-2.933-0.967-3.575c1.468-0.643,3.522-2.224,0.773-11.947     c-2.748-9.726-6.628-14.194-7.669-21.434c9.374,0.575,22.551,1.169,31.381-11.49c0,0,1.315,2.895,0.906,9.967     c-0.267,4.631-0.61,9.441-1.074,13.575c0.604-1.678,1.157-3.389,2.417-4.655c3.104-3.123,10.262-2.896,12.902,0.781     c2.447,3.406,3.923,9.738,1.089,13.34c-2.758,3.508-7.521,3.686-11.521,2.521c-2.055-0.6-4.296-1.56-6.225-2.901     c-0.053,1.484,0.586,1.849,2.642,2.812c-2.517,3.274-2.576,5.701-1.25,6.888c0.523-1.615,1.913-5.418,3.378-5.299     c1.709,0.145,2.702,3.527,1.865,7.087c0.365,0.074,0.743,0.145,1.137,0.209c0.182-1.662,0.822-5.694,2.84-6.034     c2.392-0.404,3.576,2.664,3.365,6.429c0.357-0.019,0.721-0.046,1.085-0.078c-0.119-1.86-0.208-5.81,1.124-6.259     c1.556-0.521,3.368,2.605,3.793,5.207c1.384-0.491,2.725-1.164,3.977-2.065c3.145-2.819,3.227-4.693,2.282-7.757     C387.603,119.491,387.685,118.725,386.399,115.235z" />
		</g>
		<g>
			
				<radialGradient id="SVGID_00000020378206158329831060000014122449284933622927_" cx="255.3702" cy="69.1184" r="14.3973" gradientTransform="matrix(1 -0.0024 0.0024 1 -0.0869 8.5086)" gradientUnits="userSpaceOnUse">
				<stop offset="0.1763" style="stop-color:#90A2B0" />
				<stop offset="1" style="stop-color:#6F7F8C" />
			</radialGradient>
			<path style="fill:url(#SVGID_00000020378206158329831060000014122449284933622927_);" d="M259.358,87.872     c-1.005-3.079-3.47-5.92-5.167-8.653c-2.067-3.333-3.592-7.239-3.504-11.173c0.081-3.65,0.464-6.963,1.163-10.55     c0.037-0.193-0.143-0.163-0.181-0.006c-1.447,5.937-2.388,11.719-0.385,17.624c1.142,3.363,3.024,6.532,5.011,9.471     c2.547,3.775,3.256,7.464,3.943,11.891c0.082,0.528,0.556-0.19,0.545-0.449C260.654,93.239,260.228,90.528,259.358,87.872z" />
			
				<radialGradient id="SVGID_00000115499902640871043410000000361679408105093040_" cx="254.7498" cy="94.5495" r="4.2527" gradientTransform="matrix(1 -0.0024 0.0024 1 -0.0869 8.5086)" gradientUnits="userSpaceOnUse">
				<stop offset="0.1763" style="stop-color:#90A2B0" />
				<stop offset="1" style="stop-color:#6F7F8C" />
			</radialGradient>
			<path style="fill:url(#SVGID_00000115499902640871043410000000361679408105093040_);" d="M259.397,98.574     c-0.013-0.242-0.201,0-0.205,0.127c-0.158,4.165-4.921,6.269-8.471,6.809c-0.31,0.046-0.521,0.941-0.142,0.911     C254.588,106.088,259.598,103.038,259.397,98.574z" />
		</g>
		
			<radialGradient id="SVGID_00000073683630254367821420000007812331641117766535_" cx="247.6398" cy="36.931" r="7.3927" gradientTransform="matrix(1 -0.0024 0.0024 1 -0.0869 8.5086)" gradientUnits="userSpaceOnUse">
			<stop offset="0.1763" style="stop-color:#90A2B0" />
			<stop offset="1" style="stop-color:#6F7F8C" />
		</radialGradient>
		<path style="fill:url(#SVGID_00000073683630254367821420000007812331641117766535_);" d="M250.893,53.836    c-1.216-1.103-2.572-1.99-3.685-3.211c-1.101-1.207-1.906-3.497-2.232-5.059c-0.732-3.468,0.45-7.07-0.147-10.56    c-0.037-0.219-0.228,0.104-0.212,0.218c0.521,4.112-0.976,8.244,0.155,12.333c0.867,3.133,2.931,5.64,5.775,7.182    C250.834,54.895,251.1,54.024,250.893,53.836z" />
		
			<radialGradient id="SVGID_00000129915354042222588540000000006917098508247432_" cx="311.6376" cy="80.5472" r="12.2523" gradientTransform="matrix(1 -0.0024 0.0024 1 -0.0869 8.5086)" gradientUnits="userSpaceOnUse">
			<stop offset="0.1763" style="stop-color:#90A2B0" />
			<stop offset="1" style="stop-color:#6F7F8C" />
		</radialGradient>
		<path style="fill:url(#SVGID_00000129915354042222588540000000006917098508247432_);" d="M318.171,103.161    c-2.817-1.267-4.245-3.4-5.575-6.129c-1.404-2.874-2.679-6.113-3.579-9.175c-0.851-2.898-1.676-5.728-2.166-8.71    c-0.379-2.309-0.659-4.556-1.387-6.79c-0.08-0.247-0.367,0.244-0.32,0.404c0.816,2.855,0.991,5.785,1.419,8.714    c0.441,3.04,1.334,6.152,2.392,9.03c1.696,4.61,3.454,12.269,8.863,13.813C318.237,104.438,318.566,103.338,318.171,103.161z" />
		
			<radialGradient id="SVGID_00000139985817058696843450000007825240604404156351_" cx="309.8486" cy="117.8518" r="4.6318" gradientTransform="matrix(1 -0.0024 0.0024 1 -0.0869 8.5086)" gradientUnits="userSpaceOnUse">
			<stop offset="0.1763" style="stop-color:#90A2B0" />
			<stop offset="1" style="stop-color:#6F7F8C" />
		</radialGradient>
		<path style="fill:url(#SVGID_00000139985817058696843450000007825240604404156351_);" d="M312.397,130.767    c-2.976-1.315-4.63-3.173-4.172-6.704c0.201-1.543,1.428-2.867,1.449-4.405c0.002-0.209-0.184-0.04-0.195,0.08    c-0.078,0.943-0.84,1.839-1.215,2.696c-0.559,1.269-0.766,2.681-0.693,4.054c0.129,2.476,1.975,5.044,4.549,5.184    C312.455,131.689,312.725,130.91,312.397,130.767z" />
		
			<radialGradient id="SVGID_00000161631491138235754120000005612554774523916464_" cx="321.2882" cy="95.9571" r="1.3829" gradientTransform="matrix(1 -0.0024 0.0024 1 -0.0869 8.5086)" gradientUnits="userSpaceOnUse">
			<stop offset="0.1763" style="stop-color:#90A2B0" />
			<stop offset="1" style="stop-color:#6F7F8C" />
		</radialGradient>
		<path style="fill:url(#SVGID_00000161631491138235754120000005612554774523916464_);" d="M323.008,102.81    c-0.952,0.386-1.962,1.341-3.048,0.99c-0.214-0.069-0.376,0.493-0.18,0.597c1.116,0.583,2.176-0.31,3.158-0.76    C323.175,103.528,323.284,102.698,323.008,102.81z" />
		
			<radialGradient id="SVGID_00000044865943211910932390000011187220022118097337_" cx="343.0023" cy="73.4539" r="9.1822" gradientTransform="matrix(1 -0.0024 0.0024 1 -0.0869 8.5086)" gradientUnits="userSpaceOnUse">
			<stop offset="0.1763" style="stop-color:#90A2B0" />
			<stop offset="1" style="stop-color:#6F7F8C" />
		</radialGradient>
		<path style="fill:url(#SVGID_00000044865943211910932390000011187220022118097337_);" d="M351.313,90.075    c-4.729,0.854-9.383,0.072-13.081-3.345c-3.602-3.326-3.143-10.879-3.219-15.323c-0.008-0.326-0.277-0.005-0.279,0.175    c-0.05,4.462-0.541,10.914,2.097,14.836c3.175,4.721,9.271,5.372,14.37,3.914C351.505,90.245,351.697,90.008,351.313,90.075z" />
	</g>
	</svg>